<svg width="26" height="26" viewBox="0 0 26 26" fill="none" xmlns="http://www.w3.org/2000/svg">
<path d="M16.5182 9.47701C16.1191 9.07798 15.4661 9.07798 15.0671 9.47701L12.989 11.5551L10.9212 9.47701C10.5222 9.07798 9.86921 9.07798 9.47017 9.47701C9.07114 9.87604 9.07114 10.529 9.47017 10.9281L11.5483 13.0062L9.47017 15.0843C9.07114 15.4833 9.07114 16.1363 9.47017 16.5354C9.66192 16.7271 9.92622 16.8359 10.1905 16.8359C10.4548 16.8359 10.7243 16.7271 10.9109 16.5354L12.989 14.4572L15.0671 16.5354C15.2589 16.7271 15.5232 16.8359 15.7875 16.8359C16.0518 16.8359 16.3213 16.7271 16.5078 16.5354C16.9069 16.1363 16.9069 15.4833 16.5078 15.0843L14.4297 13.0062L16.5078 10.9281C16.9069 10.529 16.9069 9.87604 16.5078 9.47701H16.5182Z" fill="#A2072F"/>
<path d="M13 0.499512C6.10755 0.499512 0.5 6.10673 0.5 12.9995C0.5 19.8923 6.10722 25.4995 13 25.4995C19.8928 25.4995 25.5 19.8923 25.5 12.9995C25.5 6.10673 19.8928 0.499512 13 0.499512ZM13 23.3536C7.28896 23.3536 2.64558 18.7102 2.64558 12.9992C2.64558 7.28814 7.28896 2.64476 13 2.64476C18.711 2.64476 23.3544 7.28814 23.3544 12.9992C23.3544 18.7102 18.711 23.3536 13 23.3536Z" fill="#A2072F"/>
</svg>
