<svg width="30" height="30" viewBox="0 0 30 30" fill="none" xmlns="http://www.w3.org/2000/svg">
<mask id="mask0_167_10742" style="mask-type:alpha" maskUnits="userSpaceOnUse" x="0" y="0" width="30" height="30">
<rect width="30" height="30" fill="#148CF0"/>
</mask>
<g mask="url(#mask0_167_10742)">
<path d="M17.4999 14.032H16.4444C16.3888 13.8376 16.3055 13.6432 16.1666 13.4766H17.4999C17.7221 13.4766 17.9166 13.2822 17.9166 13.0601C17.9166 12.8379 17.7221 12.6436 17.4999 12.6436H14.111H12.4999C12.2777 12.6436 12.0833 12.8379 12.0833 13.0601C12.0833 13.2822 12.2777 13.4766 12.4999 13.4766H14.111C14.9721 13.4766 15.361 13.6988 15.5555 14.032H12.4999C12.2777 14.032 12.0833 14.2264 12.0833 14.4486C12.0833 14.6707 12.2777 14.8651 12.4999 14.8651H15.6944C15.6666 15.4482 15.4166 15.9759 14.111 15.9759H12.4999C12.3333 15.9759 12.1666 16.0869 12.111 16.2258C12.0555 16.3924 12.0833 16.559 12.1944 16.6701L15.5277 20.0024C15.611 20.0857 15.7221 20.1135 15.8333 20.1135C15.9444 20.1135 16.0555 20.0857 16.1388 20.0024C16.3055 19.8358 16.3055 19.5859 16.1388 19.4192L13.5277 16.8089H14.111C16.111 16.8089 16.4999 15.6426 16.5277 14.8651H17.4999C17.7221 14.8651 17.9166 14.6707 17.9166 14.4486C17.9166 14.2264 17.7221 14.032 17.4999 14.032Z" fill="#148CF0"/>
<path d="M9.4445 22.0846C9.22228 22.0846 9.02783 21.8902 9.02783 21.6681V11.1158C9.02783 10.8936 9.22228 10.6992 9.4445 10.6992C9.66672 10.6992 9.86117 10.8936 9.86117 11.1158V21.6681C9.86117 21.8902 9.66672 22.0846 9.4445 22.0846Z" fill="#148CF0"/>
<path d="M6.66667 22.0846C6.44444 22.0846 6.25 21.8902 6.25 21.6681V11.1158C6.25 10.8936 6.44444 10.6992 6.66667 10.6992C6.88889 10.6992 7.08333 10.8936 7.08333 11.1158V21.6681C7.08333 21.8902 6.88889 22.0846 6.66667 22.0846Z" fill="#148CF0"/>
<path d="M20.5556 22.0846C20.3334 22.0846 20.1389 21.8902 20.1389 21.6681V11.1158C20.1389 10.8936 20.3334 10.6992 20.5556 10.6992C20.7778 10.6992 20.9722 10.8936 20.9722 11.1158V21.6681C20.9722 21.8902 20.7778 22.0846 20.5556 22.0846Z" fill="#148CF0"/>
<path d="M23.3334 22.0846C23.1112 22.0846 22.9167 21.8902 22.9167 21.6681V11.1158C22.9167 10.8936 23.1112 10.6992 23.3334 10.6992C23.5556 10.6992 23.7501 10.8936 23.7501 11.1158V21.6681C23.7501 21.8902 23.5556 22.0846 23.3334 22.0846Z" fill="#148CF0"/>
<path d="M24.3055 10.1439H5.69436C5.49991 10.1439 5.33325 10.005 5.30547 9.8384C5.24991 9.64401 5.33325 9.4774 5.49991 9.36632L14.8055 3.81248C14.9444 3.72917 15.111 3.72917 15.2221 3.81248L24.4999 9.33855C24.6388 9.39409 24.7499 9.56071 24.7499 9.72732C24.7221 9.94948 24.5277 10.1439 24.3055 10.1439ZM7.19436 9.31078H22.7777L14.9999 4.64556L7.19436 9.31078Z" fill="#148CF0"/>
<path d="M24.3056 23.473H5.6945C5.47228 23.473 5.27783 23.2785 5.27783 23.0563C5.27783 22.8341 5.47228 22.6396 5.6945 22.6396H24.3056C24.5278 22.6396 24.7223 22.8341 24.7223 23.0563C24.7223 23.2785 24.5278 23.473 24.3056 23.473Z" fill="#148CF0"/>
<path d="M25.6945 24.8617H4.30558C4.08336 24.8617 3.88892 24.6672 3.88892 24.445C3.88892 24.2228 4.08336 24.0283 4.30558 24.0283H25.6945C25.9167 24.0283 26.1111 24.2228 26.1111 24.445C26.1111 24.6672 25.9167 24.8617 25.6945 24.8617Z" fill="#148CF0"/>
<path d="M27.0833 26.2503H2.91667C2.69444 26.2503 2.5 26.0559 2.5 25.8337C2.5 25.6114 2.69444 25.417 2.91667 25.417H27.0833C27.3056 25.417 27.5 25.6114 27.5 25.8337C27.5 26.0559 27.3056 26.2503 27.0833 26.2503Z" fill="#148CF0"/>
</g>
</svg>
