<svg width="30" height="30" viewBox="0 0 30 30" fill="none" xmlns="http://www.w3.org/2000/svg">
<mask id="mask0_397_43761" style="mask-type:alpha" maskUnits="userSpaceOnUse" x="0" y="0" width="30" height="30">
<rect width="30" height="30" fill="#148CF0"/>
</mask>
<g mask="url(#mask0_397_43761)">
<path d="M15.6251 10.5369H26.4547C26.9604 10.5369 27.3723 10.125 27.3723 9.61932V3.41761C27.3723 2.91193 26.9604 2.5 26.4547 2.5H15.6251C15.1195 2.5 14.7075 2.91193 14.7075 3.41761V9.61932C14.7075 10.125 15.1195 10.5369 15.6251 10.5369ZM15.2643 3.41761C15.2643 3.21875 15.4263 3.05682 15.6251 3.05682H26.4547C26.6507 3.05682 26.8155 3.21875 26.8155 3.41761V9.61932C26.8155 9.81818 26.6507 9.98011 26.4547 9.98011H15.6251C15.4263 9.98011 15.2643 9.81818 15.2643 9.61932V3.41761Z" fill="#148CF0"/>
<path d="M26.3011 23.1751C26.1733 22.033 25.4062 21.087 24.3665 20.6893C24.875 20.3001 25.1989 19.712 25.1989 19.0529C25.1989 17.8825 24.1705 16.9308 22.9062 16.9308C21.642 16.9308 20.6136 17.8825 20.6136 19.0529C20.6136 19.7035 20.9318 20.2859 21.429 20.6751C20.429 21.0415 19.6733 21.9194 19.4858 22.9904H18.2131C18.0256 21.9308 17.2898 21.0614 16.3097 20.6864C16.8182 20.2972 17.142 19.7092 17.142 19.0501C17.142 18.2461 16.6591 17.5472 15.9489 17.1864V13.4734C15.9489 12.8711 15.4659 12.3825 14.875 12.3825H12.5568V12.2489C12.5568 11.1552 11.9233 10.2092 11.0114 9.76882C11.3722 9.43643 11.5937 8.97621 11.5937 8.47053C11.5937 7.45064 10.6875 6.62109 9.57386 6.62109C8.46023 6.62109 7.55114 7.45064 7.55114 8.47053C7.55114 8.97621 7.77557 9.43359 8.13352 9.76882C7.22159 10.2092 6.59091 11.1552 6.59091 12.2489V12.3825H5.14205C4.55114 12.3825 4.07102 12.8711 4.07102 13.4734V18.2376C4.07102 18.5614 4.25568 18.8427 4.51705 18.9876C4.51705 19.0075 4.5142 19.0302 4.5142 19.0501C4.5142 19.7006 4.82955 20.283 5.3267 20.6722C4.20739 21.0842 3.39489 22.1325 3.34091 23.3796C2.83239 23.7546 2.5 24.354 2.5 25.033V27.2205C2.5 27.3739 2.625 27.4989 2.77841 27.4989H27.2216C27.375 27.4989 27.5 27.3739 27.5 27.2205V25.033C27.5 24.2063 27.0085 23.4961 26.3011 23.1751ZM21.1733 19.0529C21.1733 18.1893 21.9545 17.4876 22.9091 17.4876C23.8665 17.4876 24.6449 18.1893 24.6449 19.0529C24.6449 19.9165 23.8665 20.6183 22.9091 20.6183C21.9517 20.6183 21.1733 19.9165 21.1733 19.0529ZM22.179 21.0614C22.4062 21.1325 22.6534 21.1722 22.9091 21.1722C23.1591 21.1722 23.3977 21.1325 23.6222 21.0671C24.6619 21.2063 25.5 21.9933 25.7131 23.0046C25.6307 22.9961 25.5426 22.9876 25.4602 22.9876H20.054C20.2756 21.9705 21.125 21.1864 22.179 21.0614ZM17.6534 22.9904H11.9972C12.2188 21.9705 13.071 21.1836 14.1222 21.0586C14.3523 21.1296 14.5994 21.1722 14.8551 21.1722C15.1051 21.1722 15.3438 21.1325 15.5682 21.0671C16.6023 21.2063 17.4347 21.9847 17.6534 22.9904ZM11.4347 22.9904H10.1705C9.98295 21.9308 9.24432 21.0614 8.26136 20.6864C8.76136 20.3029 9.07955 19.7319 9.09091 19.087H12.5653C12.5795 19.7234 12.8892 20.2887 13.3778 20.6722C12.3778 21.0387 11.6222 21.9165 11.4347 22.9904ZM16.5909 19.0529C16.5909 19.9165 15.8125 20.6183 14.8551 20.6183C13.9006 20.6183 13.1222 19.9165 13.1222 19.0529C13.1222 18.1893 13.9006 17.4876 14.8551 17.4876C15.8125 17.4847 16.5909 18.1864 16.5909 19.0529ZM8.10795 8.47053C8.10795 7.75746 8.76705 7.17507 9.57386 7.17507C10.3835 7.17507 11.0369 7.75462 11.0369 8.47053C11.0369 9.18075 10.3807 9.76314 9.57386 9.76314C8.76705 9.76314 8.10795 9.18359 8.10795 8.47053ZM7.15057 12.2489C7.15057 11.2461 7.8125 10.3995 8.71307 10.141C8.97727 10.2546 9.26989 10.32 9.5767 10.32C9.88636 10.32 10.1761 10.2575 10.4375 10.141C11.3381 10.3995 12 11.2461 12 12.2489V12.3825H7.15057V12.2489ZM4.625 18.2376V13.4734C4.625 13.1751 4.85511 12.9364 5.14205 12.9364H14.8778C15.1648 12.9364 15.3977 13.1751 15.3977 13.4734V16.9933C15.2216 16.9506 15.0426 16.9308 14.8551 16.9308C13.7869 16.9308 12.8892 17.6154 12.6364 18.533H9.02273C8.77273 17.6126 7.875 16.9308 6.80398 16.9308C5.80966 16.9308 4.96307 17.5245 4.64489 18.3512C4.63352 18.3114 4.625 18.2773 4.625 18.2376ZM5.06818 19.0529C5.06818 18.1893 5.84659 17.4876 6.80114 17.4876C7.75852 17.4876 8.53693 18.1893 8.53693 19.0529C8.53693 19.9165 7.75852 20.6183 6.80114 20.6183C5.84659 20.6183 5.06818 19.9165 5.06818 19.0529ZM6.07102 21.0614C6.30114 21.1325 6.54545 21.1722 6.80114 21.1722C7.05114 21.1722 7.29261 21.1325 7.51705 21.0671C8.55114 21.2063 9.38068 21.9847 9.59943 22.9904H4.53977C4.32955 22.9904 4.12216 23.0245 3.93182 23.0842C4.11932 22.0217 4.98864 21.1893 6.07102 21.0614ZM26.9432 26.9421H3.05682V25.0302C3.05682 24.212 3.72443 23.5444 4.53977 23.5444H25.4631C26.2784 23.5444 26.946 24.212 26.946 25.0302V26.9421H26.9432Z" fill="#148CF0"/>
<path d="M16.2983 9.46413H25.7841C26.0228 9.46413 26.2216 9.27095 26.2216 9.02947V4.00107C26.2216 3.76243 26.0256 3.56641 25.7841 3.56641H16.2983C16.0569 3.56641 15.8608 3.75959 15.8608 4.00107V9.03232C15.8608 9.27095 16.0569 9.46413 16.2983 9.46413ZM16.4177 4.12322H25.6648V8.91016H16.4177V4.12322Z" fill="#148CF0"/>
<path d="M17.8692 5.45916H21.9062C22.0596 5.45916 22.1846 5.33416 22.1846 5.18075C22.1846 5.0245 22.0596 4.90234 21.9062 4.90234H17.8692C17.713 4.90234 17.5908 5.0245 17.5908 5.18075C17.5908 5.33416 17.713 5.45916 17.8692 5.45916Z" fill="#148CF0"/>
<path d="M23.9232 6.24219H17.8692C17.713 6.24219 17.5908 6.36435 17.5908 6.5206C17.5908 6.67401 17.713 6.79901 17.8692 6.79901H23.9232C24.0766 6.79901 24.2016 6.67401 24.2016 6.5206C24.1988 6.36435 24.0738 6.24219 23.9232 6.24219Z" fill="#148CF0"/>
<path d="M19.5965 7.57812H17.8692C17.713 7.57812 17.5908 7.70028 17.5908 7.85653C17.5908 8.00994 17.713 8.13494 17.8692 8.13494H19.5965C19.7528 8.13494 19.8749 8.00994 19.8749 7.85653C19.8749 7.70028 19.7528 7.57812 19.5965 7.57812Z" fill="#148CF0"/>
</g>
</svg>
