<svg width="30" height="30" viewBox="0 0 30 30" fill="none" xmlns="http://www.w3.org/2000/svg">
<mask id="mask0_239_2488" style="mask-type:alpha" maskUnits="userSpaceOnUse" x="0" y="0" width="30" height="30">
<rect width="30" height="30" fill="#710571"/>
</mask>
<g mask="url(#mask0_239_2488)">
<path d="M10.9985 15.0412C11.0945 15.1802 11.2522 15.2666 11.4229 15.2725C11.5936 15.2783 11.7572 15.2047 11.8639 15.0727L15.0575 11.127L22.6897 20.9086L19.3407 20.0489C19.0526 19.9753 18.7586 20.1447 18.6839 20.4285C18.6092 20.7124 18.7811 21.0021 19.0692 21.0757L23.9393 22.3267C23.9843 22.3384 24.0294 22.3442 24.0756 22.3442C24.193 22.3442 24.3092 22.3057 24.4052 22.2332C24.5368 22.1328 24.615 21.9774 24.615 21.8139V16.8204C24.615 16.5272 24.3744 16.2901 24.0768 16.2901C23.7792 16.2901 23.5386 16.5272 23.5386 16.8204V20.2533L15.4937 9.94358C15.3929 9.81392 15.2364 9.73799 15.0716 9.73682C14.9116 9.74383 14.7492 9.80925 14.646 9.93657L11.4782 13.8497L4.64723 3.98167C4.48007 3.73987 4.14459 3.67681 3.89919 3.84267C3.65379 4.00737 3.58978 4.33792 3.75811 4.57972L10.9985 15.0412Z" fill="#710571"/>
<path d="M26.9618 25.1895H3.03821C2.74065 25.1895 2.5 25.4266 2.5 25.7198C2.5 26.0129 2.74066 26.2501 3.03821 26.2501H26.9618C27.2594 26.2501 27.5 26.0129 27.5 25.7198C27.5 25.4266 27.2593 25.1895 26.9618 25.1895Z" fill="#710571"/>
</g>
</svg>
