<svg width="20" height="20" viewBox="0 0 20 20" fill="none" xmlns="http://www.w3.org/2000/svg">
<mask id="mask0_69_128" style="mask-type:alpha" maskUnits="userSpaceOnUse" x="0" y="0" width="20" height="20">
<rect width="20" height="20" fill="#148CF0"/>
</mask>
<g mask="url(#mask0_69_128)">
<path d="M15.3093 1.66675H7.85674C6.67598 1.66675 5.71313 2.61993 5.67257 3.8035H4.68818C3.48184 3.8035 2.5 4.79675 2.5 6.01696V16.1214C2.5 17.3401 3.4819 18.3334 4.68818 18.3334H12.1424C13.3232 18.3334 14.286 17.3802 14.3266 16.1967H15.311C16.5173 16.1967 17.4992 15.2034 17.4992 13.9832L17.5 3.88042C17.4975 2.66015 16.5156 1.66696 15.3093 1.66696L15.3093 1.66675ZM13.4841 16.12C13.4841 16.8703 12.8818 17.4788 12.1408 17.4788H4.68822C3.94643 17.4788 3.3449 16.8695 3.3449 16.12V6.01718C3.3449 5.26681 3.94725 4.65833 4.68822 4.65833H12.1425C12.8843 4.65833 13.4858 5.26765 13.4858 6.01718L13.4866 16.12H13.4841ZM16.6526 13.9832C16.6526 14.7336 16.0503 15.342 15.3093 15.342H14.3291V6.01705C14.3291 4.79677 13.3471 3.80359 12.1409 3.80359H6.5176C6.55803 3.08995 7.14057 2.52153 7.85678 2.52153H15.311C16.0528 2.52153 16.6544 3.13085 16.6544 3.88038L16.6552 13.9832L16.6526 13.9832Z" fill="#148CF0"/>
<path d="M10.1047 12.5642H4.82384C4.59114 12.5642 4.40137 12.7562 4.40137 12.9916C4.40137 13.2269 4.59115 13.4189 4.82384 13.4189H10.1047C10.3374 13.4189 10.5272 13.2269 10.5272 12.9916C10.5272 12.7562 10.3374 12.5642 10.1047 12.5642Z" fill="#148CF0"/>
<path d="M7.56989 14.9146H4.82384C4.59114 14.9146 4.40137 15.1065 4.40137 15.3419C4.40137 15.5773 4.59115 15.7693 4.82384 15.7693H7.56989C7.80258 15.7693 7.99235 15.5773 7.99235 15.3419C7.99235 15.1065 7.80257 14.9146 7.56989 14.9146Z" fill="#148CF0"/>
</g>
</svg>
