<svg width="20" height="20" viewBox="0 0 20 20" fill="none" xmlns="http://www.w3.org/2000/svg">
<mask id="mask0_239_2626" style="mask-type:alpha" maskUnits="userSpaceOnUse" x="0" y="0" width="20" height="20">
<rect width="20" height="20" fill="#148CF0"/>
</mask>
<g mask="url(#mask0_239_2626)">
<path d="M10.0304 5.83398C6.90371 5.83398 3.97618 7.21638 1.76559 9.72806C1.70585 9.80595 1.66602 9.9033 1.66602 10.0006C1.66602 10.098 1.70585 10.1954 1.78551 10.2732C3.99609 12.7849 6.92362 14.1673 10.0304 14.1673C13.0774 14.1673 15.985 12.7849 18.2355 10.2538C18.3749 10.098 18.3549 9.88383 18.2355 9.74753C15.985 7.21638 13.0575 5.83398 10.0304 5.83398ZM9.99056 13.3106C8.11854 13.3106 6.60498 11.8309 6.60498 10.0006C6.60498 8.17043 8.11854 6.69068 9.99056 6.69068C11.8626 6.69068 13.3761 8.17043 13.3761 10.0006C13.3761 11.8309 11.8626 13.3106 9.99056 13.3106ZM2.58211 10.0006C3.8766 8.61825 5.41007 7.62526 7.06303 7.08009C6.28634 7.81997 5.80837 8.8519 5.80837 10.0006C5.80837 11.1494 6.28634 12.1813 7.06303 12.9212C5.41007 12.376 3.8766 11.383 2.58211 10.0006ZM12.9181 12.9212C13.6948 12.1813 14.1728 11.1494 14.1728 10.0006C14.1728 8.8519 13.6948 7.81997 12.9181 7.08009C14.5511 7.62526 16.0846 8.61825 17.399 10.0006C16.0846 11.4025 14.5511 12.3955 12.9181 12.9212Z" fill="#148CF0"/>
<path d="M11.1864 9.2223C10.8478 9.2223 10.5889 8.96919 10.5889 8.63819C10.5889 8.38508 10.7482 8.1709 10.9872 8.09302C10.6885 7.93726 10.3499 7.85938 9.99145 7.85938C8.77663 7.85938 7.80078 8.81342 7.80078 10.0011C7.80078 11.1888 8.77663 12.1429 9.99145 12.1429C11.2063 12.1429 12.1821 11.1888 12.1821 10.0011C12.1821 9.53383 12.0228 9.10548 11.7639 8.75501C11.7241 9.0276 11.4652 9.2223 11.1864 9.2223Z" fill="#148CF0"/>
</g>
</svg>
