<svg width="24" height="24" viewBox="0 0 24 24" fill="none" xmlns="http://www.w3.org/2000/svg">
<mask id="mask0_134_18" style="mask-type:alpha" maskUnits="userSpaceOnUse" x="0" y="0" width="24" height="24">
<rect width="24" height="24" fill="#D9D9D9"/>
</mask>
<g mask="url(#mask0_134_18)">
<path d="M7.24579 2C6.00954 2 5 2.99419 5 4.21019V21.3763C5 21.7921 5.47656 22.0819 5.85451 21.8979L6.97549 21.3548C7.02801 21.3296 7.08822 21.3296 7.14075 21.3548L8.26173 21.8979C8.54229 22.034 8.87026 22.034 9.14952 21.8979L10.2705 21.3548C10.323 21.3296 10.3832 21.3296 10.4345 21.3548L11.5555 21.8979C11.836 22.034 12.164 22.034 12.4433 21.8979L13.5642 21.3548C13.6168 21.3296 13.677 21.3296 13.7295 21.3548L14.8505 21.8979C15.131 22.034 15.459 22.034 15.7383 21.8979L16.8593 21.3548C16.9118 21.3296 16.972 21.3296 17.0245 21.3548L18.1455 21.8979C18.5247 22.0819 19 21.7921 19 21.3763V6.57534C18.9987 6.57156 18.9974 6.56652 18.9962 6.56274C18.9936 6.49974 18.9769 6.43673 18.9462 6.38129C18.9436 6.37751 18.9424 6.37373 18.9398 6.36995C18.9231 6.34096 18.9026 6.3145 18.8783 6.2893L14.6341 2.11964C14.6277 2.1146 14.6213 2.11082 14.6162 2.10704C14.579 2.07428 14.4945 2.00623 14.3433 2.00119L7.24579 2ZM7.24579 2.80645H13.9356V5.47779C13.9356 6.30063 14.6223 6.97476 15.4588 6.97602H18.1799V21.0156L17.3856 20.6301C17.105 20.494 16.7771 20.494 16.4978 20.6301L15.3768 21.1757C15.3243 21.2009 15.2641 21.2009 15.2128 21.1757L14.0919 20.6301C13.8113 20.494 13.4833 20.494 13.2041 20.6301L12.0831 21.1757C12.0306 21.2009 11.9703 21.2009 11.9178 21.1757L10.7968 20.6301C10.5163 20.494 10.1883 20.494 9.90905 20.6301L8.78807 21.1757C8.73554 21.2009 8.67533 21.2009 8.62281 21.1757L7.50183 20.6301C7.22127 20.494 6.89329 20.494 6.61403 20.6301L5.8223 21.0156L5.81973 4.21119C5.81973 3.43245 6.45132 2.80871 7.24562 2.80871L7.24579 2.80645ZM14.7545 3.376L17.6011 6.17086H15.4591C15.0646 6.17086 14.7545 5.86466 14.7545 5.47783L14.7545 3.376ZM8.33889 5.57105C8.11342 5.57105 7.93022 5.75124 7.92894 5.97428C7.92894 6.19605 8.11214 6.37624 8.33889 6.37624H11.9553C12.1808 6.37498 12.364 6.19605 12.364 5.97428C12.364 5.7525 12.1808 5.57231 11.9553 5.57105H8.33889ZM8.33889 8.92911C8.11342 8.92911 7.93022 9.1093 7.92894 9.33107C7.92894 9.55285 8.11214 9.73304 8.33889 9.73304H15.6617C15.8871 9.73304 16.0703 9.55285 16.0703 9.33107C16.069 9.1093 15.8871 8.92911 15.6617 8.92911H8.33889ZM8.33889 12.2859C8.11342 12.2859 7.93022 12.4661 7.92894 12.6878C7.92766 12.9109 8.11086 13.0923 8.33889 13.0923H15.6617C15.8884 13.0923 16.0716 12.9109 16.0703 12.6878C16.069 12.4661 15.8871 12.2859 15.6617 12.2859H8.33889ZM8.33889 15.6426C8.11342 15.6426 7.93022 15.8228 7.92894 16.0459C7.92766 16.2689 8.11214 16.4503 8.33889 16.4503H15.6617C15.8884 16.4503 16.0716 16.2689 16.0703 16.0459C16.0703 15.8241 15.8871 15.6439 15.6617 15.6426H8.33889Z" fill="#F07A14"/>
</g>
</svg>
