<svg width="30" height="30" viewBox="0 0 30 30" fill="none" xmlns="http://www.w3.org/2000/svg">
<mask id="mask0_94_3779" style="mask-type:alpha" maskUnits="userSpaceOnUse" x="0" y="0" width="30" height="30">
<rect x="30" y="30" width="30" height="30" transform="rotate(-180 30 30)" fill="#710571"/>
</mask>
<g mask="url(#mask0_94_3779)">
<path d="M6.16176 23.8387C7.30882 24.9858 8.64706 25.8887 10.1353 26.5181C11.6765 27.1711 13.3118 27.5005 15 27.5005C16.6882 27.5005 18.3235 27.1711 19.8647 26.5181C21.3529 25.8887 22.6912 24.9858 23.8382 23.8387C24.9853 22.6917 25.8882 21.3534 26.5176 19.8652C27.1706 18.324 27.5 16.6887 27.5 15.0005C27.5 13.3123 27.1706 11.677 26.5176 10.1358C25.8882 8.64755 24.9853 7.30931 23.8382 6.16225C22.6912 5.01519 21.3529 4.11225 19.8647 3.48284C18.3235 2.8299 16.6882 2.50049 15 2.50049C13.3118 2.50049 11.6765 2.8299 10.1353 3.48284C8.64706 4.11225 7.30883 5.01519 6.16177 6.16225C5.01471 7.30931 4.11177 8.64755 3.48235 10.1358C2.82941 11.677 2.5 13.3123 2.5 15.0005C2.5 16.6887 2.82941 18.324 3.48235 19.8652C4.11177 21.3534 5.01471 22.6917 6.16176 23.8387ZM15.0029 3.83578C21.1588 3.83873 26.1647 8.84461 26.1647 15.0005C26.1647 21.1564 21.1588 26.1623 15.0029 26.1652L15.0029 3.83578Z" fill="#710571"/>
</g>
</svg>
