<svg width="30" height="30" viewBox="0 0 30 30" fill="none" xmlns="http://www.w3.org/2000/svg">
<mask id="mask0_239_2479" style="mask-type:alpha" maskUnits="userSpaceOnUse" x="0" y="0" width="30" height="30">
<rect width="30" height="30" fill="#A2072F"/>
</mask>
<g mask="url(#mask0_239_2479)">
<path d="M27.1048 7.5H24.9108C24.6923 7.5 24.5154 7.67864 24.5154 7.89699C24.5154 8.11633 24.6923 8.29398 24.9108 8.29398H26.7095V18.6416H25.3061V10.1004C25.3061 9.99524 25.2646 9.89401 25.1904 9.81957C25.1163 9.74513 25.0155 9.70345 24.9107 9.70345H7.58867V8.29413H23.2336C23.452 8.29413 23.6289 8.11647 23.6289 7.89713C23.6289 7.67879 23.452 7.50014 23.2336 7.50014H7.19347C6.97506 7.50014 6.79815 7.67879 6.79815 7.89713V9.70345H5.00041C4.782 9.70345 4.60509 9.8811 4.60509 10.1004V11.8174H2.89532C2.6779 11.8174 2.50099 11.9951 2.5 12.2144V23.353C2.5 23.4582 2.5425 23.5594 2.61662 23.6339C2.69074 23.7083 2.79056 23.75 2.89632 23.75H4.76915C4.98756 23.75 5.16447 23.5723 5.16447 23.353C5.16447 23.1337 4.98756 22.956 4.76915 22.956H3.29063V12.6114H22.4103V22.956H6.59742C6.37901 22.956 6.2021 23.1337 6.2021 23.353C6.2021 23.5723 6.37901 23.75 6.59742 23.75H22.8055C22.9103 23.75 23.0111 23.7083 23.0852 23.6339C23.1593 23.5594 23.2008 23.4582 23.2008 23.353V21.637H24.9106C25.0154 21.637 25.1162 21.5953 25.1903 21.5209C25.2644 21.4465 25.3059 21.3452 25.3059 21.24V19.4357H27.1047C27.2094 19.4357 27.3102 19.394 27.3844 19.3196C27.4585 19.2451 27.5 19.1439 27.5 19.0387V7.89704C27.5 7.79184 27.4585 7.6916 27.3844 7.61716C27.3102 7.54271 27.2096 7.5 27.1048 7.5ZM24.5155 20.8429H23.2011V12.2143C23.2011 12.1081 23.1596 12.0079 23.0855 11.9335C23.0113 11.859 22.9105 11.8173 22.8058 11.8173H5.39589V10.4974H24.5156L24.5155 20.8429Z" fill="#A2072F"/>
<path d="M19.537 22.0207C19.6418 22.0207 19.7426 21.978 19.8167 21.9036C19.8909 21.8292 19.9324 21.7289 19.9324 21.6237C19.9324 20.9538 20.472 20.4119 21.1391 20.4119C21.2439 20.4119 21.3437 20.3702 21.4178 20.2958C21.4919 20.2213 21.5344 20.1201 21.5344 20.0149V15.5546C21.5344 15.4494 21.4919 15.3482 21.4178 15.2738C21.3437 15.1993 21.2439 15.1576 21.1391 15.1576H21.1361C20.47 15.1576 19.9294 14.6157 19.9294 13.9458C19.9294 13.8406 19.8879 13.7404 19.8138 13.6659C19.7397 13.5915 19.6398 13.5488 19.5341 13.5488L6.16041 13.5687C5.942 13.5687 5.76509 13.7473 5.76509 13.9657C5.7641 14.6336 5.22548 15.1755 4.56134 15.1775C4.34292 15.1775 4.16602 15.3551 4.16602 15.5745V20.0078C4.16602 20.113 4.20752 20.2142 4.28165 20.2887C4.35577 20.3631 4.45559 20.4048 4.56135 20.4048C5.22647 20.4058 5.76609 20.9477 5.76707 21.6166C5.76707 21.7218 5.80858 21.823 5.8827 21.8975C5.95683 21.9719 6.05665 22.0136 6.1624 22.0136L19.5361 22.0196L19.537 22.0207ZM6.51911 21.2198C6.359 20.4298 5.74427 19.8124 4.95758 19.6507V15.9308C5.74329 15.769 6.35701 15.1517 6.51812 14.3627L19.1803 14.3438H19.1793C19.3394 15.1348 19.9561 15.7531 20.7438 15.9129V19.6564C19.9561 19.8172 19.3414 20.4355 19.1803 21.2265L6.51911 21.2198Z" fill="#A2072F"/>
<path d="M12.8505 15.2168C11.8167 15.2168 10.8848 15.8421 10.4894 16.8008C10.0941 17.7595 10.3125 18.8632 11.0429 19.5977C11.7742 20.3311 12.8732 20.5504 13.828 20.1535C14.7827 19.7565 15.4053 18.8206 15.4053 17.7834V17.7824C15.4034 16.3662 14.2609 15.2189 12.8505 15.2168ZM12.8505 19.5549C12.136 19.5549 11.4926 19.1232 11.2198 18.4612C10.947 17.7992 11.0972 17.037 11.6023 16.5298C12.1073 16.0226 12.8663 15.8718 13.5255 16.1457C14.1847 16.4196 14.6146 17.0657 14.6146 17.7833C14.6136 18.7609 13.824 19.5529 12.8505 19.5539V19.5549Z" fill="#A2072F"/>
</g>
</svg>
