<svg width="30" height="30" viewBox="0 0 30 30" fill="none" xmlns="http://www.w3.org/2000/svg">
<mask id="mask0_79_1794" style="mask-type:alpha" maskUnits="userSpaceOnUse" x="0" y="0" width="30" height="30">
<rect width="30" height="30" fill="#148CF0"/>
</mask>
<g mask="url(#mask0_79_1794)">
<path d="M22.0826 24.6425H9.16638C8.93633 24.6425 8.75 24.4505 8.75 24.2134C8.75 23.9762 8.93633 23.7842 9.16638 23.7842H22.0836C22.3137 23.7842 22.5 23.9762 22.5 24.2134C22.499 24.4505 22.3126 24.6425 22.0826 24.6425Z" fill="#148CF0"/>
<path d="M16.6341 26.072H14.6136C14.3836 26.072 14.1973 25.8799 14.1973 25.6428C14.1973 25.4057 14.3836 25.2136 14.6136 25.2136H16.6341C16.8642 25.2136 17.0505 25.4057 17.0505 25.6428C17.0505 25.8799 16.8642 26.072 16.6341 26.072Z" fill="#148CF0"/>
<path d="M17.7387 5.52283H13.5104C13.0055 5.52283 12.5756 5.15158 12.4861 4.63981L12.2019 3.00465C12.1613 2.77182 12.3123 2.54864 12.5381 2.50681C12.764 2.46496 12.9805 2.62054 13.0211 2.85336L13.3053 4.48852C13.323 4.59045 13.4084 4.66448 13.5093 4.66448H17.7376C17.8386 4.66448 17.924 4.59045 17.9417 4.48852L18.2258 2.85336C18.2664 2.62053 18.4829 2.46495 18.7088 2.50681C18.9347 2.54865 19.0857 2.77182 19.0451 3.00465L18.7609 4.63981C18.6734 5.15161 18.2435 5.52283 17.7387 5.52283Z" fill="#148CF0"/>
<path d="M20.8948 27.4999H10.3541C9.47033 27.4999 8.75 26.7585 8.75 25.8465V4.15364C8.75 3.24271 9.46929 2.50024 10.3541 2.50024H20.8948C21.7786 2.50024 22.4989 3.24164 22.4989 4.15364V25.8465C22.4989 26.7575 21.7796 27.4999 20.8948 27.4999ZM10.3541 3.3586C9.92937 3.3586 9.58276 3.71482 9.58276 4.15364V25.8465C9.58276 26.2843 9.92836 26.6416 10.3541 26.6416H20.8948C21.3196 26.6416 21.6662 26.2853 21.6662 25.8465V4.15364C21.6662 3.71587 21.3206 3.3586 20.8948 3.3586H10.3541Z" fill="#148CF0"/>
</g>
</svg>
