<svg width="20" height="20" viewBox="0 0 20 20" fill="none" xmlns="http://www.w3.org/2000/svg">
<mask id="mask0_95_3805" style="mask-type:alpha" maskUnits="userSpaceOnUse" x="0" y="0" width="20" height="20">
<rect width="20" height="20" fill="#D9D9D9"/>
</mask>
<g mask="url(#mask0_95_3805)">
<path d="M6.65591 12.9615C7.19937 12.9615 7.68999 12.6359 7.89743 12.136C8.10565 11.6361 7.9905 11.0608 7.60637 10.6787C7.22225 10.2965 6.64408 10.1819 6.14163 10.3891C5.63919 10.5955 5.31185 11.0836 5.31185 11.6243C5.31263 12.362 5.91449 12.9608 6.65591 12.9615ZM6.65591 10.7054C7.02901 10.7054 7.3658 10.9299 7.50937 11.2728C7.65213 11.6158 7.57326 12.0113 7.30902 12.2742C7.04478 12.5371 6.64725 12.6156 6.30255 12.4735C5.95786 12.3307 5.73227 11.9956 5.73227 11.6244C5.73385 11.1174 6.14638 10.707 6.65591 10.7054ZM6.44531 9.52908V8.93345C6.44531 8.81731 6.53996 8.72392 6.65591 8.72392C6.77187 8.72392 6.86652 8.8173 6.86652 8.93345V9.52751C6.86652 9.64287 6.77187 9.73705 6.65591 9.73705C6.53996 9.73705 6.44531 9.64288 6.44531 9.52751V9.52908ZM6.86571 13.7142V14.3083L6.8665 14.3091C6.8665 14.4252 6.77185 14.5186 6.6559 14.5186C6.53994 14.5186 6.44529 14.4252 6.44529 14.3091V13.7189C6.44529 13.6036 6.53994 13.5102 6.6559 13.5102C6.77185 13.5102 6.8665 13.6035 6.8665 13.7189L6.86571 13.7142ZM8.75875 11.4125L9.36925 11.4133C9.4852 11.4133 9.57986 11.5067 9.57986 11.622C9.57986 11.7382 9.48521 11.8316 9.36925 11.8316H8.76348C8.64753 11.8316 8.55287 11.7382 8.55287 11.622C8.55287 11.5067 8.64752 11.4133 8.76348 11.4133L8.75875 11.4125ZM3.73831 11.622C3.73831 11.5067 3.83296 11.4133 3.94892 11.4133H4.54601C4.66274 11.4133 4.75661 11.5067 4.75661 11.622C4.75661 11.7382 4.66275 11.8316 4.54601 11.8316H3.95286C3.8377 11.8316 3.74382 11.739 3.74304 11.6244L3.73831 11.622ZM7.99366 10.2887V10.2895C7.95422 10.2503 7.93135 10.1961 7.93135 10.1404C7.93135 10.0847 7.95422 10.0313 7.99366 9.9921L8.41407 9.57383C8.49689 9.49143 8.63019 9.49143 8.71302 9.57383C8.79584 9.65544 8.79584 9.78885 8.71302 9.87047L8.29261 10.2887V10.2895C8.25238 10.3288 8.19875 10.35 8.14275 10.35C8.08911 10.35 8.03705 10.3288 7.99761 10.2911L7.99366 10.2887ZM5.31574 12.9577C5.35597 12.9969 5.37806 13.0503 5.37806 13.106C5.37806 13.1617 5.35597 13.2151 5.31574 13.2543L4.89534 13.6726V13.6734C4.81331 13.7542 4.68079 13.7542 4.59875 13.6734C4.51751 13.5918 4.51751 13.4599 4.59875 13.3783L5.01916 12.96V12.9592C5.10119 12.8776 5.2337 12.8769 5.31574 12.9577ZM8.71696 13.376C8.79899 13.4584 8.79899 13.591 8.71617 13.6718C8.63335 13.7534 8.50005 13.7534 8.41879 13.671L7.99839 13.2528H7.9976C7.95816 13.2135 7.93607 13.1602 7.93607 13.1044C7.93528 13.0495 7.95737 12.9961 7.99681 12.9561C8.07884 12.8745 8.21214 12.8737 8.29418 12.9553L8.71696 13.376ZM4.59649 9.87047C4.55705 9.83123 4.53418 9.77786 4.53418 9.72215C4.53418 9.66643 4.55705 9.61306 4.59649 9.57383C4.67852 9.49221 4.81103 9.49221 4.89308 9.57383L5.31348 9.9921H5.31427C5.35371 10.0313 5.37658 10.0847 5.37658 10.1404C5.37658 10.1961 5.35371 10.2503 5.31427 10.2895C5.27404 10.3288 5.22041 10.35 5.1644 10.35C5.10919 10.35 5.05634 10.328 5.01769 10.2895L4.59649 9.87047ZM16.1819 2.92056H14.2889V2.50229C14.266 2.03379 13.8779 1.6665 13.407 1.6665C12.9353 1.6665 12.5473 2.03377 12.5244 2.50229V2.92056H6.51471V2.50229C6.49184 2.03379 6.10375 1.6665 5.63287 1.6665C5.16119 1.6665 4.77311 2.03377 4.75023 2.50229V2.92056H3.8187C2.63082 2.92213 1.6678 3.87953 1.66699 5.06134V16.241C1.66699 16.7958 1.88864 17.3279 2.28302 17.7203C2.6774 18.1126 3.2122 18.3332 3.76985 18.3332H16.2308C16.7885 18.3332 17.3232 18.1126 17.7176 17.7203C18.112 17.3279 18.3337 16.7958 18.3337 16.241V5.06134C18.3329 3.87949 17.3697 2.92216 16.1819 2.92056ZM12.5244 3.65509V4.3292C12.5126 4.56934 12.6002 4.80399 12.7674 4.97821C12.9338 5.15243 13.1649 5.25131 13.4071 5.25131C13.6484 5.25131 13.8795 5.15243 14.0468 4.97821C14.2132 4.80399 14.3007 4.56934 14.2889 4.3292V3.65509C14.617 3.91798 14.8079 4.31428 14.8063 4.73335C14.8087 5.21205 14.5634 5.65859 14.1564 5.9152C13.7502 6.17181 13.2398 6.20321 12.8052 5.9976C12.3698 5.79279 12.0717 5.37921 12.0149 4.90365C11.9581 4.42808 12.1506 3.95643 12.5244 3.65509ZM12.9448 2.50227C12.9614 2.26056 13.1633 2.073 13.4071 2.073C13.65 2.073 13.8519 2.26056 13.8685 2.50227V4.3292C13.8772 4.45633 13.8322 4.58111 13.7447 4.67451C13.6571 4.76789 13.5349 4.82047 13.4071 4.82047C13.2785 4.82047 13.1562 4.76789 13.0687 4.67451C12.9811 4.58112 12.9362 4.45635 12.9449 4.3292L12.9448 2.50227ZM4.74167 3.65509V4.3292C4.72984 4.56934 4.81818 4.80399 4.98461 4.97821C5.15104 5.15243 5.38216 5.25131 5.6243 5.25131C5.86645 5.25131 6.09757 5.15243 6.264 4.97821C6.43043 4.80399 6.51877 4.56934 6.50693 4.3292V3.65352C6.96756 4.02472 7.14267 4.64546 6.94471 5.20185C6.74673 5.75746 6.21746 6.12944 5.6243 6.12944C5.03115 6.12944 4.50189 5.75746 4.3039 5.20185C4.10592 4.64546 4.28103 4.0247 4.74167 3.65352V3.65509ZM5.16208 2.50227H5.16287C5.17864 2.26056 5.38056 2.073 5.62431 2.073C5.86805 2.073 6.06995 2.26056 6.08574 2.50227V4.3292C6.09442 4.45633 6.05025 4.58111 5.96269 4.67451C5.87514 4.76791 5.75209 4.82047 5.62431 4.82047C5.49653 4.82047 5.37348 4.76789 5.28592 4.67451C5.19837 4.58112 5.1542 4.45635 5.16288 4.3292L5.16208 2.50227ZM2.08738 16.2412V16.1132C5.25739 15.046 7.47391 16.0779 8.1869 16.4923C7.64896 16.8729 7.19305 17.3563 6.84522 17.9151H3.76991C2.84074 17.9151 2.08738 17.1656 2.08738 16.2412ZM7.34609 17.9151C8.31785 16.5362 10.1809 15.6574 12.2151 15.6574C14.1673 15.6574 15.9632 16.457 16.9563 17.7503V17.7495C16.7299 17.8578 16.4814 17.9143 16.2306 17.9151L7.34609 17.9151ZM12.8865 10.5658C12.444 10.226 11.91 10.0274 11.3531 9.99444C11.5874 9.8163 11.8627 9.70095 12.1545 9.65699C12.6743 9.61148 13.1894 9.78334 13.5759 10.1326C13.624 10.1679 13.6832 10.1828 13.7423 10.1742C13.8007 10.164 13.8519 10.1294 13.8835 10.08C13.9127 10.0337 14.5737 9.05429 15.9114 9.4812C15.4468 9.66719 14.8261 9.9858 14.6707 10.4127H14.6699C14.6305 10.521 14.6857 10.6403 14.7937 10.6803C15.2804 10.8796 15.7024 11.2092 16.0116 11.633C15.4689 11.3842 14.6084 11.0593 13.9269 11.1394L13.9277 11.1386C13.1752 11.203 12.4709 11.5341 11.944 12.0725C12.0394 11.564 12.3738 11.1315 12.8439 10.911C12.9063 10.8789 12.9481 10.8192 12.9567 10.7502C12.9646 10.6819 12.9386 10.6128 12.8865 10.5673L12.8865 10.5658ZM13.9379 11.5577H13.9568C14.0262 11.6079 14.901 12.315 14.7985 15.7139C14.4822 15.5923 14.1572 15.4942 13.8267 15.4204C14.3378 13.3274 13.9947 12.0176 13.8267 11.5742C13.9024 11.5593 13.9466 11.5577 13.9482 11.5577L13.9379 11.5577ZM17.9134 16.2411C17.9102 16.7323 17.6902 17.1977 17.3116 17.5132C16.7602 16.8061 16.0432 16.2442 15.2229 15.8769C15.3214 13.2928 14.8884 12.1101 14.5437 11.5741C15.1629 11.7153 15.7584 11.9453 16.3106 12.2584C16.3831 12.3008 16.4738 12.296 16.5417 12.2466C16.6095 12.1972 16.641 12.1116 16.6221 12.03C16.4115 11.1197 15.5707 10.5986 15.1605 10.3914C15.4382 10.0987 16.1134 9.82406 16.5401 9.7032C16.6229 9.67966 16.6836 9.60824 16.6923 9.52349C16.701 9.43795 16.656 9.35555 16.5795 9.31632C14.9933 8.47897 14.005 9.29984 13.6579 9.68045C13.2146 9.343 12.6593 9.18684 12.104 9.24255C11.5314 9.33751 11.0147 9.64122 10.6542 10.0948C10.6038 10.1615 10.5982 10.2518 10.64 10.3247C10.6826 10.3985 10.7655 10.4385 10.8499 10.4275C11.3736 10.3608 11.9045 10.4621 12.3667 10.7163C11.26 11.4987 11.525 12.8093 11.54 12.8093V12.8085C11.5597 12.8964 11.6331 12.9623 11.723 12.9717H11.7459C11.8279 12.971 11.9021 12.9231 11.9352 12.8485C12.2334 12.2568 12.7729 11.8213 13.4165 11.6533C13.5364 11.961 13.9339 13.219 13.4165 15.3284C13.0198 15.2625 12.6191 15.2295 12.2176 15.2303C10.9295 15.224 9.66505 15.5725 8.56395 16.2364C8.02522 15.8722 5.66533 14.5201 2.08743 15.6713V7.25868H17.9132L17.9134 16.2411ZM17.9134 6.83657H2.08758V5.06144C2.08837 4.11109 2.86293 3.34046 3.81892 3.33967H4.47517C3.88202 3.82545 3.65958 4.62905 3.91909 5.34788C4.17861 6.06672 4.86404 6.54701 5.63151 6.54701C6.39977 6.54701 7.08521 6.06674 7.34393 5.34788C7.60344 4.62905 7.381 3.82545 6.78864 3.33967H12.2382C11.6458 3.82545 11.4234 4.62905 11.6829 5.34788C11.9424 6.06672 12.627 6.54701 13.3953 6.54701C14.1636 6.54701 14.8482 6.06674 15.1077 5.34788C15.3672 4.62905 15.1448 3.82545 14.5524 3.33967H16.1781C17.1333 3.34046 17.9078 4.11109 17.9094 5.06144L17.9134 6.83657Z" fill="#920400"/>
</g>
</svg>
