<svg width="30" height="30" viewBox="0 0 30 30" fill="none" xmlns="http://www.w3.org/2000/svg">
<mask id="mask0_52_129" style="mask-type:alpha" maskUnits="userSpaceOnUse" x="0" y="0" width="30" height="30">
<rect width="30" height="30" fill="#148CF0"/>
</mask>
<g mask="url(#mask0_52_129)">
<path d="M25.2468 25.5267H24.7922V25.0699H25.0622C25.3523 25.0699 25.5855 24.8353 25.5855 24.5527V23.347C25.5855 23.0602 25.3481 22.8297 25.0622 22.8297H24.7922V21.6606H25.0622C25.3523 21.6606 25.5855 21.4301 25.5855 21.1433V19.9377C25.5855 19.6509 25.3481 19.4204 25.0622 19.4204H24.7922V18.2513H25.0622C25.3523 18.2513 25.5855 18.0208 25.5855 17.734V16.5284C25.5855 16.2416 25.3481 16.0111 25.0622 16.0111H24.7922L24.7932 14.8389H25.0633C25.3534 14.8389 25.5865 14.6042 25.5865 14.3216V13.116C25.5865 12.8292 25.3492 12.5987 25.0633 12.5987H24.7932V11.4295H25.0633C25.3534 11.4295 25.5865 11.1991 25.5865 10.9122V9.70663C25.5865 9.41983 25.3492 9.18934 25.0633 9.18934H24.7932V8.02022H25.0633C25.3534 8.02022 25.5865 7.78973 25.5865 7.50293V6.29731C25.5865 6.01051 25.3492 5.78002 25.0633 5.78002H24.7932V4.60777H24.8829C25.2057 4.60777 25.4684 4.34913 25.4684 4.02894V3.07883C25.4684 2.7597 25.2068 2.5 24.8829 2.5L17.141 2.50104C16.8182 2.50104 16.5555 2.75969 16.5555 3.07988V4.02686C16.5555 4.34599 16.8171 4.60569 17.141 4.60569H17.2264V6.22015L4.8007 6.21807C4.4779 6.21807 4.21522 6.47671 4.21522 6.7969V7.97854C4.21522 8.29038 4.4684 8.54485 4.77958 8.55737V25.5195L4.74793 25.5184C4.19516 25.5184 3.75 25.9596 3.75 26.505C3.74895 27.0515 4.19516 27.5 4.74793 27.5H25.2521C25.8048 27.5 26.25 27.0589 26.25 26.5134C26.25 25.9669 25.7996 25.5267 25.2468 25.5267ZM16.9405 4.02982V3.07867C16.9405 2.96916 17.0302 2.88469 17.1367 2.88469H24.8786C24.9894 2.88469 25.0748 2.97334 25.0748 3.07867V4.02566C25.0748 4.13517 24.9852 4.21964 24.8786 4.21964H17.141C17.0313 4.22381 16.9405 4.13516 16.9405 4.02982ZM25.1982 23.3417V24.5473C25.1982 24.6203 25.1371 24.6808 25.0632 24.6808H19.4574C19.3836 24.6808 19.3224 24.6203 19.3224 24.5473V23.3417C19.3224 23.2687 19.3836 23.2082 19.4574 23.2082H24.5968H24.601H24.6053H25.0631C25.1369 23.2082 25.1982 23.2687 25.1982 23.3417ZM25.1982 19.9314V21.1371C25.1982 21.2101 25.1371 21.2706 25.0632 21.2706H24.6054H24.6012H24.5969H19.4575C19.3837 21.2706 19.3225 21.2101 19.3225 21.1371V19.9314C19.3225 19.8584 19.3837 19.7979 19.4575 19.7979H25.0633C25.1372 19.7979 25.1982 19.8584 25.1982 19.9314ZM25.1982 16.5252V17.7308C25.1982 17.8038 25.1371 17.8643 25.0632 17.8643H19.4574C19.3836 17.8643 19.3224 17.8038 19.3224 17.7308V16.5252C19.3224 16.4522 19.3836 16.3917 19.4574 16.3917H24.5968H24.601H24.6053H25.0631C25.1369 16.3875 25.1982 16.4491 25.1982 16.5252ZM25.1982 13.1149V14.3206C25.1982 14.3936 25.1371 14.4541 25.0632 14.4541H24.6054H24.6012H24.5969H19.4575C19.3837 14.4541 19.3225 14.3936 19.3225 14.3206V13.1149C19.3225 13.0419 19.3837 12.9814 19.4575 12.9814H25.0633C25.1372 12.9783 25.1982 13.0388 25.1982 13.1149ZM25.1982 9.70548V10.9111C25.1982 10.9841 25.1371 11.0446 25.0632 11.0446H19.4574C19.3836 11.0446 19.3224 10.9841 19.3224 10.9111V9.70548C19.3224 9.63248 19.3836 9.57199 19.4574 9.57199H24.5968H24.601H24.6053H25.0631C25.1369 9.56782 25.1982 9.62831 25.1982 9.70548ZM25.1982 6.29523V7.50084C25.1982 7.57385 25.1371 7.63434 25.0632 7.63434H19.4574C19.3836 7.63434 19.3224 7.57385 19.3224 7.50084V6.29523C19.3224 6.22222 19.3836 6.16173 19.4574 6.16173H25.0632C25.1371 6.15756 25.1982 6.21805 25.1982 6.29523ZM19.4574 5.77689C19.1673 5.77689 18.9342 6.00738 18.9342 6.29419V7.4998C18.9342 7.7866 19.1673 8.0171 19.4574 8.0171H24.4037V9.18622L19.4574 9.18726C19.1673 9.18726 18.9342 9.41775 18.9342 9.70455V10.9102C18.9342 11.197 19.1673 11.4275 19.4574 11.4275H24.4037V12.5966L19.4574 12.5976C19.1673 12.5976 18.9342 12.8323 18.9342 13.1149V14.3205C18.9342 14.6073 19.1673 14.8378 19.4574 14.8378H24.4037V16.0069L19.4574 16.008C19.1673 16.008 18.9342 16.2426 18.9342 16.5253V17.7309C18.9342 18.0177 19.1673 18.2482 19.4574 18.2482H24.4037V19.4173L19.4574 19.4184C19.1673 19.4184 18.9342 19.6488 18.9342 19.9356V21.1413C18.9342 21.4281 19.1673 21.6586 19.4574 21.6586H24.4037V22.8277H19.4574C19.1673 22.8277 18.9342 23.0582 18.9342 23.345V24.5506C18.9342 24.8374 19.1673 25.0679 19.4574 25.0679H24.4037V25.5247L17.6154 25.5268V6.41725V6.41308V4.60778H24.4037V5.77273H19.4574V5.77689ZM4.60444 7.9858V6.80416C4.60444 6.69465 4.6941 6.61018 4.80065 6.61018H17.2275V8.18395H4.80065C4.68988 8.17978 4.60444 8.09114 4.60444 7.9858ZM5.1688 8.56464H17.2273V25.5267H5.1688V8.56464ZM25.2468 27.1161H4.74805C4.41259 27.1161 4.13832 26.845 4.13832 26.5133C4.13832 26.1817 4.41259 25.9105 4.74805 25.9105H4.97275H4.97697H24.6002H24.6044H25.2468C25.5823 25.9105 25.8566 26.1817 25.8566 26.5133C25.8566 26.845 25.5865 27.1161 25.2468 27.1161Z" fill="#148CF0"/>
<path d="M8.25441 9.40601H7.03495C6.74486 9.40601 6.51172 9.63649 6.51172 9.9233V11.1289C6.51172 11.4157 6.74485 11.6462 7.03495 11.6462H8.25441C8.5445 11.6462 8.77764 11.4115 8.77764 11.1289V9.9233C8.77764 9.6365 8.54028 9.40601 8.25441 9.40601ZM8.38943 11.1289C8.38943 11.2019 8.32825 11.2624 8.25441 11.2624H7.03495C6.96111 11.2624 6.89992 11.2019 6.89992 11.1289V9.9233C6.89992 9.85029 6.96111 9.7898 7.03495 9.7898H8.25441C8.32825 9.7898 8.38943 9.85029 8.38943 9.9233V11.1289Z" fill="#148CF0"/>
<path d="M11.8096 9.40601H10.5901C10.3 9.40601 10.0669 9.63649 10.0669 9.9233V11.1289C10.0669 11.4157 10.3 11.6462 10.5901 11.6462H11.8096C12.0997 11.6462 12.3328 11.4115 12.3328 11.1289V9.9233C12.3339 9.6365 12.0965 9.40601 11.8096 9.40601ZM11.9446 11.1289C11.9446 11.2019 11.8834 11.2624 11.8096 11.2624H10.5901C10.5163 11.2624 10.4551 11.2019 10.4551 11.1289V9.9233C10.4551 9.85029 10.5163 9.7898 10.5901 9.7898H11.8096C11.8834 9.7898 11.9446 9.85029 11.9446 9.9233V11.1289Z" fill="#148CF0"/>
<path d="M15.3657 9.40601H14.1463C13.8562 9.40601 13.623 9.63649 13.623 9.9233V11.1289C13.623 11.4157 13.8604 11.6462 14.1463 11.6462H15.3657C15.6558 11.6462 15.889 11.4115 15.889 11.1289V9.9233C15.89 9.6365 15.6527 9.40601 15.3657 9.40601ZM15.5008 11.1289C15.5008 11.2019 15.4396 11.2624 15.3657 11.2624H14.1463C14.0724 11.2624 14.0112 11.2019 14.0112 11.1289V9.9233C14.0112 9.85029 14.0724 9.7898 14.1463 9.7898H15.3657C15.4396 9.7898 15.5008 9.85029 15.5008 9.9233V11.1289Z" fill="#148CF0"/>
<path d="M8.25441 12.4878H7.03495C6.74486 12.4878 6.51172 12.7183 6.51172 13.0051V14.2107C6.51172 14.4975 6.74485 14.728 7.03495 14.728H8.25441C8.5445 14.728 8.77764 14.4975 8.77764 14.2107V13.0051C8.77764 12.7183 8.54028 12.4878 8.25441 12.4878ZM8.38943 14.2117C8.38943 14.2847 8.32825 14.3452 8.25441 14.3452H7.03495C6.96111 14.3452 6.89992 14.2847 6.89992 14.2117V13.0061C6.89992 12.9331 6.96111 12.8726 7.03495 12.8726H8.25441C8.32825 12.8726 8.38943 12.9331 8.38943 13.0061V14.2117Z" fill="#148CF0"/>
<path d="M11.8096 12.4878H10.5901C10.3 12.4878 10.0669 12.7183 10.0669 13.0051V14.2107C10.0669 14.4975 10.3 14.728 10.5901 14.728H11.8096C12.0997 14.728 12.3328 14.4975 12.3328 14.2107V13.0051C12.3339 12.7183 12.0965 12.4878 11.8096 12.4878ZM11.9446 14.2117C11.9446 14.2847 11.8834 14.3452 11.8096 14.3452H10.5901C10.5163 14.3452 10.4551 14.2847 10.4551 14.2117V13.0061C10.4551 12.9331 10.5163 12.8726 10.5901 12.8726H11.8096C11.8834 12.8726 11.9446 12.9331 11.9446 13.0061V14.2117Z" fill="#148CF0"/>
<path d="M15.3652 12.4878H14.1458C13.8557 12.4878 13.6226 12.7183 13.6226 13.0051V14.2107C13.6226 14.4975 13.8599 14.728 14.1458 14.728H15.3652C15.6553 14.728 15.8885 14.4975 15.8885 14.2107V13.0051C15.8895 12.7183 15.6522 12.4878 15.3652 12.4878ZM15.5003 14.2117C15.5003 14.2847 15.4391 14.3452 15.3652 14.3452H14.1458C14.0719 14.3452 14.0108 14.2847 14.0108 14.2117V13.0061C14.0108 12.9331 14.0719 12.8726 14.1458 12.8726H15.3652C15.4391 12.8726 15.5003 12.9331 15.5003 13.0061V14.2117Z" fill="#148CF0"/>
<path d="M8.25441 15.5713H7.03495C6.74486 15.5713 6.51172 15.8018 6.51172 16.0886V17.2942C6.51172 17.581 6.74485 17.8115 7.03495 17.8115H8.25441C8.5445 17.8115 8.77764 17.581 8.77764 17.2942V16.0886C8.77764 15.8059 8.54028 15.5713 8.25441 15.5713ZM8.38943 17.2942C8.38943 17.3672 8.32825 17.4277 8.25441 17.4277H7.03495C6.96111 17.4277 6.89992 17.3672 6.89992 17.2942V16.0886C6.89992 16.0156 6.96111 15.9551 7.03495 15.9551H8.25441C8.32825 15.9551 8.38943 16.0156 8.38943 16.0886V17.2942Z" fill="#148CF0"/>
<path d="M11.8096 15.5713H10.5901C10.3 15.5713 10.0669 15.8018 10.0669 16.0886V17.2942C10.0669 17.581 10.3 17.8115 10.5901 17.8115H11.8096C12.0997 17.8115 12.3328 17.581 12.3328 17.2942V16.0886C12.3339 15.8059 12.0965 15.5713 11.8096 15.5713ZM11.9446 17.2942C11.9446 17.3672 11.8834 17.4277 11.8096 17.4277H10.5901C10.5163 17.4277 10.4551 17.3672 10.4551 17.2942V16.0886C10.4551 16.0156 10.5163 15.9551 10.5901 15.9551H11.8096C11.8834 15.9551 11.9446 16.0156 11.9446 16.0886V17.2942Z" fill="#148CF0"/>
<path d="M15.3652 15.5713H14.1458C13.8557 15.5713 13.6226 15.8018 13.6226 16.0886V17.2942C13.6226 17.581 13.8599 17.8115 14.1458 17.8115H15.3652C15.6553 17.8115 15.8885 17.581 15.8885 17.2942V16.0886C15.8895 15.8059 15.6522 15.5713 15.3652 15.5713ZM15.5003 17.2942C15.5003 17.3672 15.4391 17.4277 15.3652 17.4277H14.1458C14.0719 17.4277 14.0108 17.3672 14.0108 17.2942V16.0886C14.0108 16.0156 14.0719 15.9551 14.1458 15.9551H15.3652C15.4391 15.9551 15.5003 16.0156 15.5003 16.0886V17.2942Z" fill="#148CF0"/>
<path d="M8.25441 18.6543H7.03495C6.74486 18.6543 6.51172 18.8848 6.51172 19.1716V20.3772C6.51172 20.664 6.74485 20.8945 7.03495 20.8945H8.25441C8.5445 20.8945 8.77764 20.664 8.77764 20.3772V19.1716C8.77764 18.889 8.54028 18.6543 8.25441 18.6543ZM8.38943 20.3772C8.38943 20.4502 8.32825 20.5107 8.25441 20.5107H7.03495C6.96111 20.5107 6.89992 20.4502 6.89992 20.3772V19.1716C6.89992 19.0986 6.96111 19.0381 7.03495 19.0381H8.25441C8.32825 19.0381 8.38943 19.0986 8.38943 19.1716V20.3772Z" fill="#148CF0"/>
<path d="M11.8096 18.6543H10.5901C10.3 18.6543 10.0669 18.8848 10.0669 19.1716V20.3772C10.0669 20.664 10.3 20.8945 10.5901 20.8945H11.8096C12.0997 20.8945 12.3328 20.664 12.3328 20.3772V19.1716C12.3339 18.889 12.0965 18.6543 11.8096 18.6543ZM11.9446 20.3772C11.9446 20.4502 11.8834 20.5107 11.8096 20.5107H10.5901C10.5163 20.5107 10.4551 20.4502 10.4551 20.3772V19.1716C10.4551 19.0986 10.5163 19.0381 10.5901 19.0381H11.8096C11.8834 19.0381 11.9446 19.0986 11.9446 19.1716V20.3772Z" fill="#148CF0"/>
<path d="M15.3657 18.6543H14.1463C13.8562 18.6543 13.623 18.8848 13.623 19.1716V20.3772C13.623 20.664 13.8604 20.8945 14.1463 20.8945H15.3657C15.6558 20.8945 15.889 20.664 15.889 20.3772V19.1716C15.89 18.889 15.6527 18.6543 15.3657 18.6543ZM15.5008 20.3772C15.5008 20.4502 15.4396 20.5107 15.3657 20.5107H14.1463C14.0724 20.5107 14.0112 20.4502 14.0112 20.3772V19.1716C14.0112 19.0986 14.0724 19.0381 14.1463 19.0381H15.3657C15.4396 19.0381 15.5008 19.0986 15.5008 19.1716V20.3772Z" fill="#148CF0"/>
<path d="M8.25441 21.7358H7.03495C6.74486 21.7358 6.51172 21.9663 6.51172 22.2531V23.4587C6.51172 23.7455 6.74485 23.976 7.03495 23.976H8.25441C8.5445 23.976 8.77764 23.7456 8.77764 23.4587V22.2531C8.77764 21.9705 8.54028 21.7358 8.25441 21.7358ZM8.38943 23.4629C8.38943 23.5359 8.32825 23.5964 8.25441 23.5964H7.03495C6.96111 23.5964 6.89992 23.5359 6.89992 23.4629V22.2573C6.89992 22.1843 6.96111 22.1238 7.03495 22.1238H8.25441C8.32825 22.1238 8.38943 22.1843 8.38943 22.2573V23.4629Z" fill="#148CF0"/>
<path d="M11.8096 21.7358H10.5901C10.3 21.7358 10.0669 21.9663 10.0669 22.2531V23.4587C10.0669 23.7455 10.3 23.976 10.5901 23.976H11.8096C12.0997 23.976 12.3328 23.7456 12.3328 23.4587V22.2531C12.3339 21.9705 12.0965 21.7358 11.8096 21.7358ZM11.9446 23.4629C11.9446 23.5359 11.8834 23.5964 11.8096 23.5964H10.5901C10.5163 23.5964 10.4551 23.5359 10.4551 23.4629V22.2573C10.4551 22.1843 10.5163 22.1238 10.5901 22.1238H11.8096C11.8834 22.1238 11.9446 22.1843 11.9446 22.2573V23.4629Z" fill="#148CF0"/>
<path d="M15.3652 21.7358H14.1458C13.8557 21.7358 13.6226 21.9663 13.6226 22.2531V23.4587C13.6226 23.7455 13.8599 23.976 14.1458 23.976H15.3652C15.6553 23.976 15.8885 23.7456 15.8885 23.4587V22.2531C15.8895 21.9705 15.6522 21.7358 15.3652 21.7358ZM15.5003 23.4629C15.5003 23.5359 15.4391 23.5964 15.3652 23.5964H14.1458C14.0719 23.5964 14.0108 23.5359 14.0108 23.4629V22.2573C14.0108 22.1843 14.0719 22.1238 14.1458 22.1238H15.3652C15.4391 22.1238 15.5003 22.1843 15.5003 22.2573V23.4629Z" fill="#148CF0"/>
</g>
</svg>
