<svg width="30" height="30" viewBox="0 0 30 30" fill="none" xmlns="http://www.w3.org/2000/svg">
<mask id="mask0_41_2942" style="mask-type:alpha" maskUnits="userSpaceOnUse" x="0" y="0" width="30" height="30">
<rect width="30" height="30" fill="#148CF0"/>
</mask>
<g mask="url(#mask0_41_2942)">
<path d="M25.2468 25.5267H24.7922V25.0699H25.0622C25.3523 25.0699 25.5855 24.8353 25.5855 24.5527V23.347C25.5855 23.0602 25.3481 22.8297 25.0622 22.8297H24.7922V21.6606H25.0622C25.3523 21.6606 25.5855 21.4301 25.5855 21.1433V19.9377C25.5855 19.6509 25.3481 19.4204 25.0622 19.4204H24.7922V18.2513H25.0622C25.3523 18.2513 25.5855 18.0208 25.5855 17.734V16.5284C25.5855 16.2416 25.3481 16.0111 25.0622 16.0111H24.7922L24.7932 14.8389H25.0633C25.3534 14.8389 25.5865 14.6042 25.5865 14.3216V13.116C25.5865 12.8292 25.3492 12.5987 25.0633 12.5987H24.7932V11.4295H25.0633C25.3534 11.4295 25.5865 11.1991 25.5865 10.9122V9.70663C25.5865 9.41983 25.3492 9.18934 25.0633 9.18934H24.7932V8.02022H25.0633C25.3534 8.02022 25.5865 7.78973 25.5865 7.50293V6.29731C25.5865 6.01051 25.3492 5.78002 25.0633 5.78002H24.7932V4.60777H24.8829C25.2057 4.60777 25.4684 4.34913 25.4684 4.02894V3.07883C25.4684 2.7597 25.2068 2.5 24.8829 2.5L17.141 2.50104C16.8182 2.50104 16.5555 2.75969 16.5555 3.07988V4.02686C16.5555 4.34599 16.8171 4.60569 17.141 4.60569H17.2264V6.22015L4.8007 6.21807C4.4779 6.21807 4.21522 6.47671 4.21522 6.7969V7.97854C4.21522 8.29038 4.4684 8.54485 4.77958 8.55737V25.5195L4.74793 25.5184C4.19516 25.5184 3.75 25.9596 3.75 26.505C3.74895 27.0515 4.19516 27.5 4.74793 27.5H25.2521C25.8048 27.5 26.25 27.0589 26.25 26.5134C26.25 25.9669 25.7996 25.5267 25.2468 25.5267ZM16.9405 4.02982V3.07867C16.9405 2.96916 17.0302 2.88469 17.1367 2.88469H24.8786C24.9894 2.88469 25.0748 2.97334 25.0748 3.07867V4.02566C25.0748 4.13517 24.9852 4.21964 24.8786 4.21964H17.141C17.0313 4.22381 16.9405 4.13516 16.9405 4.02982ZM25.1982 23.3417V24.5473C25.1982 24.6203 25.1371 24.6808 25.0632 24.6808H19.4574C19.3836 24.6808 19.3224 24.6203 19.3224 24.5473V23.3417C19.3224 23.2687 19.3836 23.2082 19.4574 23.2082H24.5968H24.601H24.6053H25.0631C25.1369 23.2082 25.1982 23.2687 25.1982 23.3417ZM25.1982 19.9314V21.1371C25.1982 21.2101 25.1371 21.2706 25.0632 21.2706H24.6054H24.6012H24.5969H19.4575C19.3837 21.2706 19.3225 21.2101 19.3225 21.1371V19.9314C19.3225 19.8584 19.3837 19.7979 19.4575 19.7979H25.0633C25.1372 19.7979 25.1982 19.8584 25.1982 19.9314ZM25.1982 16.5252V17.7308C25.1982 17.8038 25.1371 17.8643 25.0632 17.8643H19.4574C19.3836 17.8643 19.3224 17.8038 19.3224 17.7308V16.5252C19.3224 16.4522 19.3836 16.3917 19.4574 16.3917H24.5968H24.601H24.6053H25.0631C25.1369 16.3875 25.1982 16.4491 25.1982 16.5252ZM25.1982 13.1149V14.3206C25.1982 14.3936 25.1371 14.4541 25.0632 14.4541H24.6054H24.6012H24.5969H19.4575C19.3837 14.4541 19.3225 14.3936 19.3225 14.3206V13.1149C19.3225 13.0419 19.3837 12.9814 19.4575 12.9814H25.0633C25.1372 12.9783 25.1982 13.0388 25.1982 13.1149ZM25.1982 9.70548V10.9111C25.1982 10.9841 25.1371 11.0446 25.0632 11.0446H19.4574C19.3836 11.0446 19.3224 10.9841 19.3224 10.9111V9.70548C19.3224 9.63248 19.3836 9.57199 19.4574 9.57199H24.5968H24.601H24.6053H25.0631C25.1369 9.56782 25.1982 9.62831 25.1982 9.70548ZM25.1982 6.29523V7.50084C25.1982 7.57385 25.1371 7.63434 25.0632 7.63434H19.4574C19.3836 7.63434 19.3224 7.57385 19.3224 7.50084V6.29523C19.3224 6.22222 19.3836 6.16173 19.4574 6.16173H25.0632C25.1371 6.15756 25.1982 6.21805 25.1982 6.29523ZM19.4574 5.77689C19.1673 5.77689 18.9342 6.00738 18.9342 6.29419V7.4998C18.9342 7.7866 19.1673 8.0171 19.4574 8.0171H24.4037V9.18622L19.4574 9.18726C19.1673 9.18726 18.9342 9.41775 18.9342 9.70455V10.9102C18.9342 11.197 19.1673 11.4275 19.4574 11.4275H24.4037V12.5966L19.4574 12.5976C19.1673 12.5976 18.9342 12.8323 18.9342 13.1149V14.3205C18.9342 14.6073 19.1673 14.8378 19.4574 14.8378H24.4037V16.0069L19.4574 16.008C19.1673 16.008 18.9342 16.2426 18.9342 16.5253V17.7309C18.9342 18.0177 19.1673 18.2482 19.4574 18.2482H24.4037V19.4173L19.4574 19.4184C19.1673 19.4184 18.9342 19.6488 18.9342 19.9356V21.1413C18.9342 21.4281 19.1673 21.6586 19.4574 21.6586H24.4037V22.8277H19.4574C19.1673 22.8277 18.9342 23.0582 18.9342 23.345V24.5506C18.9342 24.8374 19.1673 25.0679 19.4574 25.0679H24.4037V25.5247L17.6154 25.5268V6.41725V6.41308V4.60778H24.4037V5.77273H19.4574V5.77689ZM4.60444 7.9858V6.80416C4.60444 6.69465 4.6941 6.61018 4.80065 6.61018H17.2275V8.18395H4.80065C4.68988 8.17978 4.60444 8.09114 4.60444 7.9858ZM5.1688 8.56464H17.2273V25.5267H5.1688V8.56464ZM25.2468 27.1161H4.74805C4.41259 27.1161 4.13832 26.845 4.13832 26.5133C4.13832 26.1817 4.41259 25.9105 4.74805 25.9105H4.97275H4.97697H24.6002H24.6044H25.2468C25.5823 25.9105 25.8566 26.1817 25.8566 26.5133C25.8566 26.845 25.5865 27.1161 25.2468 27.1161Z" fill="#148CF0"/>
<path d="M8.25453 9.40625H7.03507C6.74498 9.40625 6.51184 9.63674 6.51184 9.92354V11.1292C6.51184 11.416 6.74497 11.6465 7.03507 11.6465H8.25453C8.54462 11.6465 8.77776 11.4118 8.77776 11.1292V9.92354C8.77776 9.63674 8.5404 9.40625 8.25453 9.40625ZM8.38955 11.1292C8.38955 11.2022 8.32837 11.2627 8.25453 11.2627H7.03507C6.96123 11.2627 6.90004 11.2022 6.90004 11.1292V9.92354C6.90004 9.85054 6.96123 9.79005 7.03507 9.79005H8.25453C8.32837 9.79005 8.38955 9.85054 8.38955 9.92354V11.1292Z" fill="#148CF0"/>
<path d="M11.8096 9.40625H10.5901C10.3 9.40625 10.0669 9.63674 10.0669 9.92354V11.1292C10.0669 11.416 10.3 11.6465 10.5901 11.6465H11.8096C12.0997 11.6465 12.3328 11.4118 12.3328 11.1292V9.92354C12.3339 9.63674 12.0965 9.40625 11.8096 9.40625ZM11.9446 11.1292C11.9446 11.2022 11.8834 11.2627 11.8096 11.2627H10.5901C10.5163 11.2627 10.4551 11.2022 10.4551 11.1292V9.92354C10.4551 9.85054 10.5163 9.79005 10.5901 9.79005H11.8096C11.8834 9.79005 11.9446 9.85054 11.9446 9.92354V11.1292Z" fill="#148CF0"/>
<path d="M15.3655 9.40625H14.146C13.8559 9.40625 13.6228 9.63674 13.6228 9.92354V11.1292C13.6228 11.416 13.8602 11.6465 14.146 11.6465H15.3655C15.6556 11.6465 15.8887 11.4118 15.8887 11.1292V9.92354C15.8898 9.63674 15.6524 9.40625 15.3655 9.40625ZM15.5005 11.1292C15.5005 11.2022 15.4393 11.2627 15.3655 11.2627H14.146C14.0722 11.2627 14.011 11.2022 14.011 11.1292V9.92354C14.011 9.85054 14.0722 9.79005 14.146 9.79005H15.3655C15.4393 9.79005 15.5005 9.85054 15.5005 9.92354V11.1292Z" fill="#148CF0"/>
<path d="M8.25453 12.4878H7.03507C6.74498 12.4878 6.51184 12.7183 6.51184 13.0051V14.2107C6.51184 14.4975 6.74497 14.728 7.03507 14.728H8.25453C8.54462 14.728 8.77776 14.4975 8.77776 14.2107V13.0051C8.77776 12.7183 8.5404 12.4878 8.25453 12.4878ZM8.38955 14.2117C8.38955 14.2847 8.32837 14.3452 8.25453 14.3452H7.03507C6.96123 14.3452 6.90004 14.2847 6.90004 14.2117V13.0061C6.90004 12.9331 6.96123 12.8726 7.03507 12.8726H8.25453C8.32837 12.8726 8.38955 12.9331 8.38955 13.0061V14.2117Z" fill="#148CF0"/>
<path d="M11.8096 12.4878H10.5901C10.3 12.4878 10.0669 12.7183 10.0669 13.0051V14.2107C10.0669 14.4975 10.3 14.728 10.5901 14.728H11.8096C12.0997 14.728 12.3328 14.4975 12.3328 14.2107V13.0051C12.3339 12.7183 12.0965 12.4878 11.8096 12.4878ZM11.9446 14.2117C11.9446 14.2847 11.8834 14.3452 11.8096 14.3452H10.5901C10.5163 14.3452 10.4551 14.2847 10.4551 14.2117V13.0061C10.4551 12.9331 10.5163 12.8726 10.5901 12.8726H11.8096C11.8834 12.8726 11.9446 12.9331 11.9446 13.0061V14.2117Z" fill="#148CF0"/>
<path d="M15.3655 12.4878H14.146C13.8559 12.4878 13.6228 12.7183 13.6228 13.0051V14.2107C13.6228 14.4975 13.8602 14.728 14.146 14.728H15.3655C15.6556 14.728 15.8887 14.4975 15.8887 14.2107V13.0051C15.8898 12.7183 15.6524 12.4878 15.3655 12.4878ZM15.5005 14.2117C15.5005 14.2847 15.4393 14.3452 15.3655 14.3452H14.146C14.0722 14.3452 14.011 14.2847 14.011 14.2117V13.0061C14.011 12.9331 14.0722 12.8726 14.146 12.8726H15.3655C15.4393 12.8726 15.5005 12.9331 15.5005 13.0061V14.2117Z" fill="#148CF0"/>
<path d="M8.25453 15.5713H7.03507C6.74498 15.5713 6.51184 15.8018 6.51184 16.0886V17.2942C6.51184 17.581 6.74497 17.8115 7.03507 17.8115H8.25453C8.54462 17.8115 8.77776 17.581 8.77776 17.2942V16.0886C8.77776 15.8059 8.5404 15.5713 8.25453 15.5713ZM8.38955 17.2942C8.38955 17.3672 8.32837 17.4277 8.25453 17.4277H7.03507C6.96123 17.4277 6.90004 17.3672 6.90004 17.2942V16.0886C6.90004 16.0156 6.96123 15.9551 7.03507 15.9551H8.25453C8.32837 15.9551 8.38955 16.0156 8.38955 16.0886V17.2942Z" fill="#148CF0"/>
<path d="M11.8096 15.5713H10.5901C10.3 15.5713 10.0669 15.8018 10.0669 16.0886V17.2942C10.0669 17.581 10.3 17.8115 10.5901 17.8115H11.8096C12.0997 17.8115 12.3328 17.581 12.3328 17.2942V16.0886C12.3339 15.8059 12.0965 15.5713 11.8096 15.5713ZM11.9446 17.2942C11.9446 17.3672 11.8834 17.4277 11.8096 17.4277H10.5901C10.5163 17.4277 10.4551 17.3672 10.4551 17.2942V16.0886C10.4551 16.0156 10.5163 15.9551 10.5901 15.9551H11.8096C11.8834 15.9551 11.9446 16.0156 11.9446 16.0886V17.2942Z" fill="#148CF0"/>
<path d="M15.3655 15.5713H14.146C13.8559 15.5713 13.6228 15.8018 13.6228 16.0886V17.2942C13.6228 17.581 13.8602 17.8115 14.146 17.8115H15.3655C15.6556 17.8115 15.8887 17.581 15.8887 17.2942V16.0886C15.8898 15.8059 15.6524 15.5713 15.3655 15.5713ZM15.5005 17.2942C15.5005 17.3672 15.4393 17.4277 15.3655 17.4277H14.146C14.0722 17.4277 14.011 17.3672 14.011 17.2942V16.0886C14.011 16.0156 14.0722 15.9551 14.146 15.9551H15.3655C15.4393 15.9551 15.5005 16.0156 15.5005 16.0886V17.2942Z" fill="#148CF0"/>
<path d="M8.25453 18.6543H7.03507C6.74498 18.6543 6.51184 18.8848 6.51184 19.1716V20.3772C6.51184 20.664 6.74497 20.8945 7.03507 20.8945H8.25453C8.54462 20.8945 8.77776 20.664 8.77776 20.3772V19.1716C8.77776 18.889 8.5404 18.6543 8.25453 18.6543ZM8.38955 20.3772C8.38955 20.4502 8.32837 20.5107 8.25453 20.5107H7.03507C6.96123 20.5107 6.90004 20.4502 6.90004 20.3772V19.1716C6.90004 19.0986 6.96123 19.0381 7.03507 19.0381H8.25453C8.32837 19.0381 8.38955 19.0986 8.38955 19.1716V20.3772Z" fill="#148CF0"/>
<path d="M11.8096 18.6543H10.5901C10.3 18.6543 10.0669 18.8848 10.0669 19.1716V20.3772C10.0669 20.664 10.3 20.8945 10.5901 20.8945H11.8096C12.0997 20.8945 12.3328 20.664 12.3328 20.3772V19.1716C12.3339 18.889 12.0965 18.6543 11.8096 18.6543ZM11.9446 20.3772C11.9446 20.4502 11.8834 20.5107 11.8096 20.5107H10.5901C10.5163 20.5107 10.4551 20.4502 10.4551 20.3772V19.1716C10.4551 19.0986 10.5163 19.0381 10.5901 19.0381H11.8096C11.8834 19.0381 11.9446 19.0986 11.9446 19.1716V20.3772Z" fill="#148CF0"/>
<path d="M15.3655 18.6543H14.146C13.8559 18.6543 13.6228 18.8848 13.6228 19.1716V20.3772C13.6228 20.664 13.8602 20.8945 14.146 20.8945H15.3655C15.6556 20.8945 15.8887 20.664 15.8887 20.3772V19.1716C15.8898 18.889 15.6524 18.6543 15.3655 18.6543ZM15.5005 20.3772C15.5005 20.4502 15.4393 20.5107 15.3655 20.5107H14.146C14.0722 20.5107 14.011 20.4502 14.011 20.3772V19.1716C14.011 19.0986 14.0722 19.0381 14.146 19.0381H15.3655C15.4393 19.0381 15.5005 19.0986 15.5005 19.1716V20.3772Z" fill="#148CF0"/>
<path d="M8.25453 21.7358H7.03507C6.74498 21.7358 6.51184 21.9663 6.51184 22.2531V23.4587C6.51184 23.7455 6.74497 23.976 7.03507 23.976H8.25453C8.54462 23.976 8.77776 23.7456 8.77776 23.4587V22.2531C8.77776 21.9705 8.5404 21.7358 8.25453 21.7358ZM8.38955 23.4629C8.38955 23.5359 8.32837 23.5964 8.25453 23.5964H7.03507C6.96123 23.5964 6.90004 23.5359 6.90004 23.4629V22.2573C6.90004 22.1843 6.96123 22.1238 7.03507 22.1238H8.25453C8.32837 22.1238 8.38955 22.1843 8.38955 22.2573V23.4629Z" fill="#148CF0"/>
<path d="M11.8096 21.7358H10.5901C10.3 21.7358 10.0669 21.9663 10.0669 22.2531V23.4587C10.0669 23.7455 10.3 23.976 10.5901 23.976H11.8096C12.0997 23.976 12.3328 23.7456 12.3328 23.4587V22.2531C12.3339 21.9705 12.0965 21.7358 11.8096 21.7358ZM11.9446 23.4629C11.9446 23.5359 11.8834 23.5964 11.8096 23.5964H10.5901C10.5163 23.5964 10.4551 23.5359 10.4551 23.4629V22.2573C10.4551 22.1843 10.5163 22.1238 10.5901 22.1238H11.8096C11.8834 22.1238 11.9446 22.1843 11.9446 22.2573V23.4629Z" fill="#148CF0"/>
<path d="M15.3655 21.7358H14.146C13.8559 21.7358 13.6228 21.9663 13.6228 22.2531V23.4587C13.6228 23.7455 13.8602 23.976 14.146 23.976H15.3655C15.6556 23.976 15.8887 23.7456 15.8887 23.4587V22.2531C15.8898 21.9705 15.6524 21.7358 15.3655 21.7358ZM15.5005 23.4629C15.5005 23.5359 15.4393 23.5964 15.3655 23.5964H14.146C14.0722 23.5964 14.011 23.5359 14.011 23.4629V22.2573C14.011 22.1843 14.0722 22.1238 14.146 22.1238H15.3655C15.4393 22.1238 15.5005 22.1843 15.5005 22.2573V23.4629Z" fill="#148CF0"/>
</g>
</svg>
