<svg width="30" height="30" viewBox="0 0 30 30" fill="none" xmlns="http://www.w3.org/2000/svg">
<mask id="mask0_397_40991" style="mask-type:alpha" maskUnits="userSpaceOnUse" x="0" y="0" width="30" height="30">
<rect width="30" height="30" fill="#148CF0"/>
</mask>
<g mask="url(#mask0_397_40991)">
<path d="M9.34666 27.0329C11.2085 27.3405 13.1094 27.5 14.9959 27.5C16.8837 27.5 18.783 27.3421 20.6451 27.0329C23.9163 26.4877 26.483 23.9244 27.028 20.65C27.3355 18.7881 27.495 16.8873 27.495 15.0008C27.495 13.1129 27.3372 11.2137 27.028 9.35162C26.4827 6.08034 23.9195 3.51368 20.6451 2.96872C16.8953 2.34376 13.0918 2.34376 9.34541 2.96872C6.07413 3.51393 3.50747 6.07721 2.96709 9.35162C2.65461 11.2135 2.5 13.1144 2.5 15.0008C2.5 16.8887 2.65787 18.788 2.96709 20.65C3.51231 23.9213 6.07559 26.4879 9.34541 27.0329H9.34666ZM4.60906 9.62701C5.0387 7.05556 7.05031 5.04399 9.62164 4.61444C11.3924 4.31823 13.2005 4.16851 14.9954 4.16851C16.7904 4.16851 18.5987 4.31824 20.3742 4.61444C22.9457 5.04408 24.9573 7.05569 25.3868 9.62701C25.683 11.3977 25.8327 13.2059 25.8327 15.0058C25.8327 16.8058 25.683 18.6091 25.3868 20.3846C24.9572 22.9561 22.9456 24.9676 20.3742 25.3972C16.854 25.9847 13.1368 25.9847 9.62122 25.3972C7.04977 24.9676 5.0382 22.9559 4.60865 20.3846C4.31244 18.6139 4.16272 16.8058 4.16272 15.0058C4.16272 13.2058 4.31287 11.4026 4.60906 9.62701Z" fill="#148CF0"/>
<path d="M14.9959 21.2521C15.4548 21.2521 15.8292 20.8778 15.8292 20.4189V15.4192C15.8292 14.9602 15.4548 14.5859 14.9959 14.5859C14.5369 14.5859 14.1626 14.9603 14.1626 15.4192V20.4189C14.1626 20.8778 14.5369 21.2521 14.9959 21.2521Z" fill="#148CF0"/>
<path d="M15.8292 10.0017C15.8292 11.1133 14.1626 11.1133 14.1626 10.0017C14.1626 8.89007 15.8292 8.89007 15.8292 10.0017Z" fill="#148CF0"/>
</g>
</svg>
