<svg width="30" height="30" viewBox="0 0 30 30" fill="none" xmlns="http://www.w3.org/2000/svg">
<mask id="mask0_239_1303" style="mask-type:alpha" maskUnits="userSpaceOnUse" x="0" y="0" width="30" height="30">
<rect width="30" height="30" fill="#D9D9D9"/>
</mask>
<g mask="url(#mask0_239_1303)">
<path fill-rule="evenodd" clip-rule="evenodd" d="M26.3435 13.1878C26.9151 13.0377 27.2553 12.4528 27.1052 11.8823C26.9541 11.3087 26.3744 10.9684 25.7833 11.1247C25.2128 11.2747 24.8715 11.8597 25.0216 12.4302C25.1727 13.0038 25.7535 13.344 26.3435 13.1878ZM26.4268 16.1854C27.0169 16.1885 27.4979 15.7115 27.5 15.1214C27.5031 14.5283 27.0302 14.0493 26.4186 14.0483C25.8285 14.0452 25.3474 14.5222 25.3444 15.1122C25.3413 15.7053 25.8152 16.1844 26.4258 16.1854H26.4268ZM25.7309 19.1028C26.3004 19.258 26.8884 18.9229 27.0436 18.3523C27.1998 17.7808 26.8678 17.1959 26.2767 17.0355C25.7072 16.8803 25.1193 17.2154 24.964 17.7859C24.8078 18.3585 25.1408 18.9434 25.7309 19.1028ZM24.303 21.7404C24.8129 22.0375 25.4677 21.8658 25.7648 21.3559C26.0639 20.844 25.8943 20.1933 25.3649 19.8849C24.8551 19.5879 24.2003 19.7595 23.9032 20.2694C23.604 20.7813 23.7747 21.433 24.303 21.7404ZM22.1392 22.5041C22.5463 22.1012 23.3265 21.9768 23.7479 22.4014C24.1786 22.8351 24.1499 23.5321 23.7284 23.9495C21.4761 26.1472 18.3963 27.501 15 27.501C8.09631 27.501 2.5 21.9047 2.5 15.001C2.5 8.09631 8.09631 2.5 15 2.5C15.5911 2.5 16.0711 2.98005 16.0711 3.57113C16.0711 4.16221 15.5911 4.64226 15 4.64226C9.27947 4.64226 4.64237 9.27936 4.64237 14.9988C4.64237 20.7183 9.27947 25.3554 15 25.3554C17.7674 25.3554 20.2816 24.2699 22.1392 22.5017L22.1392 22.5041ZM25.4884 10.3147C26.0003 10.0217 26.1792 9.36895 25.8862 8.856C25.5922 8.341 24.9436 8.16213 24.4121 8.4664C23.9002 8.75937 23.7213 9.41213 24.0143 9.92508C24.3083 10.4401 24.9579 10.6189 25.4884 10.3147ZM23.9176 7.76021C24.3371 7.34492 24.3401 6.6675 23.9248 6.24911C23.5075 5.82763 22.8352 5.82353 22.4014 6.25425C21.982 6.66954 21.9789 7.34696 22.3942 7.76535C22.8115 8.18683 23.4849 8.19093 23.9176 7.76021ZM21.7394 5.69916C22.0365 5.18929 21.8648 4.53448 21.355 4.2374C20.843 3.93827 20.1923 4.10788 19.884 4.63727C19.5859 5.14713 19.7586 5.80195 20.2684 6.09903C20.7803 6.39816 21.4321 6.22752 21.7394 5.69916ZM19.1018 4.27132C19.257 3.70182 18.9219 3.11385 18.3514 2.95861C17.7788 2.80236 17.1949 3.13542 17.0345 3.72445C16.8793 4.29395 17.2144 4.88192 17.785 5.03716C18.3575 5.19341 18.9424 4.86035 19.1018 4.27132ZM20.3857 18.8713L16.0712 14.5568V8.01895C16.0712 7.42684 15.5912 6.94782 15.0001 6.94782C14.409 6.94782 13.929 7.42787 13.929 8.01895V15.0008C13.929 15.2742 14.0338 15.5487 14.2425 15.7584L18.8704 20.3863C19.2888 20.8046 19.9672 20.8046 20.3856 20.3863C20.804 19.9679 20.8041 19.2897 20.3857 18.8713Z" fill="#E4AD1D"/>
</g>
</svg>
