<svg width="26" height="20" viewBox="0 0 26 20" fill="none" xmlns="http://www.w3.org/2000/svg">
<path d="M6.95836 8.09473H3.29753C3.06753 8.09473 2.88086 8.2807 2.88086 8.50985V11.2675C2.88086 11.4966 3.06753 11.6826 3.29753 11.6826H6.95836C7.18836 11.6826 7.37503 11.4966 7.37503 11.2675V8.50985C7.37503 8.2807 7.18836 8.09473 6.95836 8.09473ZM6.54169 10.8524H3.71419V8.92496H6.54169V10.8524Z" fill="#148CF0"/>
<path d="M14.8302 8.09473H11.1694C10.9394 8.09473 10.7527 8.2807 10.7527 8.50985V11.2675C10.7527 11.4966 10.9394 11.6826 11.1694 11.6826H14.8302C15.0606 11.6826 15.2469 11.4966 15.2469 11.2675V8.50985C15.2469 8.2807 15.0602 8.09473 14.8302 8.09473ZM14.4135 10.8524H11.586V8.92496H14.4135V10.8524Z" fill="#148CF0"/>
<path d="M22.7025 8.09473H19.0417C18.8113 8.09473 18.625 8.2807 18.625 8.50985V11.2675C18.625 11.4966 18.8113 11.6826 19.0417 11.6826H22.7025C22.9329 11.6826 23.1192 11.4966 23.1192 11.2675V8.50985C23.1192 8.2807 22.9329 8.09473 22.7025 8.09473ZM22.2858 10.8524H19.4583V8.92496H22.2858V10.8524Z" fill="#148CF0"/>
<path d="M6.95836 14.1885H3.29753C3.06753 14.1885 2.88086 14.3744 2.88086 14.6036V17.3612C2.88086 17.5904 3.06753 17.7763 3.29753 17.7763H6.95836C7.18836 17.7763 7.37503 17.5904 7.37503 17.3612V14.6036C7.37503 14.374 7.18836 14.1885 6.95836 14.1885ZM6.54169 16.9457H3.71419V15.0183H6.54169V16.9457Z" fill="#148CF0"/>
<path d="M14.8302 14.1885H11.1694C10.9394 14.1885 10.7527 14.3744 10.7527 14.6036V17.3612C10.7527 17.5904 10.9394 17.7763 11.1694 17.7763H14.8302C15.0606 17.7763 15.2469 17.5904 15.2469 17.3612V14.6036C15.2469 14.374 15.0602 14.1885 14.8302 14.1885ZM14.4135 16.9457H11.586V15.0183H14.4135V16.9457Z" fill="#148CF0"/>
<path d="M22.7025 14.1885H19.0417C18.8113 14.1885 18.625 14.3744 18.625 14.6036V17.3612C18.625 17.5904 18.8113 17.7763 19.0417 17.7763H22.7025C22.9329 17.7763 23.1192 17.5904 23.1192 17.3612V14.6036C23.1192 14.374 22.9329 14.1885 22.7025 14.1885ZM22.2858 16.9457H19.4583V15.0183H22.2858V16.9457Z" fill="#148CF0"/>
<path d="M24.17 2.21715V1.34955C24.17 0.605658 23.5625 0.000415286 22.8158 0.000415286C22.0692 0.000415286 21.4617 0.605658 21.4617 1.34955V2.07559H17.6262V1.34914C17.6262 0.605243 17.0187 0 16.2721 0C15.5254 0 14.9179 0.605243 14.9179 1.34914V2.07559H11.0825V1.34914C11.0825 0.605243 10.475 0 9.72833 0C8.98167 0 8.37417 0.605243 8.37417 1.34914V2.07559H4.53833V1.34914C4.53833 0.605243 3.93083 0 3.18417 0C2.4375 0 1.83 0.605243 1.83 1.34914V2.2213C1.03708 2.52766 0.5 3.28483 0.5 4.15119V17.9244C0.5 19.0689 1.43458 20 2.58333 20H23.4167C24.5654 20 25.5 19.0689 25.5 17.9244V4.15119C25.5 3.28732 24.9575 2.52226 24.17 2.21715ZM22.295 1.34914C22.295 1.06312 22.5287 0.830237 22.8158 0.830237C23.1029 0.830237 23.3367 1.06312 23.3367 1.34914V3.63187C23.3367 3.91789 23.1029 4.15077 22.8158 4.15077C22.5287 4.15077 22.295 3.91789 22.295 3.63187V1.34914ZM15.7513 1.34914C15.7513 1.06312 15.985 0.830237 16.2721 0.830237C16.5592 0.830237 16.7929 1.06312 16.7929 1.34914V3.63187C16.7929 3.91789 16.5592 4.15077 16.2721 4.15077C15.985 4.15077 15.7513 3.91789 15.7513 3.63187V1.34914ZM9.20708 1.34914C9.20708 1.06312 9.44083 0.830237 9.72792 0.830237C10.015 0.830237 10.2487 1.06312 10.2487 1.34914V3.63187C10.2487 3.91789 10.015 4.15077 9.72792 4.15077C9.44083 4.15077 9.20708 3.91789 9.20708 3.63187V1.34914ZM2.66333 1.34914C2.66333 1.06312 2.89708 0.830237 3.18417 0.830237C3.47125 0.830237 3.705 1.06312 3.705 1.34914V3.63187C3.705 3.91789 3.47125 4.15077 3.18417 4.15077C2.89708 4.15077 2.66333 3.91789 2.66333 3.63187V1.34914ZM1.83 3.16113V3.63187C1.83 4.37577 2.4375 4.98101 3.18417 4.98101C3.93083 4.98101 4.53833 4.37577 4.53833 3.63187V2.90583H8.37417V3.63229C8.37417 4.37618 8.98167 4.98142 9.72833 4.98142C10.475 4.98142 11.0825 4.37618 11.0825 3.63229V2.90583H14.9179V3.63229C14.9179 4.37618 15.5254 4.98142 16.2721 4.98142C17.0187 4.98142 17.6262 4.37618 17.6262 3.63229V2.90583H21.4617V3.63229C21.4617 4.37618 22.0692 4.98142 22.8158 4.98142C23.5625 4.98142 24.17 4.37618 24.17 3.63229V3.1632C24.4725 3.39318 24.6667 3.75309 24.6667 4.15119V5.89302H1.33333V4.15119C1.33333 3.75101 1.52583 3.3911 1.83 3.16113ZM23.4167 19.1698H2.58333C1.89417 19.1698 1.33333 18.611 1.33333 17.9244V6.72326H24.6667V17.924C24.6667 18.611 24.1058 19.1698 23.4167 19.1698Z" fill="#148CF0"/>
</svg>
