<svg width="30" height="30" viewBox="0 0 30 30" fill="none" xmlns="http://www.w3.org/2000/svg">
<mask id="mask0_73_284" style="mask-type:alpha" maskUnits="userSpaceOnUse" x="0" y="0" width="30" height="30">
<rect width="30" height="30" fill="#148CF0"/>
</mask>
<g mask="url(#mask0_73_284)">
<path d="M19.4134 19.0727L22.0749 15.3731C22.9437 14.1654 23.466 12.7373 23.5839 11.247C23.7018 9.75675 23.4108 8.26245 22.743 6.92963C22.0752 5.59681 21.0568 4.47749 19.8004 3.69566C18.5441 2.91383 17.099 2.5 15.6251 2.5C14.1512 2.5 12.7061 2.91383 11.4498 3.69566C10.1935 4.47749 9.17501 5.59681 8.50723 6.92963C7.83945 8.26245 7.54839 9.75675 7.6663 11.247C7.78421 12.7373 8.30649 14.1654 9.17527 15.3731L11.8375 19.0738C7.41477 19.5729 3.75 20.9618 3.75 23.1818C3.75 26.0167 9.72382 27.5 15.625 27.5C21.5262 27.5 27.5 26.0167 27.5 23.1818C27.5 20.9618 23.8364 19.5717 19.4134 19.0727ZM10.2612 14.5692C9.53865 13.5649 9.10428 12.3772 9.0062 11.1378C8.90811 9.89844 9.15014 8.6557 9.70549 7.54726C10.2608 6.43882 11.1078 5.50794 12.1526 4.85773C13.1974 4.20752 14.3992 3.86335 15.625 3.86335C16.8508 3.86335 18.0526 4.20752 19.0974 4.85773C20.1422 5.50794 20.9892 6.43882 21.5445 7.54726C22.0999 8.6557 22.3419 9.89844 22.2438 11.1378C22.1457 12.3772 21.7113 13.5649 20.9888 14.5692L15.625 22.0252L10.2612 14.5692ZM15.625 26.1363C9.19672 26.1363 5.09434 24.3865 5.09434 23.1818C5.09434 22.168 8.00667 20.7721 12.7585 20.354L15.0819 23.5837C15.1443 23.6704 15.2261 23.741 15.3204 23.7896C15.4148 23.8382 15.5191 23.8636 15.625 23.8636C15.7308 23.8636 15.8352 23.8382 15.9296 23.7896C16.0239 23.741 16.1057 23.6704 16.1681 23.5837L18.4916 20.354C23.2443 20.7717 26.1557 22.1679 26.1557 23.1818C26.1557 24.3865 22.0533 26.1363 15.625 26.1363Z" fill="#148CF0"/>
<path d="M19.5436 10.5989C19.5436 9.81292 19.3138 9.04457 18.8834 8.39103C18.4529 7.73749 17.841 7.22811 17.1252 6.9273C16.4093 6.6265 15.6216 6.54778 14.8616 6.7011C14.1016 6.85442 13.4035 7.23289 12.8556 7.78866C12.3077 8.34443 11.9345 9.05253 11.7833 9.82342C11.6321 10.5943 11.7097 11.3934 12.0062 12.1195C12.3027 12.8457 12.8048 13.4664 13.4491 13.9031C14.0933 14.3398 14.8508 14.5729 15.6257 14.5729C16.6644 14.5717 17.6602 14.1527 18.3947 13.4077C19.1292 12.6627 19.5424 11.6526 19.5436 10.5989ZM13.0523 10.5989C13.0523 10.0826 13.2032 9.57791 13.486 9.14862C13.7687 8.71932 14.1707 8.38472 14.6409 8.18713C15.1111 7.98955 15.6286 7.93785 16.1278 8.03857C16.627 8.13929 17.0855 8.38791 17.4455 8.75299C17.8054 9.11807 18.0505 9.58321 18.1498 10.0896C18.249 10.596 18.1981 11.1208 18.0033 11.5978C17.8085 12.0748 17.4786 12.4825 17.0554 12.7694C16.6322 13.0562 16.1347 13.2093 15.6257 13.2093C14.9434 13.2085 14.2893 12.9332 13.8069 12.4438C13.3244 11.9545 13.0531 11.291 13.0523 10.5989Z" fill="#148CF0"/>
</g>
</svg>
