<svg width="20" height="20" viewBox="0 0 20 20" fill="none" xmlns="http://www.w3.org/2000/svg">
<mask id="mask0_73_220" style="mask-type:alpha" maskUnits="userSpaceOnUse" x="0" y="0" width="20" height="20">
<rect width="20" height="20" fill="#148CF0"/>
</mask>
<g mask="url(#mask0_73_220)">
<path d="M1.95755 18.0522C2.07373 18.1331 2.20995 18.1748 2.34775 18.1748C2.42787 18.1748 2.508 18.1603 2.58491 18.1323L6.91169 16.5298L12.8193 18.3198C12.8498 18.3286 12.881 18.3334 12.9115 18.3334C12.9467 18.3334 12.9812 18.327 13.0148 18.3158C13.0164 18.315 13.0172 18.3158 13.0188 18.315L17.8769 16.5803C18.1477 16.4833 18.3304 16.2253 18.3304 15.9369L18.3312 4.32447C18.3312 4.10253 18.223 3.89419 18.0419 3.76599C17.8609 3.63779 17.6277 3.60655 17.4186 3.68106L16.6758 3.94628C16.4787 3.56408 16.2263 3.21234 15.9162 2.90226C15.1206 2.10583 14.0621 1.66675 12.9365 1.66675C11.8108 1.66675 10.7523 2.10583 9.95586 2.90226C9.5921 3.26602 9.30605 3.68188 9.09933 4.13938L6.99521 3.50158C6.9864 3.49918 6.97678 3.49838 6.96717 3.49677C6.95595 3.49437 6.94473 3.49197 6.93271 3.49036C6.91829 3.48876 6.90467 3.48956 6.89105 3.49036C6.87983 3.49036 6.86941 3.49036 6.859 3.49197C6.84458 3.49437 6.83095 3.49838 6.81653 3.50158C6.80852 3.50399 6.80051 3.50479 6.79249 3.50719L2.11249 5.24028C1.84567 5.33884 1.66699 5.59684 1.66699 5.88048V17.489C1.66699 17.7125 1.77676 17.9217 1.95945 18.0499L1.95755 18.0522ZM17.6324 4.28189C17.6476 4.27628 17.6612 4.27869 17.674 4.2875C17.6868 4.29631 17.6933 4.30913 17.6933 4.32516V15.9368C17.6933 15.956 17.6812 15.9728 17.6628 15.98L13.2304 17.5633V11.5508L15.9146 8.86501C15.9891 8.79049 16.0596 8.71357 16.1277 8.63505C16.1501 8.60941 16.1702 8.58217 16.1918 8.55573C16.2359 8.50204 16.28 8.44836 16.3216 8.39307C16.3457 8.36102 16.3673 8.32737 16.3905 8.29452C16.4266 8.24324 16.4626 8.19276 16.4955 8.14068C16.5187 8.10462 16.5396 8.06777 16.5612 8.03091C16.5916 7.98043 16.6213 7.92995 16.6493 7.87787C16.6702 7.83941 16.6894 7.80015 16.7086 7.76089C16.7343 7.70961 16.7599 7.65833 16.7831 7.60625C16.8016 7.56619 16.8184 7.52532 16.8352 7.48446C16.8568 7.43238 16.8777 7.3803 16.8969 7.32821C16.9121 7.28655 16.9266 7.24408 16.941 7.20162C16.9586 7.14874 16.9746 7.09585 16.9899 7.04297C17.0019 6.9997 17.0139 6.95643 17.0251 6.91317C17.0387 6.85948 17.0507 6.8058 17.062 6.75212C17.0716 6.70805 17.0804 6.66398 17.0876 6.61991C17.0972 6.56543 17.1052 6.51094 17.1124 6.45646C17.1189 6.41239 17.1245 6.36832 17.1293 6.32345C17.1349 6.26816 17.1389 6.21207 17.1421 6.15679C17.1445 6.11272 17.1477 6.06865 17.1493 6.02458C17.1509 5.9677 17.1509 5.91081 17.1501 5.85392C17.1493 5.81065 17.1501 5.76738 17.1485 5.72412C17.1461 5.66482 17.1413 5.60633 17.1357 5.54704C17.1325 5.50538 17.1301 5.46451 17.1253 5.42285C17.1181 5.35955 17.1076 5.29545 17.0972 5.23215C17.0916 5.19529 17.0868 5.15924 17.0804 5.12238C17.0652 5.04065 17.0459 4.95892 17.0259 4.8772C17.0211 4.85957 17.0187 4.84194 17.0139 4.82351C16.9882 4.72656 16.9594 4.63041 16.9266 4.53508L17.6309 4.28348L17.6324 4.28189ZM10.4052 3.35405C11.0814 2.6778 11.9804 2.30522 12.9355 2.30522C13.8906 2.30522 14.7888 2.6778 15.4642 3.35405C15.7887 3.67855 16.0427 4.05355 16.2198 4.46859C16.2198 4.46939 16.2206 4.46939 16.2206 4.47019C16.8047 5.82189 16.5083 7.36996 15.4642 8.4132L12.9355 10.9436L10.4052 8.4132C10.2818 8.28981 10.1688 8.1592 10.0671 8.02138C9.35155 7.05989 9.15685 5.78271 9.58151 4.63937C9.75858 4.15622 10.0358 3.72436 10.406 3.35418L10.4052 3.35405ZM8.82833 4.94133C8.82352 4.96376 8.81631 4.9862 8.8115 5.00863C8.79147 5.10398 8.77464 5.20013 8.76102 5.29627C8.75782 5.3171 8.75702 5.33793 8.75461 5.35957C8.745 5.43489 8.73699 5.5094 8.73138 5.58473C8.72897 5.61918 8.72897 5.65364 8.72737 5.68809C8.72417 5.74979 8.72176 5.81228 8.72176 5.87398C8.72176 5.91244 8.72337 5.9501 8.72497 5.98856C8.72657 6.04625 8.72817 6.10474 8.73218 6.16243C8.73458 6.20249 8.73939 6.24255 8.7434 6.28262C8.74901 6.3379 8.75461 6.39319 8.76183 6.44847C8.76744 6.48934 8.77465 6.5302 8.78106 6.57107C8.78987 6.62475 8.79949 6.67923 8.8107 6.73292C8.81871 6.77378 8.82833 6.81464 8.83794 6.85471C8.85076 6.90759 8.86358 6.96047 8.87801 7.01255C8.88922 7.05261 8.90124 7.09268 8.91326 7.13274C8.92929 7.18482 8.94611 7.2361 8.96454 7.28738C8.97816 7.32664 8.99259 7.3667 9.00781 7.40516C9.02784 7.45644 9.04867 7.50612 9.07031 7.5566C9.08713 7.59506 9.10316 7.63352 9.12078 7.67118C9.14402 7.72086 9.16886 7.77053 9.1945 7.81941C9.21373 7.85627 9.23216 7.89312 9.25219 7.92918C9.27943 7.97886 9.30908 8.02693 9.33873 8.07581C9.35956 8.11026 9.37959 8.14472 9.40122 8.17837C9.43327 8.22805 9.46773 8.27692 9.50298 8.325C9.52462 8.35624 9.54545 8.38749 9.56868 8.41794C9.60795 8.47082 9.65041 8.5213 9.69288 8.57258C9.71371 8.59742 9.73214 8.62306 9.75377 8.6471C9.81868 8.72161 9.88518 8.79372 9.95569 8.86424L12.5941 11.5027V17.5857L7.22104 15.9576L7.22024 4.23685L8.87801 4.73922C8.85958 4.80573 8.84436 4.87303 8.82833 4.94034L8.82833 4.94133ZM2.30225 5.88361C2.30225 5.86438 2.31427 5.84755 2.3319 5.84114L6.58259 4.26668V15.972L2.3641 17.5345C2.34888 17.5401 2.33526 17.5377 2.32244 17.5289C2.30962 17.52 2.30321 17.5072 2.30321 17.4912V5.88267L2.30225 5.88361ZM12.9084 8.15264H12.9332C13.5389 8.15264 14.1078 7.91708 14.5373 7.4876C15.2344 6.79052 15.4018 5.73366 14.9555 4.85961C14.8498 4.64727 14.7088 4.45337 14.5373 4.28111C13.6535 3.39733 12.2145 3.39733 11.3307 4.28111C11.132 4.47982 10.9733 4.71139 10.8603 4.96779C10.4797 5.82993 10.6648 6.81946 11.3307 7.48768C11.7529 7.90994 12.313 8.1463 12.9075 8.15272L12.9084 8.15264ZM11.4437 5.22497C11.5254 5.04068 11.6392 4.87483 11.7818 4.73141C12.0999 4.41331 12.5173 4.25467 12.9348 4.25467C13.3523 4.25467 13.7697 4.41332 14.087 4.73141C14.2104 4.8548 14.3105 4.99341 14.3875 5.14645C14.7088 5.77623 14.5878 6.5358 14.087 7.03658C13.7777 7.34586 13.3691 7.51492 12.9332 7.51492H12.9156C12.4885 7.51011 12.0863 7.34025 11.7826 7.03658C11.3035 6.55582 11.1705 5.84433 11.4445 5.22497H11.4437Z" fill="#148CF0"/>
</g>
</svg>
