<svg width="30" height="30" viewBox="0 0 30 30" fill="none" xmlns="http://www.w3.org/2000/svg">
<mask id="mask0_79_1803" style="mask-type:alpha" maskUnits="userSpaceOnUse" x="0" y="0" width="30" height="30">
<rect width="30" height="30" fill="#148CF0"/>
</mask>
<g mask="url(#mask0_79_1803)">
<path fill-rule="evenodd" clip-rule="evenodd" d="M4.85735 6.25H25.1426C25.7911 6.25 26.3817 6.50651 26.8079 6.92117C27.2355 7.33582 27.5 7.90737 27.5 8.53618V21.4638C27.5 22.0927 27.2355 22.6654 26.8079 23.0788C26.3804 23.4935 25.7923 23.75 25.1426 23.75L4.85735 23.7488C4.20894 23.7488 3.61963 23.4922 3.19206 23.0776C2.7645 22.6629 2.5 22.0927 2.5 21.4626L2.50128 8.5362C2.50128 7.90737 2.76578 7.33585 3.19335 6.9212C3.61963 6.50654 4.20894 6.25 4.85735 6.25ZM25.827 22.3229L17.9692 15.7869L16.8381 16.727C16.3309 17.1491 15.6684 17.3621 15.011 17.3658C14.3523 17.3683 13.6911 17.1603 13.1865 16.7407L12.0386 15.7869L4.17827 22.3255C4.36702 22.4662 4.60327 22.5509 4.85749 22.5509H25.1428C25.3996 22.5509 25.637 22.4649 25.827 22.3229ZM3.73783 21.1163L11.0923 14.9998L3.73783 8.88233V21.1163ZM4.17821 7.67324L12.434 14.5405L12.4443 14.5492L13.9876 15.833C14.2623 16.0608 14.6321 16.1741 15.0058 16.1716C15.382 16.1704 15.7556 16.0521 16.0355 15.818L17.5608 14.5491L17.5737 14.5379L25.8255 7.67454C25.6355 7.53259 25.3979 7.44667 25.1425 7.44667L4.85716 7.44916C4.60294 7.44916 4.36694 7.53253 4.17821 7.67324ZM26.2634 8.88854L18.9165 15L26.2644 21.1114V8.88854H26.2634Z" fill="#148CF0"/>
</g>
</svg>
