<svg width="30" height="30" viewBox="0 0 30 30" fill="none" xmlns="http://www.w3.org/2000/svg">
<mask id="mask0_239_2469" style="mask-type:alpha" maskUnits="userSpaceOnUse" x="0" y="0" width="30" height="30">
<rect width="30" height="30" fill="#009206"/>
</mask>
<g mask="url(#mask0_239_2469)">
<path d="M6.37982 15.359L9.06519 14.6965C9.2085 14.6615 9.33362 14.6054 9.45018 14.5365C9.5753 14.4623 9.69722 14.369 9.82662 14.2662L11.7292 12.7368C11.7987 12.6806 11.8692 12.6276 11.9409 12.5778C11.6586 11.378 11.3089 10.1909 10.8929 9.02276C10.4565 7.79646 9.94854 6.5977 9.37424 5.43381C9.28762 5.25786 9.41274 5.05649 9.60524 5.04588L13.7086 4.82648C13.6637 4.54242 13.6166 4.27214 13.5707 4.01565C13.5076 3.66802 13.4338 3.3034 13.3536 2.92819C13.3076 2.75755 13.4306 2.60175 13.6198 2.60175L27.2093 2.5C27.4061 2.5 27.5558 2.68548 27.4799 2.87097C26.7933 4.56999 26.1313 6.84141 25.5945 9.21777C25.064 11.5601 24.6534 14.0106 24.4587 16.12C24.5625 16.1793 24.6576 16.2525 24.7421 16.3351C24.9913 16.5821 25.1453 16.9213 25.1453 17.2933V17.8783C25.1453 18.2504 24.9913 18.5895 24.7432 18.8354C24.6962 18.881 24.647 18.9244 24.5946 18.9637C24.647 19.0029 24.6962 19.0442 24.7421 19.0898C24.9913 19.3368 25.1453 19.6759 25.1453 20.0479V20.633C25.1453 21.005 24.9913 21.3442 24.7432 21.5901C24.6962 21.6356 24.647 21.6791 24.5946 21.7183C24.647 21.7575 24.6962 21.7989 24.7421 21.8444C24.9913 22.0914 25.1453 22.4306 25.1453 22.8026V23.3876C25.1453 23.7597 24.9913 24.0988 24.7432 24.3447C24.6962 24.3903 24.647 24.4337 24.5946 24.473C24.647 24.5122 24.6962 24.5535 24.7421 24.5991C24.9913 24.846 25.1453 25.1852 25.1453 25.5572V26.1423C25.1453 26.5143 24.9913 26.8535 24.7432 27.0994C24.494 27.3463 24.1518 27.499 23.7764 27.499H10.8887C10.7593 27.499 10.6363 27.4873 10.5154 27.464C10.386 27.4332 10.2791 27.4046 10.155 27.3538L7.40767 26.2249C7.32104 26.1889 7.23656 26.1635 7.15207 26.1465C7.06866 26.1274 6.9692 26.1221 6.88364 26.1221H6.38102V26.686C6.38102 26.9107 6.28904 27.1142 6.14039 27.2615C5.99174 27.4088 5.7864 27.5 5.55968 27.5H3.32133C3.09461 27.5 2.88929 27.4088 2.74063 27.2615C2.59197 27.1142 2.5 26.9107 2.5 26.686V14.7928C2.5 14.5681 2.59197 14.3646 2.74063 14.2173C2.88928 14.07 3.09462 13.9788 3.32133 13.9788H5.55968C5.7864 13.9788 5.99173 14.07 6.14039 14.2173C6.28904 14.3646 6.38102 14.5681 6.38102 14.7928V15.3599L6.37982 15.359ZM14.5515 24.0056C14.8873 24.066 15.1868 24.2271 15.4167 24.4561C15.6477 24.6861 15.8092 24.986 15.8669 25.3199C15.9963 25.3252 16.1247 25.3316 16.253 25.339C16.8155 25.3739 17.3759 25.4333 17.932 25.5191C17.9417 25.162 18.0946 24.8366 18.3331 24.5992C18.3801 24.5536 18.4293 24.5101 18.4817 24.4709C18.4293 24.4317 18.3801 24.3904 18.3341 24.3448C18.085 24.0978 17.9309 23.7586 17.9309 23.3866V22.8016C17.9309 22.4296 18.0849 22.0904 18.3331 21.8445C18.3801 21.7989 18.4293 21.7555 18.4817 21.7163L18.4186 21.6665C18.1919 21.4767 18.0272 21.2128 17.963 20.915C17.9053 20.8821 17.8486 20.8461 17.7962 20.8058C17.5641 20.6288 17.3898 20.3755 17.3107 20.0756L16.6294 17.518C16.0637 18.0638 15.375 18.4454 14.6371 18.6415C14.4777 18.6839 14.3162 18.7178 14.1526 18.7422C14.3098 19.8307 14.4211 20.9288 14.4863 22.0343C14.5248 22.6893 14.5462 23.3474 14.5515 24.0056ZM15.3055 25.3072C15.2552 25.128 15.1579 24.9669 15.0285 24.8376C14.898 24.7083 14.7344 24.6108 14.5515 24.5599C14.5505 24.774 14.5472 24.9881 14.543 25.2033L14.5408 25.3146C14.7964 25.3061 15.0509 25.304 15.3055 25.3072ZM17.932 26.0682C17.3642 25.9791 16.792 25.9156 16.2209 25.8806C15.5718 25.8414 14.9205 25.8361 14.2724 25.8668C14.112 25.8668 13.9815 25.7513 13.9869 25.5881L13.9911 25.4365L12.8693 25.2552C12.7196 25.2383 12.6126 25.1026 12.6297 24.9542C12.757 23.8816 12.8404 22.8101 12.8778 21.7449C12.9131 20.7496 12.9088 19.7522 12.8661 18.7548C12.526 18.7102 12.1859 18.6255 11.8554 18.5014C11.7143 18.4485 11.6437 18.2926 11.6961 18.1527C11.7496 18.0128 11.9068 17.9429 12.048 17.9948C12.85 18.2969 13.7056 18.3276 14.4959 18.1177C15.282 17.9089 16.0049 17.4617 16.5471 16.8077C16.5824 16.7611 16.6337 16.724 16.6958 16.7081C16.8412 16.6699 16.9909 16.7568 17.0294 16.901L17.839 19.9375C17.8871 20.1187 17.9919 20.2714 18.1299 20.3774C18.2678 20.4823 18.4422 20.5427 18.6325 20.5427H19.0389C19.1576 20.5427 19.2656 20.5226 19.3619 20.4823C19.4581 20.442 19.548 20.3795 19.6303 20.2947C19.7116 20.212 19.7715 20.1209 19.8089 20.0234C19.8474 19.9248 19.8645 19.8177 19.8602 19.7022C19.8164 18.3752 19.7736 17.0482 19.7298 15.7212C19.7266 15.6141 19.7105 15.4997 19.6806 15.3968C19.6517 15.2951 19.6089 15.1955 19.5512 15.0958L19.1052 14.3179C19.0025 14.1377 18.871 13.9914 18.717 13.8812C18.5641 13.772 18.3822 13.6957 18.1769 13.6554C16.5717 13.3438 14.9685 13.0332 13.3634 12.7227C13.1292 12.6771 12.911 12.7026 12.7057 12.7767C12.4864 12.8552 12.2758 12.9898 12.0715 13.1541L10.169 14.6835C10.0224 14.8012 9.88235 14.9071 9.72835 14.9983C9.56686 15.0937 9.39467 15.17 9.19363 15.2198L6.37784 15.9141V25.5749H6.88046C7.01307 25.5749 7.12323 25.5898 7.2537 25.611C7.37348 25.6343 7.49219 25.6714 7.6141 25.7212L10.3615 26.85C10.4385 26.8818 10.5347 26.9157 10.6171 26.9285C10.7005 26.9444 10.7892 26.9528 10.8855 26.9528H18.2035C18.0303 26.725 17.9276 26.443 17.9276 26.1388V26.0646L17.932 26.0682ZM13.4147 18.794C13.4554 19.7818 13.4586 20.7728 13.4233 21.7618C13.388 22.7687 13.3142 23.7693 13.203 24.7614L14.004 24.8907C14.0179 23.9495 13.9965 23.0062 13.942 22.064C13.8778 20.9755 13.7666 19.8827 13.6072 18.7919C13.543 18.7941 13.4789 18.794 13.4147 18.794ZM14.2596 4.7947L22.7264 4.34105C22.8772 4.33363 23.0055 4.4481 23.013 4.59755L23.0077 4.66538L22.92 5.25998L22.8847 5.53344C23.5338 5.47196 24.184 5.40943 24.8332 5.34795C24.8728 5.34265 24.9145 5.34477 24.9551 5.35749C25.0995 5.40201 25.1797 5.55358 25.1348 5.69666C24.5947 7.39568 24.1915 9.13176 23.9295 10.8881C23.6804 12.5607 23.5584 14.2491 23.5649 15.9355H23.7788C23.829 15.9355 23.8793 15.9387 23.9285 15.944C24.1295 13.8475 24.5391 11.4235 25.0653 9.09819C25.5711 6.86285 26.1861 4.71857 26.8288 3.04307L13.958 3.13952L14.1088 3.91961C14.1644 4.22486 14.2146 4.51739 14.2596 4.79616V4.7947ZM12.4372 12.302L12.5217 12.2691C12.5966 12.2426 12.6725 12.2204 12.7495 12.2024C12.6255 11.3544 12.4683 10.5129 12.279 9.67979C12.0704 8.7598 11.8191 7.83767 11.5335 6.93985C11.4876 6.7692 11.5806 6.60703 11.7688 6.59007C15.2882 6.25514 18.8079 5.9202 22.3273 5.58529L22.4204 4.89849L10.0448 5.56198C10.5592 6.63566 11.0159 7.73055 11.4105 8.84025C11.8137 9.97329 12.157 11.1286 12.4382 12.3019L12.4372 12.302ZM15.2766 12.5415C15.452 11.9438 15.806 11.4223 16.2776 11.0365C16.8091 10.603 17.4903 10.3412 18.2304 10.3412C19.0795 10.3412 19.8484 10.6825 20.4056 11.2336C20.9617 11.7848 21.3061 12.5468 21.3061 13.3895C21.3061 13.859 21.1981 14.3052 21.0066 14.7027C20.8024 15.0895 20.6056 15.3736 20.273 15.6672L20.2751 15.7043L20.2826 15.9343H23.0183C23.0118 14.2141 23.1348 12.5003 23.3872 10.8085C23.5455 9.74859 23.754 8.69503 24.0129 7.65096C23.6963 7.58524 23.4129 7.42944 23.1926 7.21215C22.9006 6.92386 22.7178 6.52852 22.7124 6.09184C19.7307 6.38013 16.7471 6.65996 13.7643 6.94399C13.7707 6.99805 13.7728 7.05316 13.7728 7.10722C13.7728 7.528 13.6092 7.91276 13.3429 8.20102C13.1429 8.41618 12.8852 8.57834 12.5943 8.66102C12.6713 8.95992 12.743 9.25985 12.8114 9.56193C13.0071 10.4258 13.1686 11.2949 13.2959 12.1672C13.3536 12.1725 13.4114 12.181 13.4712 12.1926L15.2775 12.5424L15.2766 12.5415ZM20.1339 15.0418C20.2719 14.886 20.4323 14.6603 20.5136 14.4705C20.6708 14.1441 20.7596 13.7774 20.7596 13.3905C20.7596 12.6984 20.4762 12.072 20.0195 11.6194C19.5618 11.1658 18.9297 10.886 18.2325 10.886C17.6218 10.886 17.0615 11.1001 16.6262 11.4551C16.2508 11.7614 15.9653 12.1748 15.8166 12.6475L18.2849 13.1255C18.5661 13.1796 18.8196 13.2877 19.0388 13.4446C19.257 13.6004 19.441 13.8049 19.5821 14.0519L20.0281 14.8299C20.0687 14.9009 20.104 14.9719 20.135 15.0429L20.1339 15.0418ZM23.261 6.04002L23.26 6.06864C23.26 6.36648 23.3819 6.63567 23.5776 6.82859C23.7295 6.97804 23.9273 7.08403 24.1487 7.12429C24.2556 6.72152 24.37 6.32195 24.4909 5.92236L23.261 6.03895L23.261 6.04002ZM12.4553 8.13652C12.6435 8.08034 12.8114 7.97435 12.9408 7.83444C13.1173 7.64366 13.2253 7.38823 13.2253 7.10734C13.2253 7.06919 13.2232 7.03209 13.22 6.99605L12.1548 7.0978C12.2607 7.44226 12.3612 7.78887 12.4564 8.13756L12.4553 8.13652ZM5.8332 14.7905C5.8332 14.7163 5.80218 14.6484 5.75299 14.5986C5.70379 14.5499 5.63535 14.5191 5.55942 14.5191H3.32107C3.24621 14.5191 3.17777 14.5499 3.12751 14.5986C3.07831 14.6474 3.0473 14.7152 3.0473 14.7905V26.6836C3.0473 26.7578 3.07831 26.8257 3.12751 26.8755C3.1767 26.9242 3.24514 26.955 3.32107 26.955H5.55942C5.63428 26.955 5.70273 26.9242 5.75299 26.8755C5.80218 26.8267 5.8332 26.7589 5.8332 26.6836V14.7905ZM23.7774 24.743H19.3006C19.0824 24.743 18.8749 24.8289 18.7199 24.9815C18.5723 25.1288 18.4792 25.3334 18.4792 25.557V26.1421C18.4792 26.3657 18.5712 26.5703 18.7199 26.7176C18.8749 26.8702 19.0824 26.9561 19.3006 26.9561H23.7774C24.003 26.9561 24.2094 26.865 24.3581 26.7176C24.5057 26.5703 24.5987 26.3668 24.5987 26.1421V25.557C24.5987 25.3334 24.5067 25.1288 24.3581 24.9815C24.203 24.8289 23.9955 24.743 23.7774 24.743ZM23.7699 21.9884H19.307C19.0846 21.9884 18.8782 22.0701 18.7199 22.2269C18.5723 22.3742 18.4793 22.5788 18.4793 22.8024V23.3875C18.4793 23.6111 18.5713 23.8157 18.7199 23.963C18.875 24.1157 19.0814 24.2015 19.3006 24.2015H23.7774C23.9956 24.2015 24.2031 24.1157 24.3581 23.963C24.5057 23.8157 24.5988 23.6122 24.5988 23.3875V22.8024C24.5988 22.5788 24.5068 22.3743 24.3581 22.2269C24.1999 22.0701 23.9935 21.9884 23.771 21.9884H23.7699ZM23.7699 21.4458C23.9934 21.4458 24.1987 21.3642 24.357 21.2073C24.5046 21.06 24.5976 20.8565 24.5976 20.6318V20.0467C24.5976 19.8231 24.5057 19.6185 24.357 19.4712C24.1987 19.3143 23.9923 19.2327 23.7699 19.2327H20.3904L20.4053 19.6863C20.4118 19.875 20.3818 20.0541 20.3177 20.2195C20.2535 20.3859 20.154 20.5374 20.0214 20.6731C19.8899 20.8077 19.7391 20.9116 19.5733 20.9805C19.4076 21.0504 19.2279 21.0854 19.0386 21.0854H18.6194C18.6622 21.1479 18.7135 21.2041 18.7713 21.2529C18.9242 21.3811 19.1082 21.4447 19.3071 21.4447H23.7699L23.7699 21.4458ZM23.7699 18.6912C23.9934 18.6912 24.1987 18.6096 24.357 18.4527C24.5046 18.3054 24.5976 18.1019 24.5976 17.8772V17.2921C24.5976 17.0685 24.5057 16.8639 24.357 16.7166C24.2083 16.5703 24.003 16.4781 23.7763 16.4781H20.2996L20.3723 18.6901H23.7688L23.7699 18.6912Z" fill="#009206"/>
</g>
</svg>
