<svg width="30" height="30" viewBox="0 0 30 30" fill="none" xmlns="http://www.w3.org/2000/svg">
<mask id="mask0_397_43810" style="mask-type:alpha" maskUnits="userSpaceOnUse" x="0" y="0" width="30" height="30">
<rect width="30" height="30" fill="#148CF0"/>
</mask>
<g mask="url(#mask0_397_43810)">
<path d="M27.4764 23.6258L24.2276 11.3514C24.1704 11.1382 24.0323 10.9567 23.8483 10.8528C23.6822 10.7577 23.4926 10.7293 23.3108 10.7774L21.3683 11.264C21.256 11.2924 21.1562 11.3503 21.0754 11.4236C20.9834 11.0901 20.6737 10.8441 20.3022 10.8441H18.0242C17.9434 10.8441 17.8693 10.8583 17.7975 10.8802V9.52221C17.7975 9.06081 17.4126 8.68576 16.939 8.68576H14.5656C14.092 8.68576 13.7071 9.06078 13.7071 9.52221V9.92239C13.5747 9.86116 13.4288 9.82398 13.2728 9.82398H11.3135C11.1553 9.82398 11.0094 9.86334 10.877 9.92458V8.70436C10.877 8.20906 10.4629 7.80561 9.95455 7.80561H7.32641C7.20297 7.80561 7.08514 7.83076 6.97627 7.8723V5.65492C6.97627 5.2941 6.6744 5 6.3041 5L3.17218 5.00328C2.80184 5.00328 2.5 5.2974 2.5 5.6582V24.5375C2.5 24.7835 2.70424 24.9825 2.95672 24.9825L4.65796 24.9836H17.5114V24.9869H20.6626C20.9072 24.9869 21.1047 24.7934 21.1047 24.5561V13.1544L24.0987 24.4741C24.1818 24.7879 24.4612 25 24.7597 25C24.8091 25 24.8607 24.9945 24.909 24.9836L27.0232 24.4522C27.3677 24.356 27.5718 23.9866 27.4764 23.6258ZM14.2817 18.6597H17.2229V24.4196L14.2817 24.4207V18.6597ZM17.2229 18.0999H14.2817V13.8347H17.2229V18.0999ZM14.5655 9.24457H16.9389C17.0972 9.24457 17.2228 9.36812 17.2228 9.5212V13.2747H14.2817V12.8855H14.285V10.8081C14.285 10.7993 14.2817 10.7917 14.2817 10.7796V9.52006C14.2817 9.36698 14.4084 9.24457 14.5655 9.24457ZM11.3147 10.3839H13.274C13.504 10.3839 13.6937 10.5599 13.7083 10.7819V24.4217H10.8781L10.877 12.9411V10.8079C10.877 10.5739 11.0723 10.3839 11.3147 10.3839ZM6.97617 11.5669H10.3023V20.6977H6.97617V11.5669ZM6.97842 10.3139V8.70444C6.97842 8.51637 7.13328 8.3655 7.32628 8.3655H9.95443C10.1474 8.3655 10.3023 8.51639 10.3023 8.70444V11.0082L6.97618 11.0071V10.3128L6.97842 10.3139ZM4.65775 24.4206H3.07435V5.65599C3.07435 5.60241 3.11699 5.56087 3.17198 5.56087H6.30275C6.35774 5.56087 6.40038 5.60242 6.40038 5.65599V24.4206H4.65775ZM6.97618 21.2574H10.3023V24.4206H6.97618V21.2574ZM20.53 24.4236H18.5359V24.4204H17.7975V11.6234C17.7975 11.4998 17.8985 11.4025 18.0242 11.4025H20.3022C20.429 11.4025 20.5289 11.5009 20.5289 11.6234L20.53 24.4236ZM26.425 21.9012L24.1559 22.4501L21.8835 13.8506L24.1525 13.305L26.425 21.9012ZM21.5131 11.805L23.4556 11.3185C23.4646 11.3152 23.4758 11.3152 23.4848 11.3152C23.5139 11.3152 23.5397 11.3261 23.5566 11.3371C23.6116 11.3677 23.6508 11.4267 23.671 11.4934L24.0077 12.7672L21.7387 13.3128L21.4087 12.062C21.3773 11.9417 21.4267 11.828 21.5131 11.805ZM26.8726 23.9076L24.7674 24.4368C24.7359 24.4477 24.6753 24.4083 24.6551 24.3329L24.2994 22.9891L26.5684 22.4403L26.9186 23.7644C26.9388 23.8354 26.9074 23.8999 26.8726 23.9076Z" fill="#148CF0"/>
<path d="M7.72607 13.374V18.9808C7.72607 19.0366 7.77208 19.0814 7.82931 19.0814H9.48117C9.5384 19.0814 9.58441 19.0366 9.58441 18.9808V13.374C9.58441 13.3183 9.5384 13.2734 9.48117 13.2734H7.82931C7.77208 13.2734 7.72607 13.3183 7.72607 13.374ZM9.00987 18.5218H8.30063V13.8334H9.00987V18.5218Z" fill="#148CF0"/>
<path d="M3.83078 17.3735H5.48264C5.53987 17.3735 5.58588 17.3287 5.58588 17.273V8.2295C5.58588 8.17373 5.53987 8.12891 5.48264 8.12891H3.83078C3.77355 8.12891 3.72754 8.17374 3.72754 8.2295V17.273C3.72754 17.3287 3.77355 17.3735 3.83078 17.3735ZM4.30209 8.68893H5.01133V16.8149H4.30209V8.68893Z" fill="#148CF0"/>
</g>
</svg>
