<svg width="26" height="26" viewBox="0 0 26 26" fill="none" xmlns="http://www.w3.org/2000/svg">
<path d="M16.125 23.9375H13.7812C13.367 23.9371 12.9698 23.7723 12.6769 23.4794C12.3839 23.1864 12.2192 22.7893 12.2188 22.375V18.4688H13.7812V22.375H16.125V18.4688H17.6875V15.3438C17.6873 15.1366 17.6049 14.938 17.4584 14.7916C17.312 14.6451 17.1134 14.5627 16.9062 14.5625H10.0932L8.5307 9.875H3.625C3.41787 9.87523 3.21929 9.95761 3.07282 10.1041C2.92636 10.2505 2.84398 10.4491 2.84375 10.6563V15.3438H4.40625V22.375H7.53125V16.9063H9.09375V22.375C9.09332 22.7893 8.92856 23.1864 8.63562 23.4794C8.34269 23.7723 7.94552 23.9371 7.53125 23.9375H4.40625C3.99198 23.9371 3.59481 23.7723 3.30188 23.4794C3.00894 23.1864 2.84418 22.7893 2.84375 22.375V16.9063C2.42948 16.9058 2.03231 16.7411 1.73938 16.4481C1.44644 16.1552 1.28168 15.758 1.28125 15.3438V10.6563C1.28193 10.0349 1.52908 9.43911 1.96847 8.99972C2.40786 8.56033 3.00361 8.31318 3.625 8.3125H8.5307C8.85871 8.31223 9.17846 8.4153 9.44456 8.60706C9.71067 8.79883 9.9096 9.06954 10.0131 9.38078L11.2193 13H16.9062C17.5276 13.0007 18.1234 13.2478 18.5628 13.6872C19.0022 14.1266 19.2493 14.7224 19.25 15.3438V18.4688C19.2496 18.883 19.0848 19.2802 18.7919 19.5731C18.4989 19.8661 18.1018 20.0308 17.6875 20.0313V22.375C17.6871 22.7893 17.5223 23.1864 17.2294 23.4794C16.9364 23.7723 16.5393 23.9371 16.125 23.9375Z" fill="#148CF0"/>
<path d="M22.375 23.9375H20.8125V15.3438H23.1562V10.6562C23.156 10.4491 23.0736 10.2505 22.9272 10.1041C22.7807 9.95761 22.5821 9.87523 22.375 9.875H19.25V8.3125H22.375C22.9964 8.31318 23.5921 8.56033 24.0315 8.99972C24.4709 9.43911 24.7181 10.0349 24.7188 10.6562V15.3438C24.7183 15.758 24.5536 16.1552 24.2606 16.4481C23.9677 16.7411 23.5705 16.9058 23.1562 16.9062H22.375V23.9375Z" fill="#148CF0"/>
<path d="M5.96875 7.53125C5.35068 7.53125 4.7465 7.34797 4.23259 7.00459C3.71869 6.66121 3.31815 6.17316 3.08163 5.60214C2.8451 5.03112 2.78322 4.40278 2.9038 3.79659C3.02438 3.1904 3.322 2.63358 3.75904 2.19654C4.19608 1.7595 4.7529 1.46188 5.35909 1.3413C5.96528 1.22072 6.59362 1.2826 7.16464 1.51913C7.73566 1.75565 8.22371 2.15619 8.56709 2.67009C8.91047 3.184 9.09375 3.78818 9.09375 4.40625C9.09282 5.23477 8.76328 6.02908 8.17743 6.61493C7.59158 7.20078 6.79727 7.53032 5.96875 7.53125ZM5.96875 2.84375C5.65972 2.84375 5.35762 2.93539 5.10067 3.10708C4.84372 3.27877 4.64345 3.5228 4.52519 3.80831C4.40693 4.09382 4.37598 4.40798 4.43627 4.71108C4.49656 5.01418 4.64538 5.29259 4.8639 5.51111C5.08242 5.72963 5.36083 5.87844 5.66392 5.93873C5.96702 5.99902 6.28118 5.96807 6.56669 5.84981C6.8522 5.73155 7.09623 5.53128 7.26792 5.27433C7.43961 5.01738 7.53125 4.71528 7.53125 4.40625C7.53082 3.99198 7.36606 3.59481 7.07313 3.30188C6.78019 3.00895 6.38302 2.84419 5.96875 2.84375Z" fill="#148CF0"/>
<path d="M20.0313 7.53125C19.4132 7.53125 18.809 7.34797 18.2951 7.00459C17.7812 6.66121 17.3807 6.17316 17.1441 5.60214C16.9076 5.03112 16.8457 4.40278 16.9663 3.79659C17.0869 3.1904 17.3845 2.63358 17.8215 2.19654C18.2586 1.7595 18.8154 1.46188 19.4216 1.3413C20.0278 1.22072 20.6561 1.2826 21.2271 1.51913C21.7982 1.75565 22.2862 2.15619 22.6296 2.67009C22.973 3.184 23.1563 3.78818 23.1563 4.40625C23.1553 5.23477 22.8258 6.02908 22.2399 6.61493C21.6541 7.20078 20.8598 7.53032 20.0313 7.53125ZM20.0313 2.84375C19.7222 2.84375 19.4201 2.93539 19.1632 3.10708C18.9062 3.27877 18.706 3.5228 18.5877 3.80831C18.4694 4.09382 18.4385 4.40798 18.4988 4.71108C18.5591 5.01418 18.7079 5.29259 18.9264 5.51111C19.1449 5.72963 19.4233 5.87844 19.7264 5.93873C20.0295 5.99902 20.3437 5.96807 20.6292 5.84981C20.9147 5.73155 21.1587 5.53128 21.3304 5.27433C21.5021 5.01738 21.5938 4.71528 21.5938 4.40625C21.5933 3.99198 21.4286 3.59481 21.1356 3.30188C20.8427 3.00895 20.4455 2.84419 20.0313 2.84375Z" fill="#148CF0"/>
<path d="M14.9531 12.2188C14.4123 12.2188 13.8837 12.0584 13.434 11.7579C12.9843 11.4575 12.6339 11.0304 12.4269 10.5308C12.2199 10.0311 12.1658 9.48134 12.2713 8.95093C12.3768 8.42051 12.6372 7.93329 13.0196 7.55088C13.402 7.16847 13.8893 6.90805 14.4197 6.80254C14.9501 6.69704 15.4999 6.75118 15.9995 6.95814C16.4992 7.1651 16.9262 7.51557 17.2267 7.96524C17.5271 8.4149 17.6875 8.94357 17.6875 9.48438C17.6867 10.2093 17.3983 10.9043 16.8857 11.4169C16.3731 11.9295 15.6781 12.2179 14.9531 12.2188ZM14.9531 8.3125C14.7214 8.3125 14.4948 8.38123 14.3021 8.51C14.1094 8.63876 13.9592 8.82179 13.8705 9.03592C13.7818 9.25005 13.7586 9.48568 13.8038 9.713C13.849 9.94032 13.9606 10.1491 14.1245 10.313C14.2884 10.4769 14.4972 10.5885 14.7245 10.6337C14.9518 10.679 15.1875 10.6557 15.4016 10.567C15.6157 10.4784 15.7987 10.3281 15.9275 10.1354C16.0563 9.94272 16.125 9.71615 16.125 9.48438C16.1246 9.17368 16.0011 8.87582 15.7814 8.65612C15.5617 8.43643 15.2638 8.31285 14.9531 8.3125Z" fill="#148CF0"/>
</svg>
