<svg width="30" height="30" viewBox="0 0 30 30" fill="none" xmlns="http://www.w3.org/2000/svg">
<mask id="mask0_164_10689" style="mask-type:alpha" maskUnits="userSpaceOnUse" x="0" y="0" width="30" height="30">
<rect width="30" height="30" fill="#148CF0"/>
</mask>
<g mask="url(#mask0_164_10689)">
<path d="M13.603 20.3942H20.2869C20.8547 20.3942 21.3838 20.6448 21.7385 21.082L22.4888 22.0065C22.9665 22.595 23.6788 22.9323 24.4432 22.9323H27.5V22.2977H24.4435C23.8758 22.2977 23.3466 22.0471 22.9919 21.6099L22.2416 20.6854C21.764 20.0972 21.0513 19.7596 20.2869 19.7596H13.603C12.5785 19.7596 11.7413 20.581 11.7361 21.5909C11.7339 22.042 11.8955 22.4684 12.1932 22.8054H11.5569C10.9649 22.8054 10.4084 22.5782 9.98999 22.1654L5.6174 17.8557C5.27236 17.5156 4.81337 17.3281 4.32542 17.3281C3.83746 17.3281 3.37848 17.5153 3.03343 17.8557C2.35558 18.5239 2.31921 19.6039 2.95039 20.3148L7.8589 25.8444C8.79328 26.8968 10.1429 27.5005 11.5617 27.5005H27.5V26.866H11.562C10.3289 26.866 9.15571 26.3412 8.34363 25.4266L3.43513 19.897C3.02635 19.4367 3.04985 18.7368 3.48888 18.3043C3.95012 17.8497 4.70104 17.8497 5.16228 18.3043L9.53455 22.614C10.0746 23.1464 10.7927 23.4396 11.5569 23.4396H13.603H17.7303V22.805H13.603C13.275 22.805 12.9673 22.6788 12.7359 22.4497C12.5048 22.2206 12.3783 21.9167 12.3799 21.5934C12.3831 20.9322 12.9316 20.3942 13.603 20.3942Z" fill="#148CF0"/>
<path d="M7.40405 7.75546C7.21479 7.90489 7.09344 8.13459 7.09344 8.39157V17.5478C7.09344 17.9973 7.46456 18.3631 7.92065 18.3631H25.9646C26.4207 18.3631 26.7918 17.9973 26.7918 17.5478V8.39157C26.7918 7.94201 26.4207 7.57621 25.9646 7.57621H20.8225L17.4122 3.73479C16.7157 2.9502 15.7096 2.5 14.6519 2.5H2.7804V3.13453H14.6519C15.5238 3.13453 16.3533 3.50541 16.9275 4.15231L19.9669 7.57621H13.7754C13.5231 7.57621 13.3036 7.71802 13.2028 7.94582C13.1021 8.17393 13.1462 8.42869 13.3184 8.61112L15.4057 10.8196C15.4408 10.857 15.4733 10.8957 15.5029 10.936C15.6391 11.1207 15.7192 11.3355 15.7372 11.562C15.7398 11.5943 15.7411 11.627 15.7411 11.6597C15.7411 11.9916 15.6095 12.3028 15.3703 12.5363C15.3446 12.5614 15.3178 12.5855 15.2902 12.608C15.1238 12.7441 14.9239 12.8361 14.7114 12.8735C14.676 12.8799 14.6403 12.8847 14.6043 12.8878C14.2328 12.9208 13.8694 12.7911 13.6061 12.5319L10.708 9.67522C10.708 9.67522 10.708 9.67522 10.7077 9.6749L8.85664 7.85032C8.78293 7.77767 8.70408 7.70851 8.622 7.64474C8.14596 7.27322 7.54921 7.06859 6.94184 7.06859H2.7804V7.70311H6.94184C7.09795 7.70311 7.25277 7.7212 7.40405 7.75546ZM10.5754 10.4417L13.151 12.9805C13.4742 13.299 13.8978 13.4884 14.3461 13.522C14.5627 14.8923 15.595 15.825 16.9426 15.825C18.4718 15.825 19.582 14.6242 19.582 12.9697C19.582 11.3152 18.4718 10.1143 16.9426 10.1143C16.5558 10.1143 16.1798 10.1952 15.8415 10.3497L15.2589 9.73359H23.0334C23.1689 10.5255 23.8023 11.1521 24.6031 11.2863V14.6531C23.8023 14.7873 23.1689 15.4139 23.0334 16.2058H10.8519C10.7164 15.4139 10.083 14.7873 9.28215 14.6531V11.2866C9.81807 11.1974 10.2861 10.8894 10.5754 10.4417ZM15.0752 13.4357C15.0925 13.43 15.1099 13.4243 15.127 13.4183C15.1341 13.4157 15.1408 13.4135 15.1479 13.411C15.1685 13.4034 15.1891 13.3954 15.2094 13.3875C15.2116 13.3866 15.2139 13.3856 15.2161 13.385C15.2387 13.3758 15.2609 13.3659 15.2831 13.3561C15.2895 13.3532 15.2956 13.3504 15.3018 13.3472C15.3182 13.3396 15.3346 13.3317 15.3507 13.3234C15.3571 13.3203 15.3636 13.3168 15.3703 13.3136C15.3903 13.3031 15.4102 13.2927 15.4299 13.2815C15.4315 13.2806 15.4331 13.28 15.4347 13.279C15.4559 13.267 15.4765 13.2546 15.4974 13.2419C15.5036 13.2381 15.5094 13.2343 15.5152 13.2308C15.5303 13.2209 15.5457 13.2111 15.5605 13.201C15.5667 13.1968 15.5728 13.1927 15.5786 13.1886C15.5979 13.1753 15.6169 13.1619 15.6355 13.148C15.6365 13.1473 15.6371 13.1467 15.6381 13.1461C15.6574 13.1315 15.6767 13.1163 15.6957 13.101C15.7012 13.0966 15.7067 13.0918 15.7121 13.0874C15.726 13.0756 15.7398 13.0639 15.7537 13.0518C15.7591 13.0471 15.7646 13.0423 15.7697 13.0376C15.7878 13.0211 15.8058 13.0046 15.8235 12.9874C16.1856 12.634 16.3848 12.1626 16.3848 11.6603C16.3848 11.6299 16.3839 11.5994 16.3823 11.5693C16.3819 11.5607 16.3813 11.5518 16.3807 11.5433C16.3794 11.5201 16.3774 11.4969 16.3752 11.4741C16.3745 11.4662 16.3739 11.4586 16.3729 11.4506C16.3697 11.4208 16.3655 11.3913 16.3607 11.3618C16.3601 11.357 16.3591 11.3526 16.3581 11.3478C16.3539 11.3228 16.3491 11.2977 16.3436 11.2726C16.3417 11.2644 16.3401 11.2561 16.3382 11.2479C16.3327 11.2238 16.3266 11.1997 16.3201 11.1756C16.3189 11.1705 16.3176 11.1651 16.316 11.16C16.3079 11.1311 16.2989 11.1023 16.2892 11.0737C16.2873 11.068 16.2851 11.0623 16.2831 11.0566C16.2751 11.0331 16.2664 11.0099 16.2574 10.9868C16.2548 10.9798 16.2519 10.9728 16.249 10.9658C16.2377 10.9382 16.2262 10.9106 16.2133 10.8837C16.2133 10.8837 16.2133 10.8834 16.213 10.8834C16.4399 10.7955 16.6871 10.7498 16.942 10.7498C18.1168 10.7498 18.9376 11.6632 18.9376 12.9706C18.9376 14.2781 18.1168 15.1915 16.942 15.1915C15.9242 15.1915 15.1662 14.5081 14.987 13.463C15.0098 13.457 15.0323 13.4503 15.0552 13.4433C15.0623 13.4402 15.0687 13.438 15.0752 13.4357ZM10.1029 9.9763C9.89113 10.4027 9.45242 10.6784 8.96028 10.6784C8.78261 10.6784 8.63842 10.8205 8.63842 10.9957V14.9437C8.63842 15.1188 8.78261 15.2609 8.96028 15.2609C9.66292 15.2609 10.2349 15.8273 10.2349 16.523C10.2349 16.6982 10.3791 16.8403 10.5568 16.8403H23.3285C23.5062 16.8403 23.6504 16.6982 23.6504 16.523C23.6504 15.8273 24.222 15.2609 24.925 15.2609C25.1027 15.2609 25.2469 15.1188 25.2469 14.9437V10.9957C25.2469 10.8205 25.1027 10.6784 24.925 10.6784C24.2224 10.6784 23.6504 10.1121 23.6504 9.41633C23.6504 9.2412 23.5062 9.09907 23.3285 9.09907H14.6593L13.8195 8.21073H25.9646C26.066 8.21073 26.1481 8.29195 26.1481 8.39157V17.5478C26.1481 17.6477 26.0657 17.7286 25.9646 17.7286H7.92065C7.81926 17.7286 7.73718 17.6474 7.73718 17.5478V8.39157C7.73718 8.29164 7.81958 8.21073 7.92065 8.21073H8.30592C8.33876 8.23929 8.37062 8.26879 8.40152 8.29893L10.1029 9.9763Z" fill="#148CF0"/>
<path d="M12.5654 12.6523H11.5354V13.2869H12.5654V12.6523Z" fill="#148CF0"/>
<path d="M22.3503 12.6523H21.3203V13.2869H22.3503V12.6523Z" fill="#148CF0"/>
</g>
</svg>
