<svg width="24" height="24" viewBox="0 0 24 24" fill="none" xmlns="http://www.w3.org/2000/svg">
<mask id="mask0_73_178" style="mask-type:alpha" maskUnits="userSpaceOnUse" x="0" y="0" width="24" height="24">
<rect width="24" height="24" fill="#148CF0"/>
</mask>
<g mask="url(#mask0_73_178)">
<path d="M20.5885 9.41799H19.5267V5.64618C19.5267 5.5368 19.4812 5.429 19.402 5.35242L16.0645 2.11641C15.9877 2.04297 15.8842 2.00078 15.7775 2H5.81208C5.07417 2 4.47348 2.59844 4.47348 3.3336V9.41802H3.4117C3.18429 9.41802 3 9.60162 3 9.82818V15.5836C3 15.8102 3.18428 15.9938 3.4117 15.9938H4.47348V20.6672C4.47348 21.4016 5.07417 22 5.81208 22H18.1879C18.9258 22 19.5265 21.4016 19.5265 20.6664V15.993H20.5883C20.8157 15.993 21 15.8094 21 15.5828L20.9992 9.8282C20.9992 9.60164 20.8151 9.41799 20.5885 9.41799ZM16.1892 3.38037L18.1003 5.2335L16.8048 5.23037C16.4653 5.22959 16.1892 4.95381 16.1892 4.61553V3.38037ZM5.29614 3.33349C5.29614 3.04989 5.52746 2.81943 5.81212 2.81943H15.3666V4.61632C15.3666 5.40538 16.0112 6.04914 16.8032 6.0507L18.7041 6.05539V9.4178H5.2962L5.29614 3.33349ZM18.704 20.6663C18.704 20.9499 18.4727 21.1804 18.188 21.1804H5.8122C5.52754 21.1804 5.29622 20.9499 5.29622 20.6663L5.297 15.9929H18.7041L18.704 20.6663ZM20.1767 15.1733H3.82341V10.2373H20.1767V15.1733Z" fill="#148CF0"/>
<path d="M8.57478 10.9663H7.37654C7.14913 10.9663 6.96484 11.1499 6.96484 11.3765V14.2633C6.96484 14.4898 7.14913 14.6734 7.37654 14.6734C7.60396 14.6734 7.78824 14.4898 7.78824 14.2633V13.4617H8.57556C9.26564 13.4617 9.8279 12.9023 9.8279 12.2141C9.82711 11.5258 9.26564 10.9663 8.57478 10.9663ZM8.57478 12.6413H7.78746V11.7859H8.57478C8.8116 11.7859 9.00372 11.978 9.00372 12.2132C9.0045 12.4499 8.8116 12.6413 8.57478 12.6413Z" fill="#148CF0"/>
<path d="M16.6233 10.9663H14.7633C14.5359 10.9663 14.3516 11.1499 14.3516 11.3765V14.2633C14.3516 14.4898 14.5358 14.6734 14.7633 14.6734C14.9907 14.6734 15.175 14.4898 15.175 14.2633V13.1586H16.4092C16.6367 13.1586 16.8209 12.975 16.8209 12.7484C16.8209 12.5219 16.6367 12.3383 16.4092 12.3383H15.175V11.7859H16.6233C16.8507 11.7859 17.035 11.6023 17.035 11.3758C17.035 11.15 16.8507 10.9663 16.6233 10.9663Z" fill="#148CF0"/>
<path d="M11.7099 10.9663H10.9947C10.7673 10.9663 10.583 11.1499 10.583 11.3765V14.2633C10.583 14.4898 10.7673 14.6734 10.9947 14.6734H11.7099C12.7356 14.6734 13.5699 13.8422 13.5699 12.8203C13.5707 11.7977 12.7356 10.9663 11.7099 10.9663ZM11.7099 13.8531H11.4056V11.7859H11.7099C12.2816 11.7859 12.7474 12.2492 12.7474 12.8195C12.7474 13.3898 12.2823 13.8531 11.7099 13.8531Z" fill="#148CF0"/>
</g>
</svg>
