<svg width="30" height="30" viewBox="0 0 30 30" fill="none" xmlns="http://www.w3.org/2000/svg">
<mask id="mask0_74_306" style="mask-type:alpha" maskUnits="userSpaceOnUse" x="0" y="0" width="30" height="30">
<rect width="30" height="30" fill="#148CF0"/>
</mask>
<g mask="url(#mask0_74_306)">
<path d="M15.625 2.5C11.8336 2.5 8.75 5.72827 8.75 9.69719C8.75 13.4184 11.4627 16.4884 14.9267 16.8584V23.6785C14.9267 24.0667 15.2404 24.3834 15.625 24.3834C16.0096 24.3834 16.3233 24.0667 16.3233 23.6785V16.8574C19.7875 16.4912 22.5 13.4171 22.5 9.69613C22.5 5.72855 19.4164 2.5 15.625 2.5ZM15.625 15.4861C12.6055 15.4861 10.1466 12.8883 10.1466 9.6986C10.1466 6.51026 12.6056 3.90969 15.625 3.90969C18.6444 3.90969 21.1034 6.50744 21.1034 9.69719C21.1034 12.8855 18.6444 15.4861 15.625 15.4861Z" fill="#148CF0"/>
<path d="M18.6447 21.8516C18.316 21.6479 17.8864 21.7497 17.6846 22.0801C17.4827 22.4119 17.5837 22.8456 17.911 23.0493C18.4538 23.3907 18.7675 23.8423 18.7675 24.2897C18.7675 25.2657 17.3818 26.0903 15.7397 26.0903C14.099 26.0903 12.712 25.2657 12.712 24.2897C12.712 23.8423 13.0298 23.3879 13.5808 23.0452C13.9094 22.8414 14.0131 22.4078 13.8113 22.076C13.6094 21.7442 13.1798 21.6424 12.8511 21.8434C11.8773 22.4491 11.3154 23.337 11.3154 24.2897C11.3154 26.0903 13.2603 27.5 15.7398 27.5C18.2193 27.5 20.1641 26.0876 20.1641 24.2897C20.1641 23.3453 19.609 22.4574 18.6447 21.8516Z" fill="#148CF0"/>
</g>
</svg>
