<svg width="26" height="26" viewBox="0 0 26 26" fill="none" xmlns="http://www.w3.org/2000/svg">
<path fill-rule="evenodd" clip-rule="evenodd" d="M13.0031 0.499512C6.11127 0.499512 0.5 6.11079 0.5 13.0026C0.5 19.8943 6.11127 25.4995 13.0031 25.4995C19.8948 25.4995 25.5 19.8943 25.5 13.0026C25.5 6.11079 19.8948 0.499512 13.0031 0.499512ZM13.0031 2.58302C18.7688 2.58302 23.4165 7.2368 23.4165 13.0026C23.4165 18.7683 18.7688 23.416 13.0031 23.416C7.23728 23.416 2.5835 18.7683 2.5835 13.0026C2.5835 7.2368 7.23728 2.58302 13.0031 2.58302ZM18.1874 7.98099C18.05 7.99101 17.9159 8.02817 17.793 8.09034C17.6701 8.1525 17.5607 8.23844 17.4712 8.34316L11.357 15.4401L8.49015 12.4796C8.39428 12.3814 8.27994 12.303 8.15369 12.2491C8.02745 12.1952 7.89179 12.1668 7.75451 12.1655C7.61724 12.1641 7.48106 12.19 7.35381 12.2415C7.22655 12.2929 7.11072 12.3691 7.01298 12.4655C6.81675 12.6585 6.7049 12.9214 6.70187 13.1967C6.69885 13.4719 6.80489 13.7372 6.99684 13.9345L10.6511 17.7088C10.7518 17.8129 10.8731 17.8948 11.0072 17.9493C11.1413 18.0039 11.2854 18.0299 11.4301 18.0257C11.5748 18.0215 11.7171 17.9871 11.8478 17.9249C11.9785 17.8626 12.0948 17.7738 12.1893 17.664L19.0482 9.69628C19.2287 9.48716 19.3187 9.21492 19.2984 8.93944C19.2782 8.66396 19.1494 8.40779 18.9404 8.22725C18.7316 8.04927 18.461 7.96074 18.1874 7.98099Z" fill="#009206"/>
</svg>
