<svg width="30" height="30" viewBox="0 0 30 30" fill="none" xmlns="http://www.w3.org/2000/svg">
<mask id="mask0_44_3051" style="mask-type:alpha" maskUnits="userSpaceOnUse" x="0" y="0" width="30" height="30">
<rect width="30" height="30" fill="#148CF0"/>
</mask>
<g mask="url(#mask0_44_3051)">
<path d="M14.9967 11.8933C14.8467 11.8933 14.7218 12.0154 14.7218 12.162V12.7849L14.5156 12.9864C14.4093 13.0902 14.4093 13.2612 14.5156 13.365C14.5718 13.42 14.6405 13.4444 14.7093 13.4444C14.778 13.4444 14.853 13.42 14.903 13.365L15.1904 13.0841C15.2404 13.0352 15.2716 12.9681 15.2716 12.8948V12.1619C15.2716 12.0154 15.1467 11.8933 14.9967 11.8933ZM14.9967 10.9834C13.9157 10.9834 13.0409 11.8444 13.0409 12.8948C13.0409 13.9451 13.922 14.8062 14.9967 14.8062C16.0714 14.8062 16.9525 13.9451 16.9525 12.8948C16.9525 11.8444 16.0777 10.9834 14.9967 10.9834ZM14.9967 14.2748C14.2219 14.2748 13.5908 13.658 13.5908 12.9008C13.5908 12.1435 14.2219 11.5268 14.9967 11.5268C15.7715 11.5268 16.4026 12.1436 16.4026 12.9008C16.4026 13.6519 15.7715 14.2748 14.9967 14.2748ZM8.64823 20.2717H6.96117C6.8112 20.2717 6.68624 20.3938 6.68624 20.5404V22.1892C6.68624 22.3358 6.8112 22.4579 6.96117 22.4579H8.64823C8.79819 22.4579 8.92316 22.3358 8.92316 22.1892V20.5404C8.92316 20.3939 8.79819 20.2717 8.64823 20.2717ZM8.37329 21.9267H7.23608V20.8152H8.37329V21.9267ZM21.3451 19.5817H23.0321C23.1821 19.5817 23.307 19.4595 23.307 19.313V17.6642C23.307 17.5176 23.1821 17.3955 23.0321 17.3955H21.3451C21.1951 17.3955 21.0701 17.5176 21.0701 17.6642V19.313C21.0701 19.4595 21.1951 19.5817 21.3451 19.5817ZM21.62 17.9328H22.7572V19.0443H21.62V17.9328ZM21.3451 22.464H23.0321C23.1821 22.464 23.307 22.3419 23.307 22.1953V20.5465C23.307 20.3999 23.1821 20.2778 23.0321 20.2778H21.3451C21.1951 20.2778 21.0701 20.3999 21.0701 20.5465V22.1953C21.0701 22.3419 21.1951 22.464 21.3451 22.464ZM21.62 20.8091H22.7572V21.9205H21.62V20.8091ZM24.3318 22.464H26.0189C26.1688 22.464 26.2938 22.3419 26.2938 22.1953V20.5465C26.2938 20.3999 26.1688 20.2778 26.0189 20.2778H24.3318C24.1819 20.2778 24.0569 20.3999 24.0569 20.5465V22.1953C24.0569 22.3419 24.1819 22.464 24.3318 22.464ZM24.6067 20.8091H25.744V21.9205H24.6067V20.8091ZM27.2186 14.0549H20.1954V12.9251H22.6073C22.7198 12.9251 22.8198 12.8579 22.8635 12.7602C22.9072 12.6625 22.8822 12.5465 22.801 12.4671L15.1905 5.07786C15.0842 4.97405 14.9093 4.97405 14.8031 5.07786L7.19251 12.4671C7.11128 12.5465 7.09254 12.6625 7.13003 12.7602C7.17377 12.8579 7.27374 12.9251 7.38621 12.9251H9.79811V14.0549H2.77493C2.62497 14.0549 2.5 14.177 2.5 14.3236V25.9813C2.5 26.1279 2.62497 26.25 2.77493 26.25H27.2251C27.375 26.25 27.5 26.1279 27.5 25.9813V14.3236C27.4938 14.177 27.3686 14.0549 27.2186 14.0549ZM8.0548 12.3877L14.9967 5.64602L21.9386 12.3877H20.0266L15.1965 7.69773C15.1465 7.64888 15.0715 7.61834 14.9965 7.61834C14.9215 7.61834 14.8528 7.64888 14.8028 7.69773L9.96661 12.3877H8.0548ZM16.5653 23.2394H19.6458V24.2043H10.3483V23.2394H16.5653ZM13.7035 22.702V18.6227H16.2903V22.702H13.7035ZM16.8402 22.702V18.3541C16.8402 18.2075 16.7153 18.0854 16.5653 18.0854H13.4286C13.2786 18.0854 13.1537 18.2075 13.1537 18.3541V22.702H10.3481V12.7724L15.0033 8.2656L19.652 12.7724V22.702H16.8402ZM3.05011 14.5921H9.79849V15.7218H3.05011V14.5921ZM8.36141 24.4789V25.7124H3.05011V16.2593H9.79849V24.2041H8.63628C8.48007 24.2103 8.36141 24.3262 8.36141 24.4789ZM21.0833 25.7124H8.91135V24.7476H21.0894V25.7124H21.0833ZM26.9442 25.7124H21.6329V24.4789C21.6329 24.3323 21.508 24.2102 21.358 24.2102H20.1958V16.2591H26.9442L26.9442 25.7124ZM26.9442 15.7218H20.1959V14.5921H26.9442V15.7218ZM5.66225 17.3951H3.97519C3.82523 17.3951 3.70026 17.5172 3.70026 17.6638V19.3126C3.70026 19.4592 3.82523 19.5813 3.97519 19.5813H5.66225C5.81221 19.5813 5.93719 19.4592 5.93719 19.3126V17.6638C5.93719 17.5111 5.81221 17.3951 5.66225 17.3951ZM5.38732 19.0439H4.25011V17.9325H5.38732V19.0439ZM5.66225 20.2714H3.97519C3.82523 20.2714 3.70026 20.3935 3.70026 20.5401V22.1889C3.70026 22.3354 3.82523 22.4576 3.97519 22.4576H5.66225C5.81221 22.4576 5.93719 22.3354 5.93719 22.1889V20.5401C5.93719 20.3935 5.81221 20.2714 5.66225 20.2714ZM5.38732 21.9263H4.25011V20.8149H5.38732V21.9263ZM8.6489 17.3952H6.96184C6.81188 17.3952 6.68691 17.5173 6.68691 17.6639V19.3127C6.68691 19.4592 6.81188 19.5814 6.96184 19.5814H8.6489C8.79886 19.5814 8.92383 19.4592 8.92383 19.3127V17.6639C8.92383 17.5112 8.79886 17.3952 8.6489 17.3952ZM8.37397 19.044H7.23675V17.9325H8.37397V19.044ZM24.3325 19.5814H26.0196C26.1695 19.5814 26.2945 19.4592 26.2945 19.3127V17.6639C26.2945 17.5173 26.1695 17.3952 26.0196 17.3952H24.3325C24.1825 17.3952 24.0576 17.5173 24.0576 17.6639V19.3127C24.0576 19.4592 24.1825 19.5814 24.3325 19.5814ZM24.6074 17.9326H25.7446V19.044H24.6074V17.9326Z" fill="#148CF0"/>
</g>
</svg>
