<svg width="20" height="20" viewBox="0 0 20 20" fill="none" xmlns="http://www.w3.org/2000/svg">
<mask id="mask0_74_318" style="mask-type:alpha" maskUnits="userSpaceOnUse" x="0" y="0" width="20" height="20">
<rect width="20" height="20" fill="#148CF0"/>
</mask>
<g mask="url(#mask0_74_318)">
<path d="M9.99813 7.92877C9.89815 7.92877 9.81484 8.01019 9.81484 8.1079V8.52316L9.67737 8.65751C9.60656 8.72672 9.60656 8.84071 9.67737 8.90991C9.71486 8.94655 9.76068 8.96284 9.80651 8.96284C9.85233 8.96284 9.90232 8.94655 9.93564 8.90991L10.1273 8.72264C10.1606 8.69007 10.1814 8.64529 10.1814 8.59643V8.10788C10.1814 8.01017 10.0981 7.92877 9.99813 7.92877ZM9.99813 7.32215C9.27748 7.32215 8.69429 7.89619 8.69429 8.59643C8.69429 9.29668 9.28164 9.87071 9.99813 9.87071C10.7146 9.87071 11.302 9.29668 11.302 8.59643C11.302 7.89619 10.7188 7.32215 9.99813 7.32215ZM9.99813 9.51644C9.48158 9.51644 9.06087 9.10524 9.06087 8.60043C9.06087 8.0956 9.48161 7.68443 9.99813 7.68443C10.5146 7.68443 10.9354 8.09562 10.9354 8.60043C10.9354 9.10118 10.5146 9.51644 9.99813 9.51644ZM5.76581 13.5144H4.6411C4.54113 13.5144 4.45782 13.5958 4.45782 13.6935V14.7927C4.45782 14.8904 4.54113 14.9719 4.6411 14.9719H5.76581C5.86579 14.9719 5.9491 14.8904 5.9491 14.7927V13.6935C5.9491 13.5958 5.86579 13.5144 5.76581 13.5144ZM5.58252 14.6177H4.82438V13.8767H5.58252V14.6177ZM14.2304 13.0544H15.3551C15.455 13.0544 15.5384 12.9729 15.5384 12.8752V11.776C15.5384 11.6783 15.455 11.5969 15.3551 11.5969H14.2304C14.1304 11.5969 14.0471 11.6783 14.0471 11.776V12.8752C14.0471 12.9729 14.1304 13.0544 14.2304 13.0544ZM14.4136 11.9552H15.1718V12.6961H14.4136V11.9552ZM14.2304 14.9759H15.3551C15.455 14.9759 15.5384 14.8945 15.5384 14.7968V13.6976C15.5384 13.5999 15.455 13.5184 15.3551 13.5184H14.2304C14.1304 13.5184 14.0471 13.5999 14.0471 13.6976V14.7968C14.0471 14.8945 14.1304 14.9759 14.2304 14.9759ZM14.4136 13.8726H15.1718V14.6136H14.4136V13.8726ZM16.2215 14.9759H17.3462C17.4462 14.9759 17.5295 14.8945 17.5295 14.7968V13.6976C17.5295 13.5999 17.4462 13.5184 17.3462 13.5184H16.2215C16.1216 13.5184 16.0382 13.5999 16.0382 13.6976V14.7968C16.0382 14.8945 16.1216 14.9759 16.2215 14.9759ZM16.4048 13.8726H17.163V14.6136H16.4048V13.8726ZM18.1461 9.36982H13.4639V8.61665H15.0719C15.1468 8.61665 15.2135 8.57187 15.2427 8.50673C15.2718 8.44159 15.2552 8.36424 15.201 8.31131L10.1273 3.38516C10.0565 3.31595 9.93984 3.31595 9.86904 3.38516L4.79533 8.31131C4.74118 8.36424 4.72868 8.44159 4.75368 8.50673C4.78284 8.57187 4.84949 8.61665 4.92447 8.61665H6.5324V9.36982H1.85028C1.75031 9.36982 1.66699 9.45124 1.66699 9.54895V17.3208C1.66699 17.4185 1.7503 17.4999 1.85028 17.4999H18.1504C18.2503 17.4999 18.3337 17.4185 18.3337 17.3208V9.54895C18.3295 9.45125 18.246 9.36982 18.1461 9.36982ZM5.37019 8.2584L9.99814 3.76393L14.6261 8.2584H13.3514L10.1313 5.13174C10.098 5.09917 10.048 5.07881 9.99801 5.07881C9.94802 5.07881 9.9022 5.09917 9.86888 5.13174L6.64473 8.2584H5.37019ZM11.0438 15.4929H13.0975V16.1361H6.89917V15.4929H11.0438ZM9.136 15.1346V12.415H10.8606V15.1346H9.136ZM11.2271 15.1346V12.236C11.2271 12.1383 11.1438 12.0568 11.0439 12.0568H8.95271C8.85274 12.0568 8.76943 12.1383 8.76943 12.236V15.1346H6.89907V8.51483L10.0025 5.51032L13.1017 8.51483V15.1346H11.2271ZM2.03373 9.72797H6.53265V10.4811H2.03373V9.72797ZM5.5746 16.3192V17.1415H2.03373V10.8395H6.53265V16.136H5.75785C5.65371 16.1401 5.5746 16.2174 5.5746 16.3192ZM14.0559 17.1415H5.94123V16.4983H14.0599V17.1415H14.0559ZM17.9631 17.1415H14.4223V16.3192C14.4223 16.2215 14.339 16.14 14.239 16.14H13.4642V10.8393H17.9631L17.9631 17.1415ZM17.9631 10.4811H13.4642V9.72797H17.9631V10.4811ZM3.77516 11.5966H2.65045C2.55048 11.5966 2.46717 11.6781 2.46717 11.7758V12.875C2.46717 12.9727 2.55048 13.0541 2.65045 13.0541H3.77516C3.87514 13.0541 3.95845 12.9727 3.95845 12.875V11.7758C3.95845 11.674 3.87514 11.5966 3.77516 11.5966ZM3.59187 12.6959H2.83373V11.9549H3.59187V12.6959ZM3.77516 13.5142H2.65045C2.55048 13.5142 2.46717 13.5956 2.46717 13.6933V14.7925C2.46717 14.8902 2.55048 14.9716 2.65045 14.9716H3.77516C3.87514 14.9716 3.95845 14.8902 3.95845 14.7925V13.6933C3.95845 13.5956 3.87514 13.5142 3.77516 13.5142ZM3.59187 14.6175H2.83373V13.8765H3.59187V14.6175ZM5.76626 11.5967H4.64155C4.54158 11.5967 4.45826 11.6781 4.45826 11.7758V12.875C4.45826 12.9727 4.54158 13.0542 4.64155 13.0542H5.76626C5.86623 13.0542 5.94955 12.9727 5.94955 12.875V11.7758C5.94955 11.674 5.86623 11.5967 5.76626 11.5967ZM5.58297 12.6959H4.82483V11.9549H5.58297V12.6959ZM16.222 13.0542H17.3467C17.4467 13.0542 17.53 12.9727 17.53 12.875V11.7758C17.53 11.6781 17.4467 11.5967 17.3467 11.5967H16.222C16.122 11.5967 16.0387 11.6781 16.0387 11.7758V12.875C16.0387 12.9727 16.122 13.0542 16.222 13.0542ZM16.4053 11.955H17.1634V12.6959H16.4053V11.955Z" fill="#148CF0"/>
</g>
</svg>
