<svg width="26" height="26" viewBox="0 0 26 26" fill="none" xmlns="http://www.w3.org/2000/svg">
<path d="M21.3333 0.5H4.66667C2.37012 0.5 0.5 2.40182 0.5 4.73729V21.2627C0.5 23.5982 2.37012 25.5 4.66667 25.5H21.3333C23.6299 25.5 25.5 23.5982 25.5 21.2627V4.73729C25.5 2.40182 23.6299 0.5 21.3333 0.5ZM12.1667 23.8051H4.66667C3.28808 23.8051 2.16667 22.6647 2.16667 21.2627V17.4492H12.1667V23.8051ZM12.1667 15.7542H2.16667V9.82203H12.1667V15.7542ZM23.8333 21.2627C23.8333 22.6647 22.7119 23.8051 21.3333 23.8051H13.8333V17.4492H23.8333V21.2627ZM23.8333 15.7542H13.8333V9.82203H23.8333V15.7542ZM23.8333 8.12712H2.16667V4.73729C2.16667 3.33534 3.28808 2.19492 4.66667 2.19492H21.3333C22.7119 2.19492 23.8333 3.33534 23.8333 4.73729V8.12712Z" fill="#148CF0"/>
</svg>
