<svg width="30" height="30" viewBox="0 0 30 30" fill="none" xmlns="http://www.w3.org/2000/svg">
<mask id="mask0_41_2731" style="mask-type:alpha" maskUnits="userSpaceOnUse" x="0" y="0" width="30" height="30">
<rect width="30" height="30" fill="#148CF0"/>
</mask>
<g mask="url(#mask0_41_2731)">
<path d="M5.86726 18.5128L6.92308 18.5147V26.369C6.92854 26.6738 7.05281 26.9641 7.26865 27.176C7.48449 27.388 7.77428 27.5043 8.07448 27.4996H11.9266C12.2246 27.4977 12.5104 27.379 12.7243 27.1683C12.9382 26.9575 13.0636 26.671 13.0745 26.3686L13.0585 11.4866H15.0089C15.005 11.556 15 11.625 15 11.696L15.0115 17.6337C15.0087 17.7496 15.0291 17.8649 15.0714 17.9726C15.1137 18.0804 15.1771 18.1783 15.2577 18.2604C15.3382 18.3426 15.4344 18.4073 15.5403 18.4507C15.6462 18.494 15.7597 18.5152 15.8738 18.5128L16.9231 18.5146V26.3739C16.9333 26.6819 17.0632 26.9733 17.2844 27.1843C17.5056 27.3953 17.8001 27.5087 18.1034 27.4996H21.9005C22.2017 27.5018 22.4921 27.386 22.7112 27.1762C22.9304 26.9664 23.0614 26.6788 23.0769 26.3734L23.0667 18.5146L24.1254 18.5128C24.2396 18.5153 24.3531 18.4942 24.459 18.451C24.5649 18.4077 24.6611 18.343 24.7418 18.261C24.8225 18.1789 24.8859 18.081 24.9283 17.9734C24.9707 17.8657 24.9912 17.7504 24.9885 17.6344L25 11.6953C25 9.9887 23.8447 8.75 22.253 8.75H7.71484C6.14182 8.75 5 9.9887 5 11.696L5.01127 17.6337C5.00807 17.7492 5.02796 17.8641 5.06972 17.9716C5.11149 18.0791 5.17427 18.1769 5.25426 18.259C5.33426 18.3412 5.42983 18.406 5.53519 18.4496C5.64054 18.4932 5.75351 18.5147 5.86726 18.5128ZM19.0385 9.53123H22.253C23.612 9.53123 24.2308 10.653 24.2308 11.6945L24.2193 17.6337C24.2193 17.7241 24.1748 17.7315 24.1247 17.7315L23.0656 17.7334L23.06 13.4369C23.0599 13.3334 23.0193 13.2342 22.9472 13.161C22.8751 13.0879 22.7773 13.0468 22.6754 13.0468H22.6748C22.6243 13.0469 22.5743 13.057 22.5277 13.0767C22.4811 13.0964 22.4387 13.1252 22.403 13.1615C22.3674 13.1979 22.3391 13.241 22.3198 13.2884C22.3006 13.3358 22.2907 13.3866 22.2908 13.4379L22.3077 26.3682C22.2923 26.4664 22.2428 26.5557 22.168 26.62C22.0933 26.6842 21.9984 26.7191 21.9005 26.7184H20.3846V19.2967C20.3846 19.1931 20.3441 19.0937 20.272 19.0205C20.1998 18.9472 20.102 18.906 20 18.906C19.898 18.906 19.8002 18.9472 19.728 19.0205C19.6559 19.0937 19.6154 19.1931 19.6154 19.2967V26.7184H18.1034C18.0044 26.7258 17.9064 26.6941 17.8298 26.6299C17.7532 26.5658 17.704 26.4741 17.6923 26.3739V13.4374C17.6923 13.3338 17.6518 13.2345 17.5797 13.1612C17.5075 13.0879 17.4097 13.0468 17.3077 13.0468C17.2057 13.0468 17.1079 13.0879 17.0357 13.1612C16.9636 13.2345 16.9231 13.3338 16.9231 13.4374V17.7333L15.8746 17.7315C15.8252 17.7315 15.7807 17.7241 15.7807 17.6329L15.7692 11.6953C15.7692 10.653 16.388 9.53123 17.747 9.53123H19.0385ZM7.71484 9.53123H15.8299C15.5098 9.85945 15.2744 10.2627 15.1444 10.7054H12.715C12.6613 10.6994 12.6069 10.7051 12.5555 10.7219C12.5041 10.7388 12.4567 10.7664 12.4165 10.8031C12.3763 10.8398 12.3442 10.8846 12.3222 10.9348C12.3002 10.9849 12.2889 11.0392 12.2889 11.0941L12.3053 26.3634C12.2947 26.4589 12.2506 26.5474 12.1811 26.6125C12.1115 26.6777 12.0212 26.7153 11.9266 26.7184H10.3846V19.1014C10.3846 18.9978 10.3441 18.8984 10.272 18.8251C10.1998 18.7519 10.102 18.7107 10 18.7107C9.89799 18.7107 9.80017 18.7519 9.72804 18.8251C9.65591 18.8984 9.61538 18.9978 9.61538 19.1014V26.7184H8.07448C7.97857 26.7219 7.88507 26.6875 7.81374 26.6223C7.74241 26.557 7.69887 26.4662 7.69231 26.369V13.1503C7.69231 13.0467 7.65179 12.9473 7.57966 12.8741C7.50753 12.8008 7.4097 12.7596 7.30769 12.7596C7.20569 12.7596 7.10786 12.8008 7.03573 12.8741C6.9636 12.9473 6.92308 13.0467 6.92308 13.1503V17.7335L5.86801 17.7315C5.83102 17.7315 5.7805 17.7315 5.7805 17.6329L5.76923 11.6953C5.76923 10.653 6.37808 9.53123 7.71484 9.53123Z" fill="#148CF0"/>
<path d="M20.1924 8.35926C20.7629 8.35926 21.3206 8.18744 21.795 7.86553C22.2693 7.54362 22.6391 7.08607 22.8574 6.55075C23.0757 6.01543 23.1328 5.42638 23.0215 4.85809C22.9102 4.2898 22.6355 3.76779 22.2321 3.35807C21.8287 2.94835 21.3147 2.66933 20.7551 2.55629C20.1956 2.44325 19.6156 2.50127 19.0885 2.72301C18.5614 2.94474 18.1108 3.32024 17.7939 3.80202C17.4769 4.28379 17.3077 4.8502 17.3077 5.42963C17.3086 6.20635 17.6128 6.95101 18.1536 7.50024C18.6943 8.04946 19.4276 8.3584 20.1924 8.35926ZM20.1924 3.28124C20.6107 3.28124 21.0197 3.40724 21.3676 3.64331C21.7155 3.87937 21.9866 4.21491 22.1467 4.60748C22.3068 5.00004 22.3487 5.43201 22.2671 5.84876C22.1855 6.26551 21.984 6.64832 21.6882 6.94878C21.3923 7.24923 21.0154 7.45385 20.605 7.53674C20.1947 7.61964 19.7694 7.5771 19.3828 7.41449C18.9963 7.25188 18.6659 6.97652 18.4335 6.62321C18.201 6.26991 18.077 5.85454 18.077 5.42963C18.0776 4.86004 18.3007 4.31396 18.6973 3.9112C19.0938 3.50843 19.6315 3.28188 20.1924 3.28124Z" fill="#148CF0"/>
<path d="M9.80783 8.35926C10.3784 8.35926 10.9361 8.18744 11.4104 7.86553C11.8848 7.54362 12.2545 7.08607 12.4729 6.55075C12.6912 6.01543 12.7483 5.42638 12.637 4.85809C12.5257 4.2898 12.251 3.76779 11.8476 3.35807C11.4441 2.94835 10.9302 2.66933 10.3706 2.55629C9.81103 2.44325 9.23103 2.50127 8.70394 2.72301C8.17684 2.94474 7.72633 3.32024 7.40936 3.80202C7.0924 4.28379 6.92322 4.8502 6.92322 5.42963C6.92407 6.20635 7.22826 6.95101 7.76904 7.50024C8.30983 8.04946 9.04305 8.3584 9.80783 8.35926ZM9.80783 3.28124C10.2262 3.28124 10.6352 3.40724 10.9831 3.64331C11.331 3.87937 11.6021 4.21491 11.7622 4.60748C11.9223 5.00004 11.9642 5.43201 11.8826 5.84876C11.8009 6.26551 11.5995 6.64832 11.3036 6.94878C11.0078 7.24923 10.6309 7.45385 10.2205 7.53674C9.81018 7.61964 9.38485 7.5771 8.99831 7.41449C8.61177 7.25188 8.2814 6.97652 8.04896 6.62321C7.81651 6.26991 7.69245 5.85454 7.69245 5.42963C7.69308 4.86004 7.91616 4.31396 8.31273 3.9112C8.7093 3.50843 9.24699 3.28188 9.80783 3.28124Z" fill="#148CF0"/>
<path d="M9.80793 7.02585C9.95952 7.02623 10.1097 6.99607 10.2497 6.9371C10.3898 6.87814 10.5169 6.79155 10.6237 6.68234C10.6955 6.60903 10.7358 6.50978 10.7356 6.40638C10.7355 6.30297 10.695 6.20384 10.623 6.13072C10.551 6.0576 10.4534 6.01646 10.3516 6.01633C10.2498 6.01619 10.1521 6.05706 10.0799 6.12998C10.0067 6.20113 9.90925 6.24085 9.80793 6.24085C9.70661 6.24085 9.6092 6.20113 9.536 6.12998C9.46383 6.05697 9.36608 6.01601 9.26421 6.01611C9.16234 6.01621 9.06468 6.05735 8.99264 6.13051C8.92061 6.20367 8.8801 6.30286 8.88001 6.40632C8.87991 6.50978 8.92023 6.60905 8.99213 6.68234C9.09898 6.79155 9.22611 6.87814 9.36614 6.9371C9.50618 6.99607 9.65634 7.02623 9.80793 7.02585Z" fill="#148CF0"/>
<path d="M20.1925 7.02585C20.344 7.02623 20.4942 6.99607 20.6342 6.9371C20.7743 6.87814 20.9014 6.79155 21.0083 6.68234C21.0801 6.60903 21.1203 6.50978 21.1202 6.40638C21.12 6.30297 21.0795 6.20384 21.0075 6.13072C20.9355 6.0576 20.8379 6.01646 20.7361 6.01633C20.6343 6.01619 20.5366 6.05706 20.4644 6.12998C20.3912 6.20113 20.2938 6.24085 20.1925 6.24085C20.0911 6.24085 19.9937 6.20113 19.9205 6.12998C19.8483 6.05697 19.7506 6.01601 19.6487 6.01611C19.5469 6.01621 19.4492 6.05735 19.3772 6.13051C19.3051 6.20367 19.2646 6.30286 19.2645 6.40632C19.2644 6.50978 19.3048 6.60905 19.3766 6.68234C19.4835 6.79155 19.6106 6.87814 19.7507 6.9371C19.8907 6.99607 20.0409 7.02623 20.1925 7.02585Z" fill="#148CF0"/>
</g>
</svg>
