<svg width="30" height="30" viewBox="0 0 30 30" fill="none" xmlns="http://www.w3.org/2000/svg">
<mask id="mask0_39_2585" style="mask-type:alpha" maskUnits="userSpaceOnUse" x="0" y="0" width="30" height="30">
<rect width="30" height="30" fill="#D9D9D9"/>
</mask>
<g mask="url(#mask0_39_2585)">
<path d="M18.125 25.9375H15.7812C15.367 25.9371 14.9698 25.7723 14.6769 25.4794C14.3839 25.1864 14.2192 24.7893 14.2188 24.375V20.4688H15.7812V24.375H18.125V20.4688H19.6875V17.3438C19.6873 17.1366 19.6049 16.938 19.4584 16.7916C19.312 16.6451 19.1134 16.5627 18.9062 16.5625H12.0932L10.5307 11.875H5.625C5.41787 11.8752 5.21929 11.9576 5.07282 12.1041C4.92636 12.2505 4.84398 12.4491 4.84375 12.6563V17.3438H6.40625V24.375H9.53125V18.9063H11.0938V24.375C11.0933 24.7893 10.9286 25.1864 10.6356 25.4794C10.3427 25.7723 9.94552 25.9371 9.53125 25.9375H6.40625C5.99198 25.9371 5.59481 25.7723 5.30188 25.4794C5.00894 25.1864 4.84418 24.7893 4.84375 24.375V18.9063C4.42948 18.9058 4.03231 18.7411 3.73938 18.4481C3.44644 18.1552 3.28168 17.758 3.28125 17.3438V12.6563C3.28193 12.0349 3.52908 11.4391 3.96847 10.9997C4.40786 10.5603 5.00361 10.3132 5.625 10.3125H10.5307C10.8587 10.3122 11.1785 10.4153 11.4446 10.6071C11.7107 10.7988 11.9096 11.0695 12.0131 11.3808L13.2193 15H18.9062C19.5276 15.0007 20.1234 15.2478 20.5628 15.6872C21.0022 16.1266 21.2493 16.7224 21.25 17.3438V20.4688C21.2496 20.883 21.0848 21.2802 20.7919 21.5731C20.4989 21.8661 20.1018 22.0308 19.6875 22.0313V24.375C19.6871 24.7893 19.5223 25.1864 19.2294 25.4794C18.9364 25.7723 18.5393 25.9371 18.125 25.9375Z" fill="#148CF0"/>
<path d="M24.375 25.9375H22.8125V17.3438H25.1562V12.6562C25.156 12.4491 25.0736 12.2505 24.9272 12.1041C24.7807 11.9576 24.5821 11.8752 24.375 11.875H21.25V10.3125H24.375C24.9964 10.3132 25.5921 10.5603 26.0315 10.9997C26.4709 11.4391 26.7181 12.0349 26.7188 12.6562V17.3438C26.7183 17.758 26.5536 18.1552 26.2606 18.4481C25.9677 18.7411 25.5705 18.9058 25.1562 18.9062H24.375V25.9375Z" fill="#148CF0"/>
<path d="M7.96875 9.53125C7.35068 9.53125 6.7465 9.34797 6.23259 9.00459C5.71869 8.66121 5.31815 8.17316 5.08163 7.60214C4.8451 7.03112 4.78322 6.40278 4.9038 5.79659C5.02438 5.1904 5.322 4.63358 5.75904 4.19654C6.19608 3.7595 6.7529 3.46188 7.35909 3.3413C7.96528 3.22072 8.59362 3.2826 9.16464 3.51913C9.73566 3.75565 10.2237 4.15619 10.5671 4.67009C10.9105 5.184 11.0938 5.78818 11.0938 6.40625C11.0928 7.23477 10.7633 8.02908 10.1774 8.61493C9.59158 9.20078 8.79727 9.53032 7.96875 9.53125ZM7.96875 4.84375C7.65972 4.84375 7.35762 4.93539 7.10067 5.10708C6.84372 5.27877 6.64345 5.5228 6.52519 5.80831C6.40693 6.09382 6.37598 6.40798 6.43627 6.71108C6.49656 7.01418 6.64538 7.29259 6.8639 7.51111C7.08242 7.72963 7.36083 7.87844 7.66392 7.93873C7.96702 7.99902 8.28118 7.96807 8.56669 7.84981C8.8522 7.73155 9.09623 7.53128 9.26792 7.27433C9.43961 7.01738 9.53125 6.71528 9.53125 6.40625C9.53082 5.99198 9.36606 5.59481 9.07313 5.30188C8.78019 5.00895 8.38302 4.84419 7.96875 4.84375Z" fill="#148CF0"/>
<path d="M22.0313 9.53125C21.4132 9.53125 20.809 9.34797 20.2951 9.00459C19.7812 8.66121 19.3807 8.17316 19.1441 7.60214C18.9076 7.03112 18.8457 6.40278 18.9663 5.79659C19.0869 5.1904 19.3845 4.63358 19.8215 4.19654C20.2586 3.7595 20.8154 3.46188 21.4216 3.3413C22.0278 3.22072 22.6561 3.2826 23.2271 3.51913C23.7982 3.75565 24.2862 4.15619 24.6296 4.67009C24.973 5.184 25.1563 5.78818 25.1563 6.40625C25.1553 7.23477 24.8258 8.02908 24.2399 8.61493C23.6541 9.20078 22.8598 9.53032 22.0313 9.53125ZM22.0313 4.84375C21.7222 4.84375 21.4201 4.93539 21.1632 5.10708C20.9062 5.27877 20.706 5.5228 20.5877 5.80831C20.4694 6.09382 20.4385 6.40798 20.4988 6.71108C20.5591 7.01418 20.7079 7.29259 20.9264 7.51111C21.1449 7.72963 21.4233 7.87844 21.7264 7.93873C22.0295 7.99902 22.3437 7.96807 22.6292 7.84981C22.9147 7.73155 23.1587 7.53128 23.3304 7.27433C23.5021 7.01738 23.5938 6.71528 23.5938 6.40625C23.5933 5.99198 23.4286 5.59481 23.1356 5.30188C22.8427 5.00895 22.4455 4.84419 22.0313 4.84375Z" fill="#148CF0"/>
<path d="M16.9531 14.2188C16.4123 14.2188 15.8837 14.0584 15.434 13.7579C14.9843 13.4575 14.6339 13.0304 14.4269 12.5308C14.2199 12.0311 14.1658 11.4813 14.2713 10.9509C14.3768 10.4205 14.6372 9.93329 15.0196 9.55088C15.402 9.16847 15.8893 8.90805 16.4197 8.80254C16.9501 8.69704 17.4999 8.75118 17.9995 8.95814C18.4992 9.1651 18.9262 9.51557 19.2267 9.96524C19.5271 10.4149 19.6875 10.9436 19.6875 11.4844C19.6867 12.2093 19.3983 12.9043 18.8857 13.4169C18.3731 13.9295 17.6781 14.2179 16.9531 14.2188ZM16.9531 10.3125C16.7214 10.3125 16.4948 10.3812 16.3021 10.51C16.1094 10.6388 15.9592 10.8218 15.8705 11.0359C15.7818 11.2501 15.7586 11.4857 15.8038 11.713C15.849 11.9403 15.9606 12.1491 16.1245 12.313C16.2884 12.4769 16.4972 12.5885 16.7245 12.6337C16.9518 12.679 17.1875 12.6557 17.4016 12.567C17.6157 12.4784 17.7987 12.3281 17.9275 12.1354C18.0563 11.9427 18.125 11.7162 18.125 11.4844C18.1246 11.1737 18.0011 10.8758 17.7814 10.6561C17.5617 10.4364 17.2638 10.3129 16.9531 10.3125Z" fill="#148CF0"/>
</g>
</svg>
