<svg width="30" height="30" viewBox="0 0 30 30" fill="none" xmlns="http://www.w3.org/2000/svg">
<mask id="mask0_397_43788" style="mask-type:alpha" maskUnits="userSpaceOnUse" x="0" y="0" width="30" height="30">
<rect width="30" height="30" fill="#148CF0"/>
</mask>
<g mask="url(#mask0_397_43788)">
<path d="M14.9995 2.49609C8.10563 2.49609 2.49951 8.10222 2.49951 14.9961C2.49951 21.89 8.10563 27.4961 14.9995 27.4961C21.8934 27.4961 27.4995 21.89 27.4995 14.9961C27.4995 8.10222 21.8934 2.49609 14.9995 2.49609ZM14.9995 4.12653C21.0123 4.12653 25.8691 8.98338 25.8691 14.9961C25.8691 21.0088 21.0123 25.8657 14.9995 25.8657C8.98677 25.8657 4.12995 21.0088 4.12995 14.9961C4.12995 8.98338 8.98677 4.12653 14.9995 4.12653ZM14.9995 6.0287C14.5493 6.0287 14.1843 6.3937 14.1843 6.84392V14.9961C14.1843 15.4463 14.5493 15.8113 14.9995 15.8113H22.6082C23.0584 15.8113 23.4234 15.4463 23.4234 14.9961C23.4234 14.5459 23.0584 14.1809 22.6082 14.1809H15.8147V6.84392C15.8147 6.3937 15.4498 6.0287 14.9995 6.0287Z" fill="#148CF0"/>
</g>
</svg>
