<svg width="30" height="30" viewBox="0 0 30 30" fill="none" xmlns="http://www.w3.org/2000/svg">
<mask id="mask0_52_179" style="mask-type:alpha" maskUnits="userSpaceOnUse" x="0" y="0" width="30" height="30">
<rect width="30" height="30" fill="#148CF0"/>
</mask>
<g mask="url(#mask0_52_179)">
<path d="M23.6719 16.7857C23.7893 16.7857 23.9019 16.7387 23.9849 16.655C24.0679 16.5712 24.1146 16.4577 24.1146 16.3393V8.75H24.5573C24.6747 8.75 24.7873 8.70297 24.8703 8.61924C24.9534 8.53552 25 8.42197 25 8.30357V6.51786C25 5.45226 24.5802 4.4303 23.833 3.6768C23.0858 2.92331 22.0723 2.5 21.0156 2.5H7.73438C6.67765 2.5 5.66421 2.92331 4.917 3.6768C4.16978 4.4303 3.75 5.45226 3.75 6.51786V8.30357C3.75 8.42197 3.79664 8.53552 3.87967 8.61924C3.96269 8.70297 4.07529 8.75 4.19271 8.75H4.63542V16.3393C4.63542 16.4577 4.68206 16.5712 4.76508 16.655C4.84811 16.7387 4.96071 16.7857 5.07812 16.7857C5.19554 16.7857 5.30814 16.7387 5.39117 16.655C5.47419 16.5712 5.52083 16.4577 5.52083 16.3393V15H7.73438C7.85179 15 7.96439 14.953 8.04742 14.8692C8.13044 14.7855 8.17708 14.672 8.17708 14.5536C8.17708 14.4352 8.13044 14.3216 8.04742 14.2379C7.96439 14.1542 7.85179 14.1071 7.73438 14.1071H5.52083V8.75H13.9323V14.1071H11.276C10.689 14.1071 10.126 14.3423 9.71083 14.7609C9.29571 15.1795 9.0625 15.7473 9.0625 16.3393V16.7857H7.73438C6.67765 16.7857 5.66421 17.209 4.917 17.9625C4.16978 18.716 3.75 19.738 3.75 20.8036V24.375C3.75 24.4934 3.79664 24.607 3.87967 24.6907C3.96269 24.7744 4.07529 24.8214 4.19271 24.8214H5.52083V26.1607C5.52083 26.5159 5.66076 26.8566 5.90983 27.1077C6.1589 27.3589 6.49672 27.5 6.84896 27.5H8.61979C8.97203 27.5 9.30985 27.3589 9.55892 27.1077C9.80799 26.8566 9.94792 26.5159 9.94792 26.1607V24.8214H18.8021V26.1607C18.8021 26.5159 18.942 26.8566 19.1911 27.1077C19.4402 27.3589 19.778 27.5 20.1302 27.5H21.901C22.2533 27.5 22.5911 27.3589 22.8402 27.1077C23.0892 26.8566 23.2292 26.5159 23.2292 26.1607V24.8214H24.5573C24.6747 24.8214 24.7873 24.7744 24.8703 24.6907C24.9534 24.607 25 24.4934 25 24.375V20.8036C25 19.738 24.5802 18.716 23.833 17.9625C23.0858 17.209 22.0723 16.7857 21.0156 16.7857H19.6875V16.3393C19.6875 15.7473 19.4543 15.1795 19.0392 14.7609C18.624 14.3423 18.061 14.1071 17.474 14.1071H14.8177V8.75H23.2292V14.1071H21.0156C20.8982 14.1071 20.7856 14.1542 20.7026 14.2379C20.6196 14.3216 20.5729 14.4352 20.5729 14.5536C20.5729 14.672 20.6196 14.7855 20.7026 14.8692C20.7856 14.953 20.8982 15 21.0156 15H23.2292V16.3393C23.2292 16.4577 23.2758 16.5712 23.3588 16.655C23.4419 16.7387 23.5545 16.7857 23.6719 16.7857ZM9.0625 26.1607C9.0625 26.2791 9.01586 26.3927 8.93283 26.4764C8.84981 26.5601 8.73721 26.6071 8.61979 26.6071H6.84896C6.73154 26.6071 6.61894 26.5601 6.53592 26.4764C6.45289 26.3927 6.40625 26.2791 6.40625 26.1607V24.8214H9.0625V26.1607ZM22.3438 26.1607C22.3438 26.2791 22.2971 26.3927 22.2141 26.4764C22.1311 26.5601 22.0185 26.6071 21.901 26.6071H20.1302C20.0128 26.6071 19.9002 26.5601 19.8172 26.4764C19.7341 26.3927 19.6875 26.2791 19.6875 26.1607V24.8214H22.3438V26.1607ZM24.1146 20.8036V23.9286H4.63542V20.8036C4.63542 19.9748 4.96191 19.1799 5.54308 18.5939C6.12425 18.0078 6.91248 17.6786 7.73438 17.6786H21.0156C21.8375 17.6786 22.6258 18.0078 23.2069 18.5939C23.7881 19.1799 24.1146 19.9748 24.1146 20.8036ZM18.8021 16.3393V16.7857H9.94792V16.3393C9.94792 15.9841 10.0878 15.6434 10.3369 15.3923C10.586 15.1411 10.9238 15 11.276 15H17.474C17.8262 15 18.164 15.1411 18.4131 15.3923C18.6622 15.6434 18.8021 15.9841 18.8021 16.3393ZM4.63542 6.51786C4.63542 5.68906 4.96191 4.8942 5.54308 4.30815C6.12425 3.7221 6.91248 3.39286 7.73438 3.39286H21.0156C21.8375 3.39286 22.6258 3.7221 23.2069 4.30815C23.7881 4.8942 24.1146 5.68906 24.1146 6.51786V7.85714H4.63542V6.51786Z" fill="#148CF0"/>
<path d="M9.50521 19.4639H7.73438C7.38213 19.4639 7.04432 19.605 6.79525 19.8561C6.54618 20.1073 6.40625 20.448 6.40625 20.8032V21.696C6.40625 22.0512 6.54618 22.3919 6.79525 22.643C7.04432 22.8942 7.38213 23.0353 7.73438 23.0353H9.50521C9.85745 23.0353 10.1953 22.8942 10.4443 22.643C10.6934 22.3919 10.8333 22.0512 10.8333 21.696V20.8032C10.8333 20.448 10.6934 20.1073 10.4443 19.8561C10.1953 19.605 9.85745 19.4639 9.50521 19.4639ZM9.94792 21.696C9.94792 21.8144 9.90127 21.928 9.81825 22.0117C9.73523 22.0954 9.62262 22.1424 9.50521 22.1424H7.73438C7.61696 22.1424 7.50436 22.0954 7.42133 22.0117C7.33831 21.928 7.29167 21.8144 7.29167 21.696V20.8032C7.29167 20.6848 7.33831 20.5712 7.42133 20.4875C7.50436 20.4038 7.61696 20.3567 7.73438 20.3567H9.50521C9.62262 20.3567 9.73523 20.4038 9.81825 20.4875C9.90127 20.5712 9.94792 20.6848 9.94792 20.8032V21.696Z" fill="#148CF0"/>
<path d="M17.917 20.8032V21.696C17.917 22.0512 18.0569 22.3919 18.306 22.643C18.5551 22.8942 18.8929 23.0353 19.2451 23.0353H21.016C21.3682 23.0353 21.706 22.8942 21.9551 22.643C22.2041 22.3919 22.3441 22.0512 22.3441 21.696V20.8032C22.3441 20.448 22.2041 20.1073 21.9551 19.8561C21.706 19.605 21.3682 19.4639 21.016 19.4639H19.2451C18.8929 19.4639 18.5551 19.605 18.306 19.8561C18.0569 20.1073 17.917 20.448 17.917 20.8032ZM21.4587 20.8032V21.696C21.4587 21.8144 21.412 21.928 21.329 22.0117C21.246 22.0954 21.1334 22.1424 21.016 22.1424H19.2451C19.1277 22.1424 19.0151 22.0954 18.9321 22.0117C18.8491 21.928 18.8024 21.8144 18.8024 21.696V20.8032C18.8024 20.6848 18.8491 20.5712 18.9321 20.4875C19.0151 20.4038 19.1277 20.3567 19.2451 20.3567H21.016C21.1334 20.3567 21.246 20.4038 21.329 20.4875C21.412 20.5712 21.4587 20.6848 21.4587 20.8032Z" fill="#148CF0"/>
<path d="M16.5885 20.3569H12.1615C12.044 20.3569 11.9314 20.404 11.8484 20.4877C11.7654 20.5714 11.7188 20.685 11.7188 20.8034C11.7188 20.9218 11.7654 21.0353 11.8484 21.119C11.9314 21.2028 12.044 21.2498 12.1615 21.2498H16.5885C16.706 21.2498 16.8186 21.2028 16.9016 21.119C16.9846 21.0353 17.0312 20.9218 17.0312 20.8034C17.0312 20.685 16.9846 20.5714 16.9016 20.4877C16.8186 20.404 16.706 20.3569 16.5885 20.3569Z" fill="#148CF0"/>
<path d="M16.5885 18.5713H12.1615C12.044 18.5713 11.9314 18.6183 11.8484 18.702C11.7654 18.7858 11.7188 18.8993 11.7188 19.0177C11.7188 19.1361 11.7654 19.2497 11.8484 19.3334C11.9314 19.4171 12.044 19.4641 12.1615 19.4641H16.5885C16.706 19.4641 16.8186 19.4171 16.9016 19.3334C16.9846 19.2497 17.0312 19.1361 17.0312 19.0177C17.0312 18.8993 16.9846 18.7858 16.9016 18.702C16.8186 18.6183 16.706 18.5713 16.5885 18.5713Z" fill="#148CF0"/>
<path d="M6.84896 6.9647H10.3906C10.508 6.9647 10.6206 6.91767 10.7037 6.83395C10.7867 6.75023 10.8333 6.63668 10.8333 6.51828V4.73256C10.8333 4.61416 10.7867 4.50061 10.7037 4.41689C10.6206 4.33317 10.508 4.28613 10.3906 4.28613H6.84896C6.73154 4.28613 6.61894 4.33317 6.53592 4.41689C6.45289 4.50061 6.40625 4.61416 6.40625 4.73256V6.51828C6.40625 6.63668 6.45289 6.75023 6.53592 6.83395C6.61894 6.91767 6.73154 6.9647 6.84896 6.9647ZM7.29167 5.17899H9.94792V6.07185H7.29167V5.17899Z" fill="#148CF0"/>
<path d="M18.3597 6.9647H21.9014C22.0188 6.9647 22.1314 6.91767 22.2144 6.83395C22.2974 6.75023 22.3441 6.63668 22.3441 6.51828V4.73256C22.3441 4.61416 22.2974 4.50061 22.2144 4.41689C22.1314 4.33317 22.0188 4.28613 21.9014 4.28613H18.3597C18.2423 4.28613 18.1297 4.33317 18.0467 4.41689C17.9636 4.50061 17.917 4.61416 17.917 4.73256V6.51828C17.917 6.63668 17.9636 6.75023 18.0467 6.83395C18.1297 6.91767 18.2423 6.9647 18.3597 6.9647ZM18.8024 5.17899H21.4587V6.07185H18.8024V5.17899Z" fill="#148CF0"/>
</g>
</svg>
