<svg width="22" height="26" viewBox="0 0 22 26" fill="none" xmlns="http://www.w3.org/2000/svg">
<path d="M20.6719 14.7857C20.7893 14.7857 20.9019 14.7387 20.9849 14.655C21.0679 14.5712 21.1146 14.4577 21.1146 14.3393V6.75H21.5573C21.6747 6.75 21.7873 6.70297 21.8703 6.61924C21.9534 6.53552 22 6.42197 22 6.30357V4.51786C22 3.45226 21.5802 2.4303 20.833 1.6768C20.0858 0.923309 19.0723 0.5 18.0156 0.5H4.73438C3.67765 0.5 2.66421 0.923309 1.917 1.6768C1.16978 2.4303 0.75 3.45226 0.75 4.51786V6.30357C0.75 6.42197 0.796642 6.53552 0.879666 6.61924C0.96269 6.70297 1.07529 6.75 1.19271 6.75H1.63542V14.3393C1.63542 14.4577 1.68206 14.5712 1.76508 14.655C1.84811 14.7387 1.96071 14.7857 2.07812 14.7857C2.19554 14.7857 2.30814 14.7387 2.39117 14.655C2.47419 14.5712 2.52083 14.4577 2.52083 14.3393V13H4.73438C4.85179 13 4.96439 12.953 5.04742 12.8692C5.13044 12.7855 5.17708 12.672 5.17708 12.5536C5.17708 12.4352 5.13044 12.3216 5.04742 12.2379C4.96439 12.1542 4.85179 12.1071 4.73438 12.1071H2.52083V6.75H10.9323V12.1071H8.27604C7.68897 12.1071 7.12595 12.3423 6.71083 12.7609C6.29571 13.1795 6.0625 13.7473 6.0625 14.3393V14.7857H4.73438C3.67765 14.7857 2.66421 15.209 1.917 15.9625C1.16978 16.716 0.75 17.738 0.75 18.8036V22.375C0.75 22.4934 0.796642 22.607 0.879666 22.6907C0.96269 22.7744 1.07529 22.8214 1.19271 22.8214H2.52083V24.1607C2.52083 24.5159 2.66076 24.8566 2.90983 25.1077C3.1589 25.3589 3.49672 25.5 3.84896 25.5H5.61979C5.97203 25.5 6.30985 25.3589 6.55892 25.1077C6.80799 24.8566 6.94792 24.5159 6.94792 24.1607V22.8214H15.8021V24.1607C15.8021 24.5159 15.942 24.8566 16.1911 25.1077C16.4402 25.3589 16.778 25.5 17.1302 25.5H18.901C19.2533 25.5 19.5911 25.3589 19.8402 25.1077C20.0892 24.8566 20.2292 24.5159 20.2292 24.1607V22.8214H21.5573C21.6747 22.8214 21.7873 22.7744 21.8703 22.6907C21.9534 22.607 22 22.4934 22 22.375V18.8036C22 17.738 21.5802 16.716 20.833 15.9625C20.0858 15.209 19.0723 14.7857 18.0156 14.7857H16.6875V14.3393C16.6875 13.7473 16.4543 13.1795 16.0392 12.7609C15.624 12.3423 15.061 12.1071 14.474 12.1071H11.8177V6.75H20.2292V12.1071H18.0156C17.8982 12.1071 17.7856 12.1542 17.7026 12.2379C17.6196 12.3216 17.5729 12.4352 17.5729 12.5536C17.5729 12.672 17.6196 12.7855 17.7026 12.8692C17.7856 12.953 17.8982 13 18.0156 13H20.2292V14.3393C20.2292 14.4577 20.2758 14.5712 20.3588 14.655C20.4419 14.7387 20.5545 14.7857 20.6719 14.7857ZM6.0625 24.1607C6.0625 24.2791 6.01586 24.3927 5.93283 24.4764C5.84981 24.5601 5.73721 24.6071 5.61979 24.6071H3.84896C3.73154 24.6071 3.61894 24.5601 3.53592 24.4764C3.45289 24.3927 3.40625 24.2791 3.40625 24.1607V22.8214H6.0625V24.1607ZM19.3438 24.1607C19.3438 24.2791 19.2971 24.3927 19.2141 24.4764C19.1311 24.5601 19.0185 24.6071 18.901 24.6071H17.1302C17.0128 24.6071 16.9002 24.5601 16.8172 24.4764C16.7341 24.3927 16.6875 24.2791 16.6875 24.1607V22.8214H19.3438V24.1607ZM21.1146 18.8036V21.9286H1.63542V18.8036C1.63542 17.9748 1.96191 17.1799 2.54308 16.5939C3.12425 16.0078 3.91248 15.6786 4.73438 15.6786H18.0156C18.8375 15.6786 19.6258 16.0078 20.2069 16.5939C20.7881 17.1799 21.1146 17.9748 21.1146 18.8036ZM15.8021 14.3393V14.7857H6.94792V14.3393C6.94792 13.9841 7.08784 13.6434 7.33692 13.3923C7.58599 13.1411 7.9238 13 8.27604 13H14.474C14.8262 13 15.164 13.1411 15.4131 13.3923C15.6622 13.6434 15.8021 13.9841 15.8021 14.3393ZM1.63542 4.51786C1.63542 3.68906 1.96191 2.8942 2.54308 2.30815C3.12425 1.7221 3.91248 1.39286 4.73438 1.39286H18.0156C18.8375 1.39286 19.6258 1.7221 20.2069 2.30815C20.7881 2.8942 21.1146 3.68906 21.1146 4.51786V5.85714H1.63542V4.51786Z" fill="#148CF0"/>
<path d="M6.50521 17.4639H4.73438C4.38213 17.4639 4.04432 17.605 3.79525 17.8561C3.54618 18.1073 3.40625 18.448 3.40625 18.8032V19.696C3.40625 20.0512 3.54618 20.3919 3.79525 20.643C4.04432 20.8942 4.38213 21.0353 4.73438 21.0353H6.50521C6.85745 21.0353 7.19526 20.8942 7.44433 20.643C7.69341 20.3919 7.83333 20.0512 7.83333 19.696V18.8032C7.83333 18.448 7.69341 18.1073 7.44433 17.8561C7.19526 17.605 6.85745 17.4639 6.50521 17.4639ZM6.94792 19.696C6.94792 19.8144 6.90127 19.928 6.81825 20.0117C6.73523 20.0954 6.62262 20.1424 6.50521 20.1424H4.73438C4.61696 20.1424 4.50436 20.0954 4.42133 20.0117C4.33831 19.928 4.29167 19.8144 4.29167 19.696V18.8032C4.29167 18.6848 4.33831 18.5712 4.42133 18.4875C4.50436 18.4038 4.61696 18.3567 4.73438 18.3567H6.50521C6.62262 18.3567 6.73523 18.4038 6.81825 18.4875C6.90127 18.5712 6.94792 18.6848 6.94792 18.8032V19.696Z" fill="#148CF0"/>
<path d="M14.9165 18.8032V19.696C14.9165 20.0512 15.0564 20.3919 15.3055 20.643C15.5546 20.8942 15.8924 21.0353 16.2446 21.0353H18.0155C18.3677 21.0353 18.7055 20.8942 18.9546 20.643C19.2037 20.3919 19.3436 20.0512 19.3436 19.696V18.8032C19.3436 18.448 19.2037 18.1073 18.9546 17.8561C18.7055 17.605 18.3677 17.4639 18.0155 17.4639H16.2446C15.8924 17.4639 15.5546 17.605 15.3055 17.8561C15.0564 18.1073 14.9165 18.448 14.9165 18.8032ZM18.4582 18.8032V19.696C18.4582 19.8144 18.4115 19.928 18.3285 20.0117C18.2455 20.0954 18.1329 20.1424 18.0155 20.1424H16.2446C16.1272 20.1424 16.0146 20.0954 15.9316 20.0117C15.8486 19.928 15.8019 19.8144 15.8019 19.696V18.8032C15.8019 18.6848 15.8486 18.5712 15.9316 18.4875C16.0146 18.4038 16.1272 18.3567 16.2446 18.3567H18.0155C18.1329 18.3567 18.2455 18.4038 18.3285 18.4875C18.4115 18.5712 18.4582 18.6848 18.4582 18.8032Z" fill="#148CF0"/>
<path d="M13.5885 18.3569H9.16146C9.04404 18.3569 8.93144 18.404 8.84842 18.4877C8.76539 18.5714 8.71875 18.685 8.71875 18.8034C8.71875 18.9218 8.76539 19.0353 8.84842 19.119C8.93144 19.2028 9.04404 19.2498 9.16146 19.2498H13.5885C13.706 19.2498 13.8186 19.2028 13.9016 19.119C13.9846 19.0353 14.0312 18.9218 14.0312 18.8034C14.0312 18.685 13.9846 18.5714 13.9016 18.4877C13.8186 18.404 13.706 18.3569 13.5885 18.3569Z" fill="#148CF0"/>
<path d="M13.5885 16.5713H9.16146C9.04404 16.5713 8.93144 16.6183 8.84842 16.702C8.76539 16.7858 8.71875 16.8993 8.71875 17.0177C8.71875 17.1361 8.76539 17.2497 8.84842 17.3334C8.93144 17.4171 9.04404 17.4641 9.16146 17.4641H13.5885C13.706 17.4641 13.8186 17.4171 13.9016 17.3334C13.9846 17.2497 14.0312 17.1361 14.0312 17.0177C14.0312 16.8993 13.9846 16.7858 13.9016 16.702C13.8186 16.6183 13.706 16.5713 13.5885 16.5713Z" fill="#148CF0"/>
<path d="M3.84896 4.9647H7.39062C7.50804 4.9647 7.62064 4.91767 7.70367 4.83395C7.78669 4.75023 7.83333 4.63668 7.83333 4.51828V2.73256C7.83333 2.61416 7.78669 2.50061 7.70367 2.41689C7.62064 2.33317 7.50804 2.28613 7.39062 2.28613H3.84896C3.73154 2.28613 3.61894 2.33317 3.53592 2.41689C3.45289 2.50061 3.40625 2.61416 3.40625 2.73256V4.51828C3.40625 4.63668 3.45289 4.75023 3.53592 4.83395C3.61894 4.91767 3.73154 4.9647 3.84896 4.9647ZM4.29167 3.17899H6.94792V4.07185H4.29167V3.17899Z" fill="#148CF0"/>
<path d="M15.3592 4.9647H18.9009C19.0183 4.9647 19.1309 4.91767 19.2139 4.83395C19.2969 4.75023 19.3436 4.63668 19.3436 4.51828V2.73256C19.3436 2.61416 19.2969 2.50061 19.2139 2.41689C19.1309 2.33317 19.0183 2.28613 18.9009 2.28613H15.3592C15.2418 2.28613 15.1292 2.33317 15.0462 2.41689C14.9631 2.50061 14.9165 2.61416 14.9165 2.73256V4.51828C14.9165 4.63668 14.9631 4.75023 15.0462 4.83395C15.1292 4.91767 15.2418 4.9647 15.3592 4.9647ZM15.8019 3.17899H18.4582V4.07185H15.8019V3.17899Z" fill="#148CF0"/>
</svg>
