<svg width="24" height="24" viewBox="0 0 24 24" fill="none" xmlns="http://www.w3.org/2000/svg">
<mask id="mask0_143_5420" style="mask-type:alpha" maskUnits="userSpaceOnUse" x="0" y="0" width="24" height="24">
<rect width="24" height="24" fill="#D13650"/>
</mask>
<g mask="url(#mask0_143_5420)">
<path d="M12.6308 16.5684C12.6113 16.521 12.5879 16.4736 12.5568 16.4301C12.5295 16.3867 12.4983 16.3472 12.4593 16.3116C12.4242 16.2761 12.3853 16.2405 12.3424 16.2129C12.2995 16.1852 12.2566 16.1615 12.2098 16.1417C12.1631 16.118 12.1124 16.1062 12.0617 16.0943C11.9604 16.0746 11.859 16.0746 11.7577 16.0943C11.707 16.1062 11.6602 16.118 11.6135 16.1417C11.5667 16.1615 11.5199 16.1852 11.477 16.2129C11.4341 16.2405 11.3952 16.2761 11.3601 16.3116C11.3211 16.3472 11.2899 16.3867 11.2626 16.4301C11.2354 16.4736 11.2081 16.521 11.1886 16.5684C11.1691 16.6158 11.1574 16.6632 11.1457 16.7146C11.134 16.7659 11.1301 16.8173 11.1301 16.8687C11.1301 17.082 11.212 17.2795 11.3601 17.4297C11.5043 17.5758 11.7031 17.6588 11.9097 17.6588C11.9604 17.6588 12.0149 17.6548 12.0617 17.643C12.1124 17.6351 12.1631 17.6193 12.2098 17.5995C12.2566 17.5798 12.2995 17.5561 12.3424 17.5284C12.3852 17.4968 12.4242 17.4652 12.4593 17.4297C12.6074 17.2795 12.6893 17.082 12.6893 16.8687C12.6893 16.8173 12.6854 16.7659 12.6737 16.7146C12.6659 16.6632 12.6503 16.6158 12.6308 16.5684ZM21.8162 18.9289L13.1834 3.69432C12.9368 3.25974 12.4944 3 12.0004 3C11.5063 3 11.0639 3.25876 10.8174 3.69432L2.18357 18.9289C1.938 19.3615 1.93898 19.878 2.18552 20.3096C2.43206 20.7422 2.8735 21 3.36659 21H20.6334C21.1265 21 21.5679 20.7422 21.8145 20.3096C22.061 19.878 22.062 19.3615 21.8164 18.9289H21.8162ZM20.8017 19.7161C20.7803 19.7536 20.7306 19.8148 20.6332 19.8148H3.36634C3.2689 19.8148 3.21822 19.7536 3.19776 19.7161C3.1773 19.6795 3.14904 19.6054 3.19776 19.5185L11.8305 4.28396C11.8793 4.19704 11.9572 4.18519 11.9991 4.18519C12.041 4.18519 12.119 4.19803 12.1677 4.28396L20.8015 19.5185C20.8512 19.6054 20.8232 19.6795 20.8017 19.7161ZM11.9095 15.1945C12.2321 15.1945 12.4942 14.9289 12.4942 14.6019V9.51253C12.4942 9.18561 12.2321 8.91993 11.9095 8.91993C11.587 8.91993 11.3248 9.18561 11.3248 9.51253V14.6019C11.3248 14.9289 11.587 15.1945 11.9095 15.1945Z" fill="#D13650"/>
</g>
</svg>
