<svg width="26" height="20" viewBox="0 0 26 20" fill="none" xmlns="http://www.w3.org/2000/svg">
<path d="M7.84612 12.3142C8.05649 12.3142 8.24057 12.132 8.24057 11.9237V11.5332C8.24057 8.9558 10.3706 6.84702 12.9741 6.84702C14.2363 6.84702 15.4197 7.34168 16.3138 8.22684C17.2079 9.11201 17.7075 10.2836 17.7075 11.5332V11.9237C17.7075 12.132 17.8916 12.3142 18.102 12.3142C18.3124 12.3142 18.4965 12.132 18.4965 11.9237V11.5332C18.4965 10.0753 17.9179 8.69546 16.866 7.65409C16.2612 7.02926 15.4986 6.58668 14.7097 6.32634C15.709 5.72755 16.419 4.66014 16.419 3.4105C16.419 1.53602 14.8674 0 12.9741 0C11.0807 0 9.52913 1.53602 9.52913 3.4105C9.52913 4.66014 10.2129 5.75358 11.2384 6.32634C9.02949 7.0553 7.45166 9.11201 7.45166 11.5332V11.9237C7.45166 12.132 7.63574 12.3142 7.84612 12.3142ZM10.3443 3.38446C10.3443 1.92654 11.5277 0.754995 13.0004 0.754995C14.473 0.754995 15.6564 1.92654 15.6564 3.38446C15.6564 4.84238 14.473 6.01393 13.0004 6.01393C11.5277 6.01393 10.3443 4.84238 10.3443 3.38446Z" fill="#148CF0"/>
<path d="M7.63573 15.8812L7.05719 16.4279C6.952 16.532 6.9257 16.6622 6.952 16.7663L7.34646 19.0313L5.29528 17.9639C5.19009 17.9119 5.03231 17.9119 4.92712 17.9639L2.87595 19.0313L3.2704 16.7663C3.2967 16.6362 3.24411 16.506 3.16521 16.4019L1.50849 14.8138L3.79634 14.4753C3.92783 14.4493 4.03302 14.3712 4.08561 14.2671L5.1112 12.2103L5.97901 13.9546C6.08419 14.1629 6.32087 14.241 6.50495 14.1369C6.71533 14.0327 6.79422 13.7984 6.68903 13.6162L5.68974 11.6116C5.58455 11.3772 5.34788 11.2471 5.1112 11.2471C4.84823 11.2471 4.63785 11.3772 4.53266 11.6116L3.45448 13.7464L1.06144 14.1108C0.824769 14.1369 0.614392 14.2931 0.535501 14.5274C0.45661 14.7617 0.509204 15.022 0.693284 15.2043L2.42889 16.8705L2.00814 19.2396C1.95555 19.4739 2.06073 19.7082 2.27111 19.8644C2.48149 20.0206 2.74446 20.0206 2.95484 19.9165L5.1112 18.797L7.26757 19.9165C7.37275 19.9686 7.45164 19.9946 7.55683 19.9946C7.68832 19.9946 7.8198 19.9425 7.95129 19.8644C8.16167 19.7082 8.24056 19.4739 8.18796 19.2396L7.76721 16.8705L8.18796 16.4539C8.34575 16.2977 8.34575 16.0374 8.18796 15.8812C8.05648 15.725 7.79351 15.725 7.63573 15.8812Z" fill="#148CF0"/>
<path d="M25.4651 14.501C25.3862 14.2667 25.1758 14.1105 24.9391 14.0845L22.5461 13.72L21.4679 11.5852C21.3627 11.3509 21.126 11.2207 20.8894 11.2207C20.6527 11.2207 20.416 11.3509 20.3108 11.5852L19.3115 13.5898C19.2064 13.7981 19.2852 14.0324 19.4956 14.1105C19.706 14.2147 19.9427 14.1365 20.0216 13.9283L20.8894 12.184L21.915 14.2407C21.9676 14.3448 22.0727 14.449 22.2042 14.449L24.4921 14.7874L22.8354 16.3755C22.7302 16.4796 22.7039 16.6098 22.7302 16.74L23.1246 19.005L21.0734 17.9376C20.9683 17.8855 20.8105 17.8855 20.7053 17.9376L18.6541 19.005L19.0486 16.74C19.0749 16.6098 19.0223 16.4796 18.9434 16.4015L18.3648 15.8548C18.2071 15.6986 17.9441 15.6986 17.7863 15.8548C17.6285 16.011 17.6285 16.2714 17.7863 16.4276L18.2071 16.8441L17.7863 19.1872C17.7337 19.4215 17.8389 19.6819 18.023 19.812C18.1282 19.8901 18.286 19.9422 18.4174 19.9422C18.5226 19.9422 18.6278 19.9162 18.7067 19.8641L20.8631 18.7446L23.0194 19.8641C23.2298 19.9682 23.4928 19.9682 23.7032 19.812C23.9135 19.6558 23.9924 19.4215 23.9661 19.1872L23.5454 16.8181L25.281 15.1259C25.4914 14.9957 25.544 14.7353 25.4651 14.501Z" fill="#148CF0"/>
<path d="M16.1033 16.3237L18.1808 14.319C18.3649 14.1368 18.4438 13.8504 18.3386 13.6161C18.2597 13.3818 18.0493 13.1996 17.7863 13.1735L14.8937 12.757L13.6051 10.1796C13.3684 9.71097 12.5795 9.71097 12.3691 10.1796L11.0806 12.757L8.18789 13.1735C7.92492 13.1996 7.71454 13.3818 7.63565 13.6422C7.55676 13.9025 7.60935 14.1628 7.81973 14.3451L9.8972 16.3497L9.39756 19.1875C9.34496 19.4478 9.45015 19.7081 9.66053 19.8644C9.87091 20.0206 10.1602 20.0466 10.3968 19.9164L12.974 18.5626L15.5511 19.9164C15.6563 19.9685 15.7615 19.9945 15.8667 19.9945C16.0244 19.9945 16.1559 19.9425 16.2874 19.8644C16.4978 19.7081 16.603 19.4478 16.5504 19.1875L16.1033 16.3237ZM15.3933 15.8811C15.2881 15.9592 15.2618 16.1154 15.2881 16.2196L15.7615 19.0833L13.1843 17.7295C13.0792 17.6775 12.9214 17.6775 12.8162 17.7295L10.2391 19.0833L10.7387 16.2456C10.765 16.1154 10.7124 15.9852 10.6335 15.9071L8.52975 13.8765L11.4224 13.4599C11.5539 13.4339 11.6591 13.3558 11.7117 13.2516L13.0003 10.6742L14.2888 13.2516C14.3414 13.3558 14.4466 13.4599 14.5781 13.4599L17.4708 13.8765L15.3933 15.8811Z" fill="#148CF0"/>
</svg>
